<mxfile host="app.diagrams.net" modified="2021-06-04T09:54:13.521Z" agent="5.0 (Macintosh)" etag="AR_6CqAl1SjjcE2A3JlF" version="14.7.4" type="github" pages="2">
  <diagram id="856ZvJbGQnMX7ldOnDJI" name="Page-1">
    <mxGraphModel dx="1465" dy="913" grid="1" gridSize="10" guides="1" tooltips="1" connect="1" arrows="1" fold="1" page="1" pageScale="1" pageWidth="827" pageHeight="1169" math="0" shadow="0">
      <root>
        <mxCell id="0" />
        <mxCell id="1" parent="0" />
        <mxCell id="XW7_ojzKSVhWm9udO3rs-1" value="TRON 根据账号计算风险分 " style="ellipse;whiteSpace=wrap;html=1;" vertex="1" parent="1">
          <mxGeometry x="105" y="40" width="130" height="80" as="geometry" />
        </mxCell>
        <mxCell id="XW7_ojzKSVhWm9udO3rs-2" value="tron_get_addr_riskscore2(addr)" style="rounded=1;whiteSpace=wrap;html=1;" vertex="1" parent="1">
          <mxGeometry x="60" y="157" width="220" height="73" as="geometry" />
        </mxCell>
        <mxCell id="XW7_ojzKSVhWm9udO3rs-3" value="" style="endArrow=classic;html=1;exitX=0.5;exitY=1;exitDx=0;exitDy=0;entryX=0.5;entryY=0;entryDx=0;entryDy=0;" edge="1" parent="1" source="XW7_ojzKSVhWm9udO3rs-1" target="XW7_ojzKSVhWm9udO3rs-2">
          <mxGeometry width="50" height="50" relative="1" as="geometry">
            <mxPoint x="140" y="380" as="sourcePoint" />
            <mxPoint x="160" y="160" as="targetPoint" />
          </mxGeometry>
        </mxCell>
        <mxCell id="XW7_ojzKSVhWm9udO3rs-5" value="1, tron_get_labeled_addr_riskscore(addr)&lt;br&gt;根据地址查询标签，计算risk" style="rounded=1;whiteSpace=wrap;html=1;" vertex="1" parent="1">
          <mxGeometry x="60" y="268" width="220" height="73" as="geometry" />
        </mxCell>
        <mxCell id="XW7_ojzKSVhWm9udO3rs-6" value="" style="endArrow=classic;html=1;exitX=0.5;exitY=1;exitDx=0;exitDy=0;entryX=0.5;entryY=0;entryDx=0;entryDy=0;" edge="1" parent="1" source="XW7_ojzKSVhWm9udO3rs-2" target="XW7_ojzKSVhWm9udO3rs-5">
          <mxGeometry width="50" height="50" relative="1" as="geometry">
            <mxPoint x="380" y="320" as="sourcePoint" />
            <mxPoint x="430" y="270" as="targetPoint" />
          </mxGeometry>
        </mxCell>
        <mxCell id="XW7_ojzKSVhWm9udO3rs-7" value="&lt;div&gt;2，tidb_utils.eth_get_related_addr(addr)&lt;/div&gt;&lt;div&gt;在trx_token_traces表进行查询，根据账号地址获得发送方，接收方的最大的20条记录，在183天内&lt;br&gt;&lt;/div&gt;" style="rounded=1;whiteSpace=wrap;html=1;" vertex="1" parent="1">
          <mxGeometry x="60" y="380" width="220" height="73" as="geometry" />
        </mxCell>
        <mxCell id="XW7_ojzKSVhWm9udO3rs-8" value="" style="endArrow=classic;html=1;exitX=0.5;exitY=1;exitDx=0;exitDy=0;entryX=0.5;entryY=0;entryDx=0;entryDy=0;" edge="1" parent="1" source="XW7_ojzKSVhWm9udO3rs-5" target="XW7_ojzKSVhWm9udO3rs-7">
          <mxGeometry width="50" height="50" relative="1" as="geometry">
            <mxPoint x="410" y="430" as="sourcePoint" />
            <mxPoint x="460" y="380" as="targetPoint" />
          </mxGeometry>
        </mxCell>
        <mxCell id="XW7_ojzKSVhWm9udO3rs-13" value="3, tron_get_addr_riskscore_array()" style="rounded=1;whiteSpace=wrap;html=1;" vertex="1" parent="1">
          <mxGeometry x="60" y="490" width="220" height="73" as="geometry" />
        </mxCell>
        <mxCell id="XW7_ojzKSVhWm9udO3rs-14" value="" style="endArrow=classic;html=1;exitX=0.5;exitY=1;exitDx=0;exitDy=0;entryX=0.5;entryY=0;entryDx=0;entryDy=0;entryPerimeter=0;" edge="1" parent="1" source="XW7_ojzKSVhWm9udO3rs-7" target="XW7_ojzKSVhWm9udO3rs-13">
          <mxGeometry width="50" height="50" relative="1" as="geometry">
            <mxPoint x="440" y="540" as="sourcePoint" />
            <mxPoint x="170" y="510" as="targetPoint" />
          </mxGeometry>
        </mxCell>
        <mxCell id="XW7_ojzKSVhWm9udO3rs-16" value="tidb_utils.tron_get_addr_array_labels()&lt;br&gt;查询标签" style="rounded=1;whiteSpace=wrap;html=1;" vertex="1" parent="1">
          <mxGeometry x="54" y="612" width="220" height="73" as="geometry" />
        </mxCell>
        <mxCell id="XW7_ojzKSVhWm9udO3rs-19" value="" style="endArrow=classic;html=1;exitX=0.468;exitY=0.986;exitDx=0;exitDy=0;exitPerimeter=0;entryX=0.5;entryY=0;entryDx=0;entryDy=0;" edge="1" parent="1" source="XW7_ojzKSVhWm9udO3rs-13" target="XW7_ojzKSVhWm9udO3rs-16">
          <mxGeometry width="50" height="50" relative="1" as="geometry">
            <mxPoint x="370" y="670" as="sourcePoint" />
            <mxPoint x="420" y="620" as="targetPoint" />
          </mxGeometry>
        </mxCell>
      </root>
    </mxGraphModel>
  </diagram>
  <diagram id="nbPUPHwSq4mbfJpfsETS" name="Page-2">
    <mxGraphModel dx="1465" dy="913" grid="1" gridSize="10" guides="1" tooltips="1" connect="1" arrows="1" fold="1" page="1" pageScale="1" pageWidth="827" pageHeight="1169" math="0" shadow="0">
      <root>
        <mxCell id="N9jU_cckzsBoXIB6CpFo-0" />
        <mxCell id="N9jU_cckzsBoXIB6CpFo-1" parent="N9jU_cckzsBoXIB6CpFo-0" />
        <mxCell id="IIjvISD3lN-DGj-ZSIPH-0" value="TRON 根据交易号计算风险分 " style="ellipse;whiteSpace=wrap;html=1;" vertex="1" parent="N9jU_cckzsBoXIB6CpFo-1">
          <mxGeometry x="162.5" y="37" width="205" height="93" as="geometry" />
        </mxCell>
        <mxCell id="IIjvISD3lN-DGj-ZSIPH-1" value="tron_get_txs_riskscore(txid)" style="rounded=1;whiteSpace=wrap;html=1;" vertex="1" parent="N9jU_cckzsBoXIB6CpFo-1">
          <mxGeometry x="130" y="154" width="270" height="86" as="geometry" />
        </mxCell>
        <mxCell id="IIjvISD3lN-DGj-ZSIPH-2" value="" style="endArrow=classic;html=1;exitX=0.5;exitY=1;exitDx=0;exitDy=0;entryX=0.5;entryY=0;entryDx=0;entryDy=0;" edge="1" parent="N9jU_cckzsBoXIB6CpFo-1" source="IIjvISD3lN-DGj-ZSIPH-0" target="IIjvISD3lN-DGj-ZSIPH-1">
          <mxGeometry width="50" height="50" relative="1" as="geometry">
            <mxPoint x="210" y="377" as="sourcePoint" />
            <mxPoint x="230" y="157" as="targetPoint" />
          </mxGeometry>
        </mxCell>
        <mxCell id="IIjvISD3lN-DGj-ZSIPH-3" value="1, token_utils.query_tron_transaction_info(txid)&lt;br&gt;获得TRON交易的双方账户地址,包括TRX转账和智能合约转账" style="rounded=1;whiteSpace=wrap;html=1;" vertex="1" parent="N9jU_cckzsBoXIB6CpFo-1">
          <mxGeometry x="130" y="273" width="270" height="85" as="geometry" />
        </mxCell>
        <mxCell id="IIjvISD3lN-DGj-ZSIPH-4" value="" style="endArrow=classic;html=1;exitX=0.5;exitY=1;exitDx=0;exitDy=0;entryX=0.5;entryY=0;entryDx=0;entryDy=0;" edge="1" parent="N9jU_cckzsBoXIB6CpFo-1" source="IIjvISD3lN-DGj-ZSIPH-1" target="IIjvISD3lN-DGj-ZSIPH-3">
          <mxGeometry width="50" height="50" relative="1" as="geometry">
            <mxPoint x="450" y="317" as="sourcePoint" />
            <mxPoint x="500" y="267" as="targetPoint" />
          </mxGeometry>
        </mxCell>
        <mxCell id="IIjvISD3lN-DGj-ZSIPH-5" value="&lt;div&gt;2，tron_get_addr_riskscore2(from_addr)&lt;/div&gt;" style="rounded=1;whiteSpace=wrap;html=1;" vertex="1" parent="N9jU_cckzsBoXIB6CpFo-1">
          <mxGeometry x="130" y="400" width="270" height="93" as="geometry" />
        </mxCell>
        <mxCell id="IIjvISD3lN-DGj-ZSIPH-6" value="" style="endArrow=classic;html=1;exitX=0.5;exitY=1;exitDx=0;exitDy=0;entryX=0.5;entryY=0;entryDx=0;entryDy=0;" edge="1" parent="N9jU_cckzsBoXIB6CpFo-1" source="IIjvISD3lN-DGj-ZSIPH-3" target="IIjvISD3lN-DGj-ZSIPH-5">
          <mxGeometry width="50" height="50" relative="1" as="geometry">
            <mxPoint x="480" y="427" as="sourcePoint" />
            <mxPoint x="530" y="377" as="targetPoint" />
          </mxGeometry>
        </mxCell>
        <mxCell id="IIjvISD3lN-DGj-ZSIPH-7" value="3，tron_get_addr_riskscore2(to_addr)" style="rounded=1;whiteSpace=wrap;html=1;" vertex="1" parent="N9jU_cckzsBoXIB6CpFo-1">
          <mxGeometry x="130" y="538" width="270" height="93" as="geometry" />
        </mxCell>
        <mxCell id="IIjvISD3lN-DGj-ZSIPH-8" value="" style="endArrow=classic;html=1;exitX=0.5;exitY=1;exitDx=0;exitDy=0;entryX=0.5;entryY=0;entryDx=0;entryDy=0;entryPerimeter=0;" edge="1" parent="N9jU_cckzsBoXIB6CpFo-1" source="IIjvISD3lN-DGj-ZSIPH-5" target="IIjvISD3lN-DGj-ZSIPH-7">
          <mxGeometry width="50" height="50" relative="1" as="geometry">
            <mxPoint x="510" y="537" as="sourcePoint" />
            <mxPoint x="240" y="507" as="targetPoint" />
          </mxGeometry>
        </mxCell>
        <mxCell id="zJAF13E1xL6LFFcT0l-s-0" value="" style="shape=image;verticalLabelPosition=bottom;labelBackgroundColor=#ffffff;verticalAlign=top;aspect=fixed;imageAspect=0;image=data:image/png,iVBORw0KGgoAAAANSUhEUgAAAxYAAAJZCAYAAAA0x6OqAAAYemlDQ1BJQ0MgUHJvZmlsZQAAWIWVeQc8le3//3WffY59jr33Jnvvvfcm4VjHimOGEkkZJRKiVJJZqRQqEWkoZfSQJJGMSqGiMvK7jXqe7/P9v/6/1+96va77ep/P9bk+61r359wAcI34RkaGIRgBCI+IoTqYGvC7uXvwYycBCnAAIsACZl9ydKS+nZ0VgMvv9j/L0iCANtrnMhuy/rv//1uI/gHRZAAgLxj7+UeTw2F8FwDUKXIkNQYAzAZdKD4mcgPvhzEzFTYQxgUbOGgLV29gvy3cssnj5GAI414AcLS+vtQgAOhHYDp/HDkIlkO/CvcRI/wpEQCwwJ5jdMjBvv4AcNnBPNLh4bs3cDKMxWH+SBhXwFjN7x8yg/5Dvt8f+b6+QX/wll+bBWdEiY4M893zfwzN/17Cw2J/6xCFK20w1cxhw384hkOhuy03MC2MZyP8bGw3Yg3jHxT/rbgDgCAEx5o5b/EjuMnRhnD8ACuM5fx9jSxhzA1jk4gwG6ttul8gxcQcxnDMEAmUGHMnGLPD+HBAtLHjNs9Z6m6HbV2IxkCqof42/ZEvdVPvhq7R2FBn/W35X4IDzLflI+kTg51cYUyAsXAcxcUGxvQwlo0OdbTc5tFKDDa0+c1DjXXYsF8Yxg4BEaYGW/KRcYFUE4dt/qzw6N/+Is8GU8xttvG1mGAns634IDvJvpv2w74gewMi9J1/ywmIdrP67Yt/gJHxlu/ImYAIZ8dtOT8iYwwctsaiCJFhdtv8KMGAMNMNuiCMlaLjHLfHolxi4MW5JR8VGBlj57RlJyoxxNfCbsse1DFgBQyBEeAHsXD1A7tBCKA8m22ahX9t9ZgAX0AFQSAAyGxTfo9w3eyJgJ+OIBF8glEAiP4zzmCzNwDEwfS1P9StpwwI3OyN2xwRCqZgHA4sQRj8O3ZzVMQfbS7gHUyh/Jd2X7iSYXvD4LrR//+m/6b+TdGHKVbblNjfGvkZfnNijDFGGDOMCUYCxYnSQWmirOCnHlwVUGoo9d9+/M2PnkL3od+iB9Bj6Je7KGnUf1lpDcZg+SbbsfD7ZyxQorBMZZQBShuWDktGsaI4gQxKCdajj9KFNSvDVMNtuzeiwv8v2f/hwT9mY5sPL4dH4Nnwenjxf4+kl6RX/iNlI9b/jM+WrX5/4m34p+ff+g3/EX1/uLX8NyfyMLIB+RDZjuxCtiCbAD+yDdmM7Ebe2cB/Vte7zdX1W5vDpj2hsBzKf+nz3da5EclouTq593KrW30xAQkxGxvPcHfkHiolKDiGXx++HQL4zSPIstL8CnIK8gBs3DVbx9dXh807BGLt+ZtGPgiA6jwA+OW/aeFfAbgC731+679pIt7w9sMAUD1FjqXGbdFQGw80fEowwDuNA/ACISAO+6MAVIAm0APGwALYAifgDrzhKAfD65wK4kEySAUZIBscAydACTgDzoNqcAlcA02gBbSDB+AJ6AUD4BW8eibBRzAPlsAKBEFYiA4iQRwQHyQCSUEKkBqkAxlDVpAD5A75QEFQBBQLJUMHoGwoHyqBzkE10FXoJtQOdUF90EtoHHoPfYGWEUgELYIZwYMQRexAqCH0EZYIJ8RORBAiCpGISEccRRQjyhEXEY2IdsQTxABiDPERsYgESBokK1IAKYNUQxoibZEeyEAkFbkPmYUsRJYjLyNvwfP8HDmGnEX+RGFQJBQ/SgZewWYoZxQZFYXah8pBlaCqUY2oTtRz1DhqHvULTYfmRkuhNdDmaDd0EDoenYEuRFeib6Dvw3tpEr2EwWBYMWIYVXgvumNCMEmYHMxpTD3mLqYPM4FZxGKxHFgprDbWFuuLjcFmYE9iL2LbsP3YSewPHA2OD6eAM8F54CJwabhCXC2uFdePm8at4BnxIngNvC3eH78Hn4uvwN/C9+An8SsEJoIYQZvgRAghpBKKCZcJ9wkjhK80NDSCNOo09jQUmv00xTRXaB7RjNP8pCXSStIa0nrRxtIepa2ivUv7kvYrHR2dKJ0enQddDN1Ruhq6e3SjdD/oSfSy9Ob0/vQp9KX0jfT99J8Z8AwiDPoM3gyJDIUMDQw9DLOMeEZRRkNGX8Z9jKWMNxlfMC4ykZjkmWyZwplymGqZuphmiFiiKNGY6E9MJ54n3iNOkJAkIZIhiUw6QKog3SdNMmOYxZjNmUOYs5kvMT9jnmchsiixuLAksJSy3GEZY0WyirKas4ax5rJeYx1kXWbjYdNnC2DLZLvM1s/2nZ2LXY89gD2LvZ59gH2Zg5/DmCOUI4+jieM1J4pTktOeM56zjPM+5ywXM5cmF5kri+sa1zA3gluS24E7ifs8dzf3Ig8vjylPJM9Jnns8s7ysvHq8IbwFvK287/lIfDp8FL4Cvja+D/ws/Pr8YfzF/J388wLcAmYCsQLnBJ4JrAiKCToLpgnWC74WIgipCQUKFQh1CM0L8wlbCycL1wkPi+BF1ESCRYpEHop8FxUTdRU9JNokOiPGLmYulihWJzYiTieuKx4lXi7+lwRGQk0iVOK0RK8kQlJZMliyVLJHCiGlIkWROi3VJ42WVpeOkC6XfiFDK6MvEydTJzMuyyprJZsm2yT7eYfwDo8deTse7vglpywXJlch90qeKG8hnyZ/S/6LgqQCWaFU4S9FOkUTxRTFZsUFJSmlAKUypSFlkrK18iHlDuU1FVUVqspllfeqwqo+qqdUX6gxq9mp5ag9UkerG6inqLeo/9RQ0YjRuKYxpymjGapZqzmjJaYVoFWhNaEtqO2rfU57TIdfx0fnrM6YroCur2657ls9IT1/vUq9aX0J/RD9i/qfDeQMqAY3DL4bahjuNbxrhDQyNcoyemZMNHY2LjEeNRE0CTKpM5k3VTZNMr1rhjazNMsze2HOY042rzGft1C12GvRaUlr6WhZYvnWStKKanXLGmFtYX3cesRGxCbCpskW2JrbHrd9bSdmF2V32x5jb2dfaj/lIO+Q7PDQkeS4y7HWccnJwCnX6ZWzuHOsc4cLg4uXS43Ld1cj13zXMbcdbnvdnrhzulPcmz2wHi4elR6LnsaeJzwnvZS9MrwGd4rtTNjZ5c3pHeZ9ZxfDLt9dDT5oH1efWp9VX1vfct9FP3O/U37zZENyEfmjv55/gf/7AO2A/IDpQO3A/MCZIO2g40Hvg3WDC4NnKYaUEspCiFnImZDvobahVaHrYa5h9eG4cJ/wmxHEiNCIzt28uxN290VKRWZEjkVpRJ2ImqdaUiujoeid0c0xzPBLfXeseOzB2PE4nbjSuB/xLvENCUwJEQndeyT3ZO6ZTjRJvJCESiIndSQLJKcmj+/V33tuH7TPb19HilBKesrkftP91amE1NDUp2lyaflp3w64HriVzpO+P33ioOnBugz6DGrGi0Oah84cRh2mHH6WqZh5MvNXln/W42y57MLs1RxyzuMj8keKj6wfDTz6LFclt+wY5ljEscE83bzqfKb8xPyJ49bHGwv4C7IKvp3YdaKrUKnwTBGhKLZorNiquPmk8MljJ1dLgksGSg1K609xn8o89f20/+n+Mr2yy2d4zmSfWT5LOTt0zvRcY7loeeF5zPm481MVLhUPL6hdqKnkrMyuXKuKqBqrdqjurFGtqanlrs2tQ9TF1r2/6HWx95LRpebLMpfP1bPWZ18BV2KvfLjqc3XwmuW1jga1hsvXRa6fukG6kdUINe5pnG8Kbhprdm/uu2lxs+OW5q0bt2VvV7UItJTeYbmT20poTW9db0tsW7wbeXe2Pah9omNXx6t7bvf+6rTvfHbf8v6jByYP7j3Uf9j2SPtRS5dG183Hao+bnqg8aexW7r7xVPnpjWcqzxp7VHuae9V7b/Vp9bX26/a3Pzd6/uAv87+eDNgM9A06Dw698HoxNuQ/NPMy7OXCcNzwyqv9I+iRrNeMrwtHuUfL30i8qR9TGbszbjTe/dbx7asJ8sTHd9HvVifTp+imCqf5pmtmFGZa3pu87/3g+WHyY+THldmMT0yfTn0W/3x9Tm+ue95tfnKBurD+Jecrx9eqb0rfOhbtFkeXwpdWvmf94PhR/VPt58Nl1+XplfhV7GrxmsTarV+Wv0bWw9fXI32pvpuvAki4IgIDAfhSBQCdOwAkOG8jeG7lgtsFCb98IODWBZKFPiLS4Ru1B5WBNsEgMU+wxbgIvBVBggZLM0vbT9dEX8VQyVjP1EzsID1h7mUZYn3DNsP+kWOBc5lrjQfBi+Uj8NMJEAWJQqzC7CJsouxi3OI8EvyS/FKC0sIyorJiO6Tl5OQVFVQUNZR0lY1VzFXN1UzUTTRMNA219LW1dDR0lfRk9UUNeAyZjQhG68ZfTaZMX5p1m7dYVFset0qxDrFxszW2U7YXc+ByZHTCOSNdIFeEG8od78HoyeElvFPGW2KXsA+fL6cfC5nkTwwgBbIGcQULUqRDVENNwlzCKRHJu/MjK6LOUouj82JyYjPjsuKPJhTvqU5sTXq1F+yTTtm1/2TqqwOC6bsPth/CHBbKVMgyyHbMCTySeDQvt/rY3bzh/MUCphMyhRZFgcUHTpaV3CztP/Xu9OIZ7FmOc5LlWudtK/wuxFQerCqsrq65Wfu4bvjih0s/63FX2K6KX9NtcL8edSOz8XRTfXPbza5bPbd7W57c6Wi92lZ6N6V9V4fGPeK9qc6b92sfnHqY/Sihy++x+RPZbvru2af3n53qiew16CP1TfRfe576l/2AyCBq8P2L7qH6l/nDMa9cRtRec75eHR190z52YTzz7e4J53dak8LwKlua/mvm+vuiDykfw2bJn8ifI+ey528szH3V+3ZuifS9+KfU8rPVlF8a6+v/mH8F5AwqH22JYcG8xjbgcvBBBCMaSVoG2lW6afohhiHGN0zviJ9IX5mXWNZYV9jW2H9xrHEucX3lnuOZ4h3h6+e/L3BTsFIoWzhMxEpUUgwv9kG8S6JGMkuKIm0pIyNLJzu3o0/uunyRQrIiWcle2UBFQVVAjai2rv5ZY0SzS6tRu1wnRzdez0ffwkDBkNMIYfTe+JnJFdM8s2hzJwsVSzbLFas31vdsam3z7JLsAx0cHfWd5J0FXEiuWNdlt4/uIx7dnne86nee9T6+65BPsi/Vj0L29fcIcAq0D7IJtqRYhpiFaobJhgtEsOymiURErkb9oP6MXotFxxHjhRI09jglRicVJrfsnUqh2c+XKpOmfcAm3e9gfMaRQ5WH2zKHs77nMB9ROGqfG3HsSF5d/qPj7wrWCzmLlIvtToaWHCw9c6r5dG/ZzJlf55jLJc5rV9hdIFfGVh2qLobPue66uUvEy4r1jleiruZeq2vovD5y40sTppnjpuQtjdsWLW53Altj2lLuprYf6Dh4L6Pz0P3DD7Ie5jw60nXk8ZEnR7pznmY/y+w51Jvel9q/93ncX1EDuwcjX8QMJb08OHz8VflIw+sHoy/ffBoHb4kTgu/kJ3WmzKf9Zs6+//RReTbpU+vnX/OaC3FfLn99t8i+ZPk95UfDz+kV7lWHtaxfndvzb4zQR+5Afka1ow9hHLHi2AXcTXwGwYGGm2aU9jxdOL06A4KhnTGdyYLIQOwlHWO2ZWFgecqaxWbCDrE3c0RwCnEOcWVz63B/4inlNeP9xlfGb8b/WaBAUENwRGivML9wq4i3yKposZiSWLd4gPiqxHFJKck2KUepKelUGRGZIdmcHQY7vslVyXsq0Cm0KUYqCSj1K6epKKiMq+aqaat9Ui/VMNdY1DyvZa/1S7tOx10Xq3tDj6xP1L9rEGnIb9hrlGasZDxtUmJqC7933DaPspCyeGdZZuVhzWr93Cbf1sGOZDdof9LB21HY8YPTVedEF2NXBtdht0r3aA8DT1rPQa8zO4O9FbxXdt33yfP18pPwWyJ3+h8P8A1UDEIFDQbXUlJCnEKlw9Bhb8JvRRTvjo90jdKg8kajomdjBmLb4+rjyxJy96QmxieFJvvv3bnPLcVpv0OqfZr9AYd0p4PuGTsPBRwOzYzOSsk+nJN/pOxoTW7jsXt5ffmjxz+fQBVKFHkVHzt5v2TllOxpv7ITZx6fXS1XOB9QUXKhpwpVrVUTX1tf9/GS5OWQ+torc9dUGvZf727kaApr7rzFdzul5W2rVVtLu3zHxU6p+1cfGjwafpzQzfe0t+dIn9Nz0QEw+HHo3fCH1+CNyPiuidop9EziR/CpYp78VXdJ7afzavHG/G/9J7hRMCoAnDgEwMb/PA41AORcBEBsDwBscO5pRweAkzpACJgCaLEDQBbaf+4PCE48CYAEeIAkUANmcH4ZBueURaAedIEJsAaxQ8qQIxQNnYCaoddwzieNcEGkIuoRo0gGpAEyHnkJOQVnaV6oUtQrOBPzQV9Af8KoYFIxz7A82HBsG46Eo+Da8Zz4WHw/QZFQRFilIdM8pVWnraZjp8uhR9An0X9niGVYYkxkgpiyiKzECpIaqZc5hAXLcoHVmHWK7TC7FHsvRwwnB2crlz83Dfc1Hg9eJO8lPk84I+gTyBW0FWISei5cJOIpKiA6JXZRPFpCQxKS7JLKk/aEV+e8bP+OFrlK+XyFfYoUJUdlDRU+VUh1TK1FvUAjRFNbi15rRLtGJ0ZXVw+n16ffYHDdsMnolnGryT3TLrMe80GLUctpqwXrFVucHau9qIOao5UT2TnZpdi11W3Gg+Sp7xW5s9x7wIfgq++XRG72/x6oFpQU3B5CCHUOqwhf3G0WWRY1F60Vkx07Gq+UcGzPQpJr8oN92imtqZZpE+mZGdqHQWZf9pUjp3Lz88yOIwvuF+YVB5QYnpIuEzwrUq5UYVMZVV1a++QSqFe9atPgfiO4KfnmidvX7vS3LXXwdpo9iHl09vGz7rUemb6dz48O3B0iDZNHLo3OjnNPqE3qTcu/p//wYvbo5x1z7QtmXzq/KSyWLC3/sP95YXlhVWMt5dfdzfNja/6J8PxLAFVgAlxBCNgHCkAd6ASj4AdEguQgGygCOgY1QC8RACEBZ/lpiKuIt3Aeb4VMR7YhV1DaqAOobjQ7OhDdiMFjvDGNWEZsGPYJThqXi1vEe+EfEGQJRTRImiiacVpn2sd0hnSt9Fr0d+As9hGjPeMonKeuEwtIsqSnzBFw5tnM6stGw9bMHsjByvGQcw+XNNc4dxGPLS+Ot4NvP7+BAEbgqWChkK+wrPCqSLdomViUuLEEl8QXycdS56VTZDxlNXdIyLHL4+VXFeYUJ5ReKD9Wua16Ua1E/ZAGVdNTy1BbUodRZ1F3WK9Vv97gqmGDUZPxbZM2006zx+a9Fi8s31hNWy/YrNjh7FkdxBzVnayd/V32upa43XQf9ljzEtxp4R2z66xPjx9EVvGPCKgJnAoWpYSEXA1dDjeNKNw9E6VF3RvdFouKs4ovSphKVE86mjy9zzilOpU+bc+Bafg86T1skfkw2yyn+6hD7lheynHegruFgcX0J5tL/U+Tyh6c3Vuucv7LhatVsTVadZiLA5cvXEm+5nVdpZG+aeLm9dsH7ti0sd8d76jppD7QeoTtGnxS83R/j1efznORAabBR0POLydfJb5mHr025jS+OlE96T7NMNP14fCs5WfGuRcLZ7+GLKp8R/zoWS5dDfqluD3/SIABtJsngDhQgVeAGwgHB8EZcBsMw/tfELKAYqEKaBBBgzCCd34HEoe0R55BfkFZoKrQeDQV/QbjBO92G+wAjoz7iS8kqBMmaU7S6tGO0CXR89N3McQzSjJOMJ0h+pEkSN+ZH7KUsSaxebLrcUhxsnPRcCO4V3mWeVf5gQAWfgPlEZYV0RZ1EAsS3y9xUvIGnHfPyzLuUJBzld+nUKHYo7SiIqHqrpav3q/JrOWuXaEzp6etf8TgjZGicbbJuJmWeaHFFys760u2tHZh9o8dJZ2ynT+4WrjVeuA9KV4PvUV3HfSZ9DMkVwYgA/2D7lFEQzJCZ8KtIuojWaISqGMxRrGX49kT9u35mOQG71OVlKpUjrSj6aiDyRlfDntkXs1az3E6UnV0+Zhj3uXjhALKiQdFUsU5J+dKXU/dKRM9kwef/f7nuy9oVlZVM9Uk1k5ddLzUUi96JffqUoP39QeNMk3Hmudv2d++fIfQGtjW2k7sCLjXeB/1wO5h6aOJxxJPKN2VT8d7OHvt+w72X3/+doAwKPfCYYj68uhwzat7IwOvp0YX3qyOQ2+xE5h3mEkwuTz1aXp05un75g/lHw/PRnyy/iw1h517M9+8kPnF46vE1y/fWhbTloy+Y753/kj5qflzYfnCiscqYbVxjfyL7te1dfeN+Y8OVFTYvD4gWgMA0KPr619FAcDmA7CWt76+Ur6+vnYeTjZGALgbtvWdafOuYQTgLNcG6ruy+F/feLa+Qf0jj/l3CzZvok2t8E202cK3EvgfYPLkLcZukuYAAABcZVhJZk1NACoAAAAIAAQBBgADAAAAAQACAAABEgADAAAAAQABAAABKAADAAAAAQACAACHaQAEAAAAAQAAAD4AAAAAAAKgAgAEAAAAAQAAAxagAwAEAAAAAQAAAlkAAAAAs6IvAgAAAgtpVFh0WE1MOmNvbS5hZG9iZS54bXAAAAAAADx4OnhtcG1ldGEgeG1sbnM6eD0iYWRvYmU6bnM6bWV0YS8iIHg6eG1wdGs9IlhNUCBDb3JlIDYuMC4wIj4KICAgPHJkZjpSREYgeG1sbnM6cmRmPSJodHRwOi8vd3d3LnczLm9yZy8xOTk5LzAyLzIyLXJkZi1zeW50YXgtbnMjIj4KICAgICAgPHJkZjpEZXNjcmlwdGlvbiByZGY6YWJvdXQ9IiIKICAgICAgICAgICAgeG1sbnM6dGlmZj0iaHR0cDovL25zLmFkb2JlLmNvbS90aWZmLzEuMC8iPgogICAgICAgICA8dGlmZjpSZXNvbHV0aW9uVW5pdD4yPC90aWZmOlJlc29sdXRpb25Vbml0PgogICAgICAgICA8dGlmZjpPcmllbnRhdGlvbj4xPC90aWZmOk9yaWVudGF0aW9uPgogICAgICAgICA8dGlmZjpDb21wcmVzc2lvbj4xPC90aWZmOkNvbXByZXNzaW9uPgogICAgICAgICA8dGlmZjpQaG90b21ldHJpY0ludGVycHJldGF0aW9uPjI8L3RpZmY6UGhvdG9tZXRyaWNJbnRlcnByZXRhdGlvbj4KICAgICAgPC9yZGY6RGVzY3JpcHRpb24+CiAgIDwvcmRmOlJERj4KPC94OnhtcG1ldGE+CpaoStAAAEAASURBVHgB7L0JeFTXef//at9XtIAkhNgXsZvNYIwxGG/Bduw0bvpLHCdN8o+btnHbNM+vzdKkedqmWdv+kjhxn6axnaRN7NhO7NgOXrDBmH0zIBAgAUISEosWtKL1f75nOKM7o5l772gkMYLveZ7RXc7+OXdG5z3v+54bVVpa2i8MJEACJEACJEACJEACJEACJBAGgegw8jIrCZAACZAACZAACZAACZAACWgCFCz4IJAACZAACZAACZAACZAACYRNgIJF2AhZAAmQAAmQAAmQAAmQAAmQAAULPgMkQAIkQAIkQAIkQAIkQAJhE6BgETZCFkACJEACJEACJEACJEACJEDBgs8ACZAACZAACZAACZAACZBA2AQcBYvZOdHyF0viwq6IBZAACZAACZAACZAACZAACVy/BBwFi+zEKFmY75js+iXEnpEACZAACZAACZAACZAACTgSiAr2grwVhdHykTmxEh8TJclKYdHU6XmP3vn2fvmnbd264EfmxUpirEhmQpRMz46WmpZ+eXJ/t9S29suscdHy2OJY+eHeHjne0KfTr54YIw/OjJG/f7tLOno8bcsbXyiPPPYFab3cLD/+7tc8N/mXBEiABEiABEiABEiABEhgTBEIqoqoVkLCplO98v55j1CAc3y2VHmu0cuUuChZVRQjdW398r9lPZKZKHLX1BgNAMJEVJTIzUpAMWF5QbTUK8HECBW4n5iUJMkpqZKZPU7iE1QBDCRAAiRAAiRAAiRAAiRAAmOOgNI3BA7Vl/ul+nKvEhxElkyIlt+f7A2Y8FJHvzx9yKN+SFeai7WTPIJEn1Jw7Krtk2VKmHjmsBIgVE3w1/j54auqiqulVZ06KU/96NvS0dEmXVc6A9bBmyRAAiRAAiRAAiRAAiRAApFNIKhg4bbZEEBM2FnrET6ilaYCgsW26l65Y3KMlCqBAkIHwq6raUweHM9UHrde8pwESIAESIAESIAESIAESGCMEQhbsLD2t1aZT71QPqCRONXUr/0ulitzqGRlNnX4Qp+0edwzrNl4TgIkQAIkQAIkQAIkQAIkMMYJDDhA2HQEvhJDDTtqemWR2lUKWgucBwqxsdzONhAX3iMBEiABEiABEiABEiCBsULAUbCobe0TtTGU3DYpRmaqnZ6K0kKTMt6r7pPU+CjtyL23bsDx2wDKm1Aof/XVb8ufffEb5haPJEACJEACJEACJEACJEACY4yAoykUzJneruqVP54dK0lKsXBI7RL1nZ3u7ZkuKufuc2r72TPN/dIVQGEBbUV8fIL0JffqXaHowD3GniA2lwRIgARIgARIgARIgAQUgaDvsRguOvkpUfKvt8fLv+/ulv0BNBaoJzU9Q7q7uuRKZ8dwVctySIAESIAESIAESIAESIAERpGAo8Yi3LbgpXhtXf3e92EEKg8vx2MgARIgARIgARIgARIgARIYuwRGXLA4eqlPjlzsk97B7hVjlxpbTgIkQAIkQAIkQAIkQAIk4ENgxAWLI2qLWQYSIAESIAESIAESIAESIIHrm4DjrlDXd/fZOxIgARIgARIgARIgARIggeEgQMFiOCiyDBIgARIgARIgARIgARK4wQkMMoVKTU2V1tbWGxwLuz9zesaIQig/QYf9EQXMwkmABEiABEiABEhglAlQYzHKwFkdCZAACZAACZAACZAACVyPBChYXI+jyj6RAAmQAAmQAAmQAAmQwCgToGAxysBZHQmQAAmQAAmQAAmQAAlcjwQG+Vhcj51kn0iABEggXAKZWeMkMSlZ6mrPhlvUmMg/aepMOVd9RrqudI6J9t5o44NBGZebL7n5BXp8+vr65HjZQe9Y4VktUWNoQnVVpVhfRjvWxtf0g0cSIIHIJkDBIrLHh60jgWtOYMWtd0haeqa8/vKz16Qt17r+uPh42fhHH5eZcxfK1jd+f8MIFktuXiOTp82SvTu2yObXXrwmY++m0ht1fMBm4dJVsur2u6WjvU0JgFd8BIuscbmy8cMfl6joaElMTJJnn3pCjh7a50U6VsbX22CekAAJjAkCMXl5eV+ztjRe/RPt6uqy3rom54889gW5/48/IWs23Kc/5UcOSmvL9beT0NxFy+TOB/5Y3t+z/ZpwDlZpzrhEHVU8bZEsWvmAnD6+J1jSId2/1HBlSPlCzRQu33Dzh9re0U7vpn8f/JNPyZSZpbJ/11Y9eRntNoZb/70f+pjc//AnZP0HPqR/S3Zt2yw93e5/45B32qy58ubvn5cdW1736b4bfj4ZQrj4669+Rwt0FcePhJDLfVKn8ivKj0hsXJyauN4lPT3dcvZ0hfvChymlG77BxicxNV5WfbhUWi61S15JppSumSRnyy7ols25dZLMWT1JSubn60/dyQbp7R7el7na1T9MeGTK9NmSN75Qvv3Vx2Xn1jd8ioV24r3Nr8mpE0dl8YpbpezgHrl4/pw3TSSMr7cxPCEBErhuCESsxmLL6y/JHjUByFU/mms2bJSoqKjrBrq1IxmZ2TJpynTrrYg6T07NlLwJUyKqTaE0Jly+4eYPpa3XIq2b/j3zk+9JfEKCjxnFaLY1nPqLJ0+Tm9Sk6r23/yC1Vad0s690drhu/qx5iwST2xd++V9yeP/OQfnc8BuUyeUNrDTLCP7sOZUPEyhoKmJj4+S2O++XQ/t2Sktzk8vWD08yJ75249Pf168b0a8O+IjnUt87faBOqpWQkZyZKDNXFA1PY/1KsavfL+k1uYyE8b0mHWelJEACI0ogYgWL0yfLdcfn2HQf9qX3PPRRKZxYIr29PVJRXiYvPfuUdF/VuBSo+/c9/Khk5+RLvbKLbm9rkb7ePvnVz36oS80vKJLb735QJpZM1YJL9ZlKeeX5X0jjJc+qlk3VOiolLX1QEti5drQ5vwdkxa3r5ZZ196p/2rESHR0jX/j693VZl5sb5cnv/aM+f+hj/59Ag5Sckib5BROlqeGC/P65n8uZyuM63qn/f/bFb2gb6YKiSZKRnaMnVs8+82Npa7k8qN3+N2bMv1XmLFonMTGxWpX+wMe/rpN0tDXLH577nj5fuf5jEhMXr9TsKZI5rkBNPBtkz9bn5MK5SsnKKZTVd/+pVFcekn3bXtDpb737U5KSliWbfuPpq3+d/tdO45eaniEP/PEnpbB4il5RrSg/LC/+z091MW74+tdnvXaT32l8YPO94b4Py8TJ0wXmGlWVJ+S5Z37itVl3Gh+n59OpfDwfWK3H96Nfzazw3GCC3NnRLm7690ePfFZgh43Q1toiT3z7q1ZE2r7b7vvn1D+fwgJcONVvV36CMv3IzsmT8YWTdMnVarW9ualBn/f19uqj0/cHiSZNnqG/L/5ChRO/8YXF8id/+pfa9OTVF36p6/uTT/2lZGTlyH9+/xv6edU3Hf5kj8uTz6nvcaDvr9P4Oz0/qNqufNO0Pdvflptv26DMombL+3vda1ZH4/sbbHzQdqOB6O3uVRoqfAY0Eu2XnTWmcQkxMn1ZoWRNSNP/N86fbpLKfXX6u4TyE1LiZM4txZKalSRN55UpUke39Ksqju+sRrRt/TpBhPwZ6vhGSPPZDBIggQgjMKZ3hVp2yzo9aTq8f5dUnjgmpQuXytyFy7yIl65aK/jnC80HhIXps+dLQlKSN37lbXeqSd802a3iYeKAf4Sr19/rjXc6efzL35K/+Yfv+nwefexvnbLp+PpzNfqftDEvwD9sfKCuNiEhMVG3uanxklZpJyenynIlkJjg1P+k5BSZPW+xVBwvk0OqbPR1/uIVJrvtsfnSOWX+tFcu1p3W6XCOT1XFgHNgbHyiFBTPVhOvRjl6YLMkJCbLjHm36vSNF2vkXNVRmTp7uWTnTZTJM5fIhOJZUnF0hxYCbSu/Guk0fh946GMyQQlNu959U46+v1eN/zIlKH5Q53bD164NbvI7jc/6jX8kJcpUYf/OrYr/Dpk6Y46yiV7prdZpfJyeT6fyl69eLxAqDyozu0PqOzJlRqkyiVjtmk+lMqHAMwnziZSUVG+7zclIPn+ow6l+O37zFi+XTz/+ZblLmRkifPjRP9PXuJd0tS9O7Ue+nPwJ0qgEev/g9HzU1VTJiaPvy6Llq/XvyoIlK5U51TzZp/wVYFbkNkyeMVuVc0gO7Hp30PfXafydnh+0wa5800b8drarxZLxanEjlDAa399g44N2QpiA1qC3q096upRgoT6hhAnTx2mhovrYRblwplkKZ+VI5vgUbxEFKj45I1FOHayT9uYrMn5qtsQqYcSEcOs35Yz0cajjO9LtYvkkQAJjk0DEaizc4Jw+e57+p/vyc8/o5Dl//VXtYLlf/RNGKFYrxSeVnfCml36tr4uUZsIa0jKypOHiea9jIlT9oZhcvfzs00rb4CubwYnOTYDdKz6r1t4lk6fPkk2/87TRP2+r0i78Rq1yI6SkpsmcBUu8SZz6j4SnK8vltRf/R+cpnDRFTyS2v7PJW0awk/qaE4LPrIVrJb9wuhzY/ruASTs7WuS9Nzz8E5JSpXjqAm+693e+IuMnzpIFy+9VmopsuVh/Wo4f2uqNdzpxGr+C4hIpP3LAO35YJTZj7JZvsDa4zW83PpVKoMPE/LjyD0KAEDRjzgIlCL3lrdZufJyeT6fyZ5QuUM6c72stHCpMUrvEFE3yfAfc9G/v9nd0O+9QAlJO7nhvm83JSD5/qMOpfqQJxg9sfvPzJ/WOObfe8QH9HYDWBcGYQrlpf4zSKHZ3DxYE3PB745XnZaryzVh/70OSqTSGWETwt4PXDbL5c6biuPf3q1iZTEIQMN9fp/F3en5QrV351mZBGAKLUMJofH+DjY9p55ZfHtKnbc2dcv5UaGZc8Muoq2iUM+/X6zKgmcidlCmN5zwa6XFF6VJ/qlGqj17U8VkFg4XvcOo3fRiN41DGdzTaxTpIgATGHoHQ/lNEWP/wj7O+dou3VRfqz0n+hCLvNSbiF9U9Exou1Et0TIy5lIpjh2Wd+qf/F3/3z1J/rlrKDx9Qq7vveeOdTkJJ61RWsHgIPiYcPrBbn8LmGf8InPqPxNb+NyvNR5LSegxnaG32/FNFmWcrDuiiYT4F07QrnW1yePersuy2P9bX29/4eUhVO40f+jIBJief+rwuN1WZphkzuJAqCiOx3fjg+VqgNBSL1ao1BFaYbsFUzhrsxsfp+XQqPyU1Xc6r59oEmGENZ4iE5y8YP4wLPnPm36S7jEk9tk61Bjftt6YP9RwmkZtffVFvQoHvKwSdUIPV2db/++s0/k7PD9piV36obfVPPxa+v/5ttl4npSVI1ZGB39+Whg5Jz0n2JklIjpO2xoGteNsaOiUqJsobzxMSIAESuBEJjGnBAgNm8ccbNH59yq48TvkAmIAdTqwTu21qxwzsNFWqnDOL1Gr+rLmLtF22260VH370c0pQ8dVYNDc2eFeITb3DdTxTUa5WGD2+J6ZMu/6bNKN1PF9bIfhYQ1TUgCBnve/m3Gn8UMaVzk5puexZicTx8lU7ejflD3ca//H56Gf+Sjk9K1OJk8eUjXaPMs0YvPJt1wan59NN+SP9fIx0+XZ8hiPOqf29PT363RVDrcv/92Go5QTK5zT+Ts9PoDKD3UtQzzGEo1DCaHx/wx0fx/74PCA+F9rMKjp24Pcf5/BlGothKOM7FvvJNpMACYw8gYgXLMzPdCATpY72Vu1DYTClZ2ZJu7pnwnnlxwDzAWgpsHqG1e2as6dNtD7C/hwfaAE+9tm/UT4N87ymNT4JA1zAXwOO19YQF+/OFMqaZ6hbvzj137eO4Fdg1NHWJhfqawMnGuIiXFJKhsxbepcWNmAKtWjVA/LGC/8xqI5g9TuNX3fXFb0K/Yff/UqXaWznB1UQ9tY6oQPA9qTj8sbL87/4T7Wb0C7dpEf/7Is+GrPB7Rx8J9jz6aZ8mOXBx8gE7OyTrPwLsEGBbwi9f8g/XM+fb1tG78pN+1vUZgr43bAPgfmlZWTK2rvUVs1qMSBLmULd9cBH5L/+45/ti3IZ62b8UVSw58dlNToZXsAGZ3hoTAKFa/n9dTc+gVrtuWf+vwT6iYAzdlLawMJUYmqCdHUOCFeXL7ZLdkGa1CgfjBglVMD/wphJBa9xcMzkzCi9a9XpZm9rBicawTtO4zuCVbNoEiCB65BAxAsW1Wcq9EovHFFhT4+AHV6wexJsjGFHDkdJvGW0YOJkZXrwgneYTh47pJ15P/+lbwpWZHqv7gZjEnziz/+vtht+8/e/0bv2QPgwO8eYNHbHp5/4jl20q7jzdbXaTwN24BfP1+kdpbDC7SY49d9NGXBYx4QXk9Dv/+PfDlqVvNxQp8x4oqX0pjuUNuC8+sfapnwvTropWhbevFFi4xNk/3u/VbtGTZDlaz8is9VOU0f3v+nNb1e/0/iBHV5aholbt3ovAd53cPb0Sfn1z37kLT8cvihkqPkhFKFNU5TDNnaDmj5nvhZysfOY22D3fLopH/vUzyxdKLVKmMbWotjJyPgfmTbY9W+2MiOCQJ+uTA4hnBv/HpgUweFzOJ4/045AR6f6A+UJ5Z6b9ledOikLl90icL4OZPpox2/Dxg/r351Nv/2V2rK5SB74yCfVTnD3yLtvvhJKMwOmdTP+ds9PwEKD3ITDP0wbzW501mTX+vvrND7WtgY6b2/qlN6ePimamSMXqjzvSWq7eu/CmSbJn5Kt3oPRoX7HYiR7Qqoc237WWwwcumetmijL7p8l2EGqvzd0wSA9IUr+YXW8HLvYJ9/cPiC0eCsZhRO78R2F6lkFCZDAdUYg4gUL7JuOHZvwhlHs9IIAW3HsngQn2GQlDGy4/2EtfJQf3i8HlbOsCfgHXqP2rsfOSJhcIb/eu/1qgm2bX5U77v2QwKQAS0b1dTWyw4Vjsyl/OI7YOeaYehvqSuXEHa8m4RCkTv2/b7oq2qn//oV4tPS+//xgGtajzD2CmenUqp2dqk8dklkL1qqXZcUrn40zSrD4f/5FD7ouLClVE+kFUnbgLWm6VKs/E6culNnKGfxsJZyZPf/E7ep3Gj84pUOYePgTn9MC0bnqqkFO8OHwRaeGmh+C75733ta7QOHZxUTcI1T48kcdJviPj93z6ab83dveUi9Yy5C7H/wTbbZRdeqE7NzyhqlOH+369+D/+ZTebthk+JDa/hjh92qzhL2qP8Px/JmyAx2d6vfP48/PGt/v59uCODftP7B7m96JDb5Y2KbXLG6YsoPxg0AHQWzbW6/qN3XXqe2uSxcu0Zs14LfL6ptjynI6WvvnZvztnp9AdVnLN/HY2WnJzbep36j9yp+t2tz2Hq/199dpfLwNDXICoaJy7zmZWJorRXNydar9r50UaCNqjl+S+CS1pax6kR7S1Z5okEvVA1t1w3G7paFdciZmSItKP35atvr/Elh7FaR6mT0uSitLNp8JbceqYOWFet9pfEMtj+lJgARIIKq0tNRnppOamiqtrQPmRGMBEUxg8CZdO8dd2Lpjq8nzSnh49qknfLqFHVuwtz3+WY/F4Kb/dv2CUzHYmd1ykHbm9Ay7LGHHlZ/wCBYoKFD9/hXYjR9eonVFvcwLEz+3Yf5NK/RLvwKl//mT3x/SxC9QWVjpR/sgWAw12D2fbsqH8A3bbzgTj0QYyvM3Wvzd9Nep/Xgfxh99/DG9McQmZXa3w084c1OHf5rh6r+b8bd7fvzbZb3GO4AgFENz+NwzT3rfv2JNg/Nr8f21tmEkxsdafrRyyMb7Kez8J6DZW3T3NC1gnNhVY81ue/7x+bGyOD9a/vrNLlGvWAo5rLvnQfWOkTu1GSteePffP/hXbxl4j8kDH/lTvTiQo8wy8X/vqFrEMsHt+Jr0PJIACZCAGwIRr7Fw0wm7CdPjX/mW+mGN0doA+DIE2ta1qWFgZyM39UVaGrv+u2lr6+WBSb6b9MOdxq5+N+MXivmaaXtdzVnvtp3mnjl2hCCgmDzBjhBYwxEqUK7d8+mm/Par26wGa2O494fy/I0Wfzd9c2o/tAs/+e7X9STb7XbSTvUOV//djL/d82PXTpic6ncEKZNTu3Atvr/W9ozE+FjL77MxcVp230y9ExRMpaCrOL59sFbHWpb/+czsaNl6tm9IQgXKgnma0cLDkd0a4DcHc0iE42UHtamtNd7t+Frz8JwESIAEnAhcFxoLu07evGaDthPHanyZWq1xmkTYlXUjxY2mxsKOK8fPjg7jSCCyCVzv39/cSdDsRqm3bPdKU32r0nz7GAA4Dk5afJR09PSLsrRiIAESIIHrgsB1L1hcF6N0DToRKYLFNeg6qyQBEiABEiABEiABEhgCgYFNuIeQmVlIgARIgARIgARIgARIgARIAAQoWPA5IAESIAESIAESIAESIAESCJvAdeG8HTYFFjCIgHXXpkGRvEECJEACJEACJEACJEACfgSosfADwksSIAESIAESIAESIAESIIHQCVCwCJ0Zc5AACZAACZAACZAACZAACfgRoGDhB4SXJEACJEACJEACJEACJEACoROgj0XozK6rHONy8yU3v0D3qa+vT79IyXQwMSlZSqbONJdSXVUpdi/D8ibkCQmQAAmQAAmQAAmQwA1HYEwIFisKoyUrMUperei94QZopDu8cOkqWXX73YI3CnddueIjWGSNy5WNH/64frNrYmKSPPvUE3JUvWSQgQRIgARIgARIgARIgAT8CYwJweK+6bGSnxIlm8/0SmePfxdEHpoZK7cWR0uGEj4QPvPKFelykEEeeewLPqvxT37/G1JXUzW48Ai48/hXviUNF+rl6R9/d0Ra09nRLt/+6uODyj5XfUbfL5hYIp/6/JcGxfMGCZAACZAACZAACZAACRgCY0Kw+KdtXRIfExVQqBifGiUbZ8TIr8p6pKKxX/er20GoQKItr78ke7ZtltzxhbJmw0aJivIIJQZMJB0juW2RxIltIQESIAESIAESIAESuHYEIlqweHR+rCzK9/iXN3aKfG1rl5dUrLqdmRAlxelRApHgREO/NHV6BAvPX2/SgCenT5br+3MCxnpuwv/gnoc+KoVqxb63Vwku5WXy0rNPSXeXpx1Yyb/v4UclOydf6mvPSntbi/T19smvfvZDXUB+QZHcfveDMrFkqhZcqs9UyivP/0IaL12wqXVwVG9Pj3R3dw+KSElLH3QPfhIdba2D7o/UjTwlmEH7A9+LH3/3ayNVDcslARIgARIgARIgARKIcAIRLVi8f75PLrT3y4zsaJmU4atRWJAXLX+5NM6L9yu3DJx/2oUplDejzcmyW9ZpoeLw/l2SoByZSxculVMnjsr+Xe/qXEtXrZXMrHFa85GaniFzFy2T0xUegQUJVt52p0ycPE12v/uW9PX1Cspbvf5e+d2vfqbzu/0DQaa768qg5I9/+VsSExPjc/9CXa088Z1/8Lk3kheJSUmSnJIqsbGxEp+QqPw0lATIQAIkQAIkQAIkQAIkcMMRiGjBYl9dnx6Q/qmiBAvfCfRxpaH4l/e6pTAtSh6ZFys/2NMtLVcVGm5ModyM9PTZ8+TE0UPy8nPP6OQ5f/1VmTl3oVewKJ48XU6WH5FNL/1axxcpzYQ1pGVkScPF87L5tRf17UP7dg7J5Kq7WwkW6uMfXn72aYmO9t0xGE7YoxmqTp2Up370benogPM3hYrRZM+6SIAESIAESIAESCCSCES0YGEHqqWrX45d6pe+fs/E+lRTv1zscGMEZVeqbxwEg/raLd6bF+rPSf6EIu91SmqaXFT3TICDdbRFg1Bx7LCsu/ch+Yu/+2epP1ct5YcPyME975nkro9dSluBHZv8w1DK8i9jOK7PVB4fjmJYBgmQAAmQAAmQAAmQwBgmMGYFi9Fibieq9PX3S1xcvLcpsXFxyuTJo2XBzW2bX5PWlmYpVSZSRZOmyKy5i5Q/Rp5Xg+HN6HACUygIF/7h4Uc/pwQZX41Fc2OD9uPwT8trEiABEiABEiABEiABEhhJAje8YGEEh0A7L3W0t2ofCjMA6ZlZ0q7umXD+XI0UT5mutRTQXkwoLJaas6dNtD4e3LNdaSm2Kx+EOPnYZ/9GYF5lTKN8EtpcvPi/P1VO4YO3ukpQ/g3R0b4mYnHxo2sKhWajbz09g53LbbrEKBIgARIgARIgARIggeuMQEQLFnDaxi6wOclRgl2gZo7zrM7XtPRLqzKFGo5QfaZCetSOS8tXr5fyIwd0kdWnK+Ryc6NUHi+TGaUL9Pst8BbqgomTZfOrL3irPXnskNr16YPy+S99UxKU43Kv3+T/E3/+fyVGOTW/+fvfSFx8vED4aG5q8OZ3c4J896mX1LU0Nw3SRDz9xHfcFDGiafImFMrHH/tbaWttkR996ysjWhcLJwESIAESIAESIAESiFwCES1YfPHmOImzWPr8/UrPzk//trtb9tf5ChYDBkihwcaEfceW1wVvoJ63eLnO/NwzP5Gyg3tkl9rNKVkJAxvuf1gLH+WH98vBvdu9Fbz75itSU3VKZs9bLLVKU4H8URZn6m2bX5U77v2QfPQzfyWizKbq62pkxzubvPndnKSlZ8rUGaXScrnJTfJRTwNtRXx8gvQl93JXqFGnzwpJgARIgARIgARIIHIIRJWWlvrM0FNTU6W1dcDcJ3Kaeu1akqS2U+3BzkxX318RqCXYavXTj39Zzivh4dmnnvBJkpmdo02ZoAUZSkD9eJfFSOy6tO6eB+VmtS3uhfpaXf5//+BfvU3Eezge+Mifqi1tYyUnb7zu19FD+7zx5gRb7YLNlc4Oc4tHEiABEiABEiABEiCBG4yARR9wg/VcdTczM0U++ck1+ojeB7tOiOvXE+dA8V/6l3+XL3z9e/I3//AdyVA+GLkZzYPKk74ObVoVKL/b+iFUDDU/8gXr38xpCXJg59vq5X9H5Fx1pQ+PuNh+SY6/LFUVZfLe239QgkOzT7wuVP3By/EoVBgaPJIACZAACZAACZDAjUkgJi8v72vWrscrm/4um5V5a9qxfF5Skiv33LNA3nqrTB8bG9uHdF1RcV4yU6/I+/v2SmxPmfzh1W1hlRdue0LNv+m1nTJ3dqLs3blH5s9J9uGxft1MefWlN73xa2+b6o3fv//MWB5+tp0ESIAESIAESIAESGCYCdywplDQFDz//B5pamrTmoAHH1zC6xB4gBsDCZAACZAACZAACZAACRgCN6xgYQDwSAIkQAIkQAIkQAIkQAIkED6BG9rHInx8LIEESIAESIAESIAESIAESAAEIk6wwK5UDCRAAiRAAiRAAiRAAiRAAmOLQMQJFmMLH1tLAiRAAiRAAiRAAiRAAiQAAhQs+ByQAAmQAAmQAAmQAAmQAAmETYCCRdgIWQAJkAAJkAAJkAAJkAAJkAAFixvoGcA7SpKTk2+gHo9uVyONb3p6ukRHB/+KO8WPLj3WRgIkQAIkQAIkMNYJRNwL8m6UF/RZH5zi4mIZP368XLp0yXp72M6joqJk0aJFsmzZMmltbVXv7mgaVPaUKVMkOztbGhsbB8Xxhj0BN3ztSxiZ2Dlz5shNN90kfX190tDQMKgSp/hBGXiDBEiABEiABEiABGwIxNrEMUoRKCkpkUmTJsk777wjkydPFggBOB/OMHv2bMFuWBUVFdLT0xNS0erN6TJt2jR57733guZbsGCBFBUVya5du6SmpiZgurlz5womyGhDpIYVK1ZITEyMbNu2LaKaGIjvqlWrpKCgwNvO3//+99Le3u69Ho2TgwcPSktLi6B93d3dcuaM79vSneJHo42sgwRIgARIgARI4PohQMHCYSyzsrKkublZp8J5oNV+hyIcozdv3qwnzKEKFSgYpk0TJkwIWkdOTo4WPLZs2SLnz58Pmm7Tpk1B4xgRnEAwvocPH5bjx48LzI0WL16shbbgpYxMDDQVJ0+e1M8WNBe1tbVawDC1OcWbdDySAAmQAAmQAAmQgBsCFCyCUMKEHav40Ah0dHRoMyKcY9UZZkt1dXWyfv16uXjxoowbN04yMjL0xH3nzp3eyRsmlLGxsZKUlKTTXL58WWsNcETAZM+saqOON954w6c1pvzc3FxJS0vT5e/YsUNrNaA5wUo0VvBhR79x40adF6ZOEFRMwMQXbQ4kVGzYsEESEhJMUt2X7du3e6/BYN68eZKfn68nxvX19bJ//365cuWKToO86APah0lqdXW1HDhwQPr7+3W8Xfu9ldicoM/Lly/Xk/MLFy7oOqzJ0f4TJ07IqVOn9G2Ye6FNYASzLmg4Ojs7tfBVVVWlNU7l5eVy7Ngxnd60L9j4OfUfhQTja4RRXVGQP078UlJSdB/wbMFMDs8I2O7evVuX6KZ9SHj69GmZP3++ZoIx9A9O8f7peU0CJEACJEACJEACgQgE9+wMlPoGuoeJMibkiYmJ2j7dem40C4iDb8K5c+f0BBcCB0yOTIC/CMyoYI7y/vvv67JmzJhhorVwgokx/BpQln/APZhfwXwJ6VC+EUQwccU9CDgIOMcHk0RryMzM1PVb75nzyspKbz70zypkIA3aijrLysoEK/AQIGbOnGmyy9SpU7XgBfMptBHXSG+CXftNGrsjTLwwuUb9EJigmYG5lgkoPy4uzlzqczBHgMCFvOhjb2+vFvxwPn36dG965LcbP6f+oyA7vt6Kgpw48UP/YSKH/kMYxbNk7a+b9qFqCIIQsKBxCxSc4gPl4T0SIAESIAESIAES8CdAjYU/kavXmIjBjGTWrFkCW3RMQjGphoAAocMEmJdg4oeA1WtMrM0KOu5hwr5v3z6c6ok7JrImGH8HlIsJaqAAocWUD40JBAusvkOwwAc+IIWFhd5VeP8yMME2gpB/HPpnAiaw/m89x8Qcpl8mHTQS1jBx4kRttw+hAwEr67iHNpsQrP0m3u4IlvALMBoGaE5CDcgPgQTCG1b9MZ7Q8JgxtBs/p/6jLXZ8ndrqxA/9B/Ng/XfTPtMGPAN2O0Q5xZtyeCQBEiABEiABEiCBYASosQhGRt3HRBkr5ZiEwla+ra3NOyE12aw+F5jowzzFGnDPhLNnz+oVdOuqu4kLdrSWD82HWZEPln4470PwgTBz5513ypIlS/SKtzGDQj0QRKy7SKGtMF+yhnDaD5bW/Dg3ZlbWOpzOTR5ztKa3lu8/fk79t5YzlHMnfjChsz4/1raivpFu31D6xDwkQAIkQAIkQAI3LgFqLIKMPWzS4ceAifxdd92lfSVwfscdd8jrr78eMFegias1IcxZjhw5Yr014ucwA/I3cXJbKcyqoLmBVgTaAphlwcfCaDDcljNW0vmPn5v+h8PXiQvaA42ICfDXMZoW3HPTPpMXzy7aGiw4xQfLx/skQAIkQAIkQAIkYAhQsDAk/I4woYFNOibWMD2CuRLMmnBuDVYNBc67urqs0df8HG2GidZQA3w48IGW5ZZbbtGmTkawABur+RRMc3Av1ABtELj558UWqSjTBPC1akyQ3p8/HJxDCf75/cfPrv+ox4mvv7BibZsTP5huQaCDwzl8KzCO/k74Tu1DfTDjg+AAjVug4BQfKA/vkQAJkAAJkAAJkIA/AQoW/kSuXsMEBavF8BHABy8TwxETOWuAnTzs9JEWZkPG38CaJtg5JoqYsGPyDPt3OEcjQLNhnUAHy2/SIi98N2AqhYmx1XwGuylBKIK9vn/b7cpF3OrVq3W7sNMT+gfTHJiGmQD7f2h18PI1TFzR/71795poV0f0HaZWmGS//PLLPqZO4I3y0QezsxbumQBTIGhR0C9oZcDT7n0eJp/1aDd+Tv1HOU58MRbwX4DTONqLAJMmCE1O/JAeJmj33HOPFiys2gqU46Z9SAdGyBvoJXlu4pGGgQRIgARIgARIgAScCFCwsCEEfwEzSbeeW7Ng+86lS5fqiS0mvfCjcBvWrFnj41B722236ax4ARyElUDBfwUck0U4i8N0C6vamGRv3brVmxVtwso3toXFNqw4DxSQ13/iCrMt5IP5FwLyHj161JsdmgtM+LElLMxs0A5/B29v4qsn/u3HNfIGMtNB+dCIgBOEJqzWW/OjPozLypUr9eQduz5ZBQ//ugNd242fU/9RnhNfCBAQNiFYmB2p3n77bS2QOPFD/zC+2GkMR5ikWf1z3LQPefECRpQF7Yp/cIr3T89rEiABEiABEiABEghGIKq0tNTz0oGrKTCRs65KB8s4Uvevdf2h9OsDH/iA9jfArj1YMXerZQiljuFIi7bhTdB4XwPes+FvzoUdqSDUYKKKLWv9A7QRmNBjkhwoQJsBocQ66Q+ULtg94zvgL9iY9E5snfKbcvyPbsfPqf9OfP3r9b92ww9aqXXr1mkBw18rFKx9EDahrcJ4490X/nyd4v3byWsSIAESIAESIAESsCPAXaFs6GRmpsgnP7lGbQXrsfP3v8bq8ZIlk3U8hAr/+Ei5TkqKlbfeeks5Xu+WtWtn6HbCr+G++zbKhz/8kNZIwPyqsfF8wP4mJ8dpoSJYf9LSErVQESwe9xGCxaemJuhJb7B4tD+c/MHqdzt+Tv0PxNeuvf7tseP38MMP6pcf3nfffVp7M3duluZoLT9Y+zo6WpSZXYPy0TgckK9TvIbOPyRAAiRAAiRAAiTgkkCMsov/mjUtVj/9HVit8SN9fq3rN/0rKclVtu0L1IS8TB8bG9sHXc+alSt79pTLhg1z1KR8cLxT/tGOv+226fL224d1Py5caFGmOTly/PgpZWoTrYSOQ2r3q3m2/R3t9o50fcM9fla+w/U8HD1arRzmU9Q4VSo/mhg1foeCPo/+vG67bZp6C7tnvAO1xy5+//4z5qvAIwmQAAmQAAmQAAm4IkBTqCCYoKl4/vk9ytG2Ta8QP/jgEl6Txw3zPOC5ZyABEiABEiABEiCBUAhQsAiFFtOSAAmQAAmQAAmQAAmQAAkEJEAfi4BYeJMESIAESIAESIAESIAESCAUAhQsQqHFtCRAAiRAAiRAAiRAAiRAAgEJULAIiIU3SYAESIAESIAESIAESIAEQiFAwSIUWkxLAiRAAiRAAiRAAiRAAiQQkAAFi4BYeJMESIAESIAESIAESIAESCAUAhQsQqHFtCRAAiRAAiRAAiRAAiRAAgEJULAIiIU3SYAESIAESIAESIAESIAEQiFAwSIUWkxLAiRAAiRAAiRAAiRAAiQQkAAFi4BYeJMESIAESIAESIAESIAESCAUAhQsQqHFtCRAAiRAAiRAAiRAAiRAAgEJULAIiIU3SYAESIAESIAESIAESIAEQiFAwSIUWkxLAiRAAiRAAiRAAiRAAiQQkAAFi4BYeJMESIAESIAESIAESIAESCAUAhQsQqHFtCRAAiRAAiRAAiRAAiRAAgEJULAIiIU3SYAESIAESIAESIAESIAEQiFAwSIUWkxLAiRAAiRAAiRAAiRAAiQQkAAFi4BYeJMESIAESIAESIAESIAESCAUAhQsQqHFtCRAAiRAAiRAAiRAAiRAAgEJULAIiIU3SYAESIAESIAESIAESIAEQiFAwSIUWkxLAiRAAiRAAiRAAiRAAiQQkAAFi4BYeJMESIAESIAESIAESIAESCAUAhQsQqHFtCRAAiRAAiRAAiRAAiRAAgEJULAIiIU3SYAESIAESIAESIAESIAEQiFAwSIUWkxLAiRAAiRAAiRAAiRAAiQQkAAFi4BYeJMESIAESIAESIAESIAESCAUAhQsQqHFtCRAAiRAAiRAAiRAAiRAAgEJULAIiIU3SYAESIAESIAESIAESIAEQiFAwSIUWkxLAiRAAiRAAiRAAiRAAiQQkAAFi4BYhudmfHy83H777ZKenh5Sgbm5ubJ8+XKfPLNmzZJJkyb53At2MX78eFm3bp3gaBeKi4ultLTUJ8nChQtt61m8eLHk5+f75MHFsmXLAtaHtGiH+WRkZEhMTIysXbtWoqKivOXExcV5z3lCAiRAAiRAAiRAAiQw9gjEjr0mj26LS0pK9ET7nXfekcmTJwsm4zh3ExYsWCDjxo2TlStXSn9/v85SX18vfX19uhxTRltbm2zevFlfYoK9dOlSOXnypEyYMEHy8vLk4MGDWjhJSEiQK1euSGZmpmRlZcnevXulq6vLFKOPBQUFWig5ffq03HzzzbJz506pra31SWMuZs6c6RMXGxsrU6ZMka1bt5ok3iPiIBCg/9XV1YK29Pb26ntIhLZWVVXp+7ju7u7GQW699VZpaGjQ58hz6dIl3e6cnBwtWIALhA8IUq+88or09PTotPxDAiRAAiRAAiRAAiQwtghQsHAYL0zgm5ubdSqcNzU1OeTwRGNlHpPw7du3ayEAeSEgQBCAluDs2bNy4sQJHTd//nxvmdAItLS0yPHjxyU5OVlWrFghEEYQpk6dqgUNtOfixYs+K/6InzhxoixZskRP3DHJxyQe+Xfv3q3rQxoTMLGHJuXdd9+V7Oxs3cfCwkItKMyYMUOmT5+uk2Lijz7MmzdPpk2bpu+tWbNGH9F+kw43Vq9ere/jD4QvtBH5t23bJtDCQDiBoGQNKSkpWttx7NgxChVWMDwnARIgARIgARIggTFGgIJFkAHDpH7u3Ll6ItzR0aEnv5gUt7e3a7Oeurq6IDk9t7E6j9V3aAAwecZqPzQYCCgPcSgLcSZAMIAwgviNGzdKdHS01lBA2GhsbJSjR4/qD9JDewLtBjQYqAsmTBAM9uzZozUHSAPhAuZGMFOCRgGCDdIjQEg4rbQamPhDUNixY4fMmTNHayOMIAVBAFoNhP3790tnZ6dAYCorKxNoWaCxOHDggNboQBh5/fXXdVrzB+1HAEvEV1ZWmih9NCZf0KhAkGIgARIgARIgARIgARIYuwQoWAQZO5grYeKfmJgoNTU12rQH5zADcmOug4k3JuOYnGPSj9V7TOQR/Fft9U31B5oJTPAxYUfdqAeCAXwrUlNTJSkpySTVmgJM9KF1uOmmm7QwAg0FzIr8fSBgigSBYMOGDVrwQD4IMadOnZJVq1bpejHJR70wnULfEVAfBAITYGYFzQL8Rt544w3dJghCKBv+JBBgTDh//rxXwDH3/I/QlEBYguaDgQRIgARIgARIgARIYGwToGARZPww+YafA5ymsdIPoQKr9++//7534h0kq74NwQLaAZgioSzkh5YBwgYEC5QFrQFW9aGhQICZVFFRkTYbMr4TWO3ftWuX1hBAcwGtBPJACIAggck+NAHQIsAsyWgJdIFX/8B8q6KiQmskTDy0GRB6YKIFYcL0DT4hFy5c0DmtztXw68AHfcJ945COstEGmHbBhMsECEbBAoQRBHCBxqRE+bEgQPhqbW3V5/xDAiRAAiRAAiRAAiQwtghQsLAZL6zEY6KLFXxMpCEsmNV8m2w6CsIDnLAhIOzbt8/rW4EJPASBM2fO6HQoz5gemTJhFmTMhozfAibgEDAgTODcCCNGCwIhAcJCsABTrMOHD3ujURZ2jsI99BGO4BBa4PD91ltv6TZBgEBdJly+fFkWLVqkzbrgc4H68IGPCNps1eSgfUaIMfnNEYIIArQm4ASBwmhpKFgYSjySAAmQAAmQAAmQwNgiQMEiyHhhsoyVdZj43HXXXXp1H+d33HHHIF+CQEVg9b68vFzS0tK0iRBW5xFgXgTTJQRM9lHmb3/7W31t/kD4gG8GgjF/wgQcWgBM2KE5gNADTYqZzEMzgi1dMUH3D5jgw8wKjtomQPsB3wyEW265RQs60DpA4EFZb775ptZMGMECmgnjQ3H//fdrh2wIAWCEvhmHbgg4+Dz33HOmKu1HYtqJmzD3+uAHP6jbA1MsmJfBLIuBBEiABEiABEiABEhg7BKgYBFk7DDBhpkQJs1YlcdkHxN7O62AtSgIADClwgo/JvUQMvwDhA5M8P0DfA7MRBtb1ZoAsyxM5KE5wUQfE3jrhB2aEaPpMHlwhJBitAS4hr8G/DZQBky0oPWATwQChBVoMmC2hXtGUEFdaC8+EIigjYFg8tprr2nBAJoX3Mf2sqYsXaD6AyHICFbmnjmCM0y4TH/NfR5JgARIgARIgARIgATGFgEKFkHGC+ZJmCifO3dOf7BjEs6ddoMKVBycqY1PgjUe5QcK8L0wL8MzGgukgx8FPggwW8KuUMEm7DpRkD/QNLz44ovarAvaDPhVoH3GJOntt9/WpltwrjamX9giF74Q0MTARAos4NSONNB4QIhCGRB0jhw5omtG3pdeekkLIXivBeqCyZU1oAwIX9C2DIWttSyekwAJkAAJkAAJkAAJXDsCFCxs2GN13vg/WM9tsgSMgjN0IE0CyvR/8zUKsO6UtH79em+Z0BqYgN2a4JBtdZiG43cgAQYaA6N5QH5oLKCRgEABwQDh0KFDWrDAuXEcN87auAendWgzEGAKBfMl4w+B+/C5gBAErYk1QGBAPdgGF7tGQdsCPxEEaFLQZvh5QAMCU6uhCErW+nhOAiRAAiRAAiRAAiRwbQgMzFSvTf0RXavV9wEr/EMNmFgbfwZrGVZBwXof59gNCpoA40AOAQeTd2gysPIP3weze5PJi3tWAcLcN1oHc42yIVxAQwANCCb6Jh+0KGvXrvXu/ASBAsH4WpgyrEeYM0HzAK0OttbFzlEQPGC2BV+VLVu26PdwQACBdsIIHxA6UD9Mp/CeDaTn+yysZHlOAiRAAiRAAiRAAmOHQJRaMR/Y9ke1GxNOsxJ9Lbpxresf7j7DTwMBL7jzD3DcxvsjMCk3AW/ExsQcmgjjsG3GA/4QECoQ4MNhnexDeMG9QNu84iV8yGs0BaauYEeUBaEHu0ChTP8AIQB+I/4CC9Jh/NAGxKEMCFTQUpiAdkArAW2NVdsCsy6YSzGQAAmQAAmQAAmQAAmMTQIULMbmuLHVJEACJEACJEACJEACJBBRBDzL3xHVJDaGBEiABEiABEiABEiABEhgrBGgYDHWRoztJQESIAESIAESIAESIIEIJEDBIgIHhU0iARIgARIgARIgARIggbFGgILFWBsxtpcESIAESIAESIAESIAEIpAABYsIHBQ2iQRIgARIgARIgARIgATGGgEKFmNtxNheEiABEiABEiABEiABEohAAhQsInBQ2CQSIAESIAESIAESIAESGGsEKFiMtRFje0mABEiABEiABEiABEggAglQsIjAQYm0Jq0ojJa7p8ZEWrPYHhIgARIgARIgARIggQgiEBtBbYnYpjw0M1ZuLY6WjMQo3cbPvHJFunpHtrmPPPYFKZk601vJk9//htTVVHmvR/Pkvumxkp8SJZvP9Epnz/DUHEn9G54esRQSIAESIAESIAESuLEJULBwGP/xqVGycUaM/KqsRyoa+3Xq7hEWKlDJltdfkj3bNkvu+EJZs2GjREV5hBqH5o5I9D9t65L4mKhhEyoirX8jAo2FkgAJkAAJkAAJkMANRoCCRZABj1VGYpkJUVKcHiWY0p9o6JemTo9g4fkrkhYfJY/Oj5XZOdHS09cvu2r75JdHekSd6vDIvFhJVIRRzvTsaKlp6Zcn93dLbaspIUjl6vbpk+U6ck7wJDIuN1/ueeijUjixRHp7leBTXiYvPfuUdHd16VwF6v59Dz8q2Tn5Ul97VtrbWqSvt09+9bMf2pQ6EIW+Lcr3WMs1dop8baunXJPi67fGy/GGPpmh+lagBLCyi33yo73dcsWF4DUa/csvKJLb735QJpZM1YJZ9ZlKeeX5X0jjpQumC5KnBDdoT1ovN8uPv/s1732ekAAJkAAJkAAJkAAJhEaAPhZBeC3Ii5bvro+Xz90Up1N85ZY4fY178VfdDW4viZY5Sqh483Sv7DnXJ+tKYmRe7gDSlLgoWVUUI3Vt/fK/SuORmShy1zD6Kiy7ZZ0WKg7v3yWVJ45J6cKlMnfhMm+Plq5aK5lZ47TmA5Pp6bPnS0JSkjfe6eT9832y6VSvnG7u1233T58eL7KmOEb2nuuVP1T2CpgtHj/Qf//0oV6H27+Vt90pEydPk91K87Njy+sCQWv1+nt9mpGoeCSnpEpm9jiJT1ADxEACJEACJEACJEACJDAkAtRYBMF2XGko/uW9bilMixJoHn6wp1tari7YG1Oo5QUx8l51r/zmmMfxYKLSbiwriJaDakJuwqWOfnn6kCc+XWku1k4avon39Nnz5MTRQ/Lyc8/o6nL++qsyc+5C2b/rXX1dPHm6nCw/Ipte+rW+LlIr96GEfXWefvSrbJMyrkpTfgXsV2l+d8KjopiTEyUL82Nke81A//2Sh3QZbv/SMrKk4eJ52fzai7reQ/t2DjIpqzp1Up760belo6NNuq4otQwDCZAACZAACZAACZDAkAhQsAiCraWrX45d6ldmTR5B4FRTv1xUQoI1wKH51YqBe2fUyv6UTF9fiOrLA/E7az0T8GiVxJhLWcsL9RwT5/raLd5sF+rPSf6EIu91SmqaXFT3TGi4UC/RMYEFBJMm1GPV5QEhApoZCE/DFcLtX8Wxw7Lu3ofkL/7un6X+XLWUHz4gB/e8N6h5ZyqPD7rHGyRAAiRAAiRAAiRAAqERoGARGq9BqQfEhkFRg27UKh+LF8o92otBkUO8YVd/X3+/xMUpe6WrITYuTvr6BgQBcz+Sj+H0b9vm16S1pVlKFy2ToklTZNbcRcrfJM+rwYjkfrNtJEACJEACJEACJDDWCAyfXc5Y6/kwtLfpSr/kJQ+s0Oeq88u+/s1h12Im1oF2hepob9U+FKaS9MwsaVf3TDh/rkaKp0zXWoq0jEyZUFhsoiLmONL9O7hnu/zyP/9d/uOf/k7Onq5QfibzBvU9NtbjRzMogjdIgARIgARIgARIgARcE6DGwjWqwQn3qF2gVhZFy6nmaEmOjdKO3D892D04YRh3qs9USE93tyxfvV7KjxzQJVWrCfLl5kapPF4mM0oX6PdbJCYlK+fkybL51Re8tZ08dkjtivRB+fyXvikJyjG5t9fFdk3e3KJ3e8IutzlKYMIuWTPHeeRQ7G7VqkzFhiOMZP8+8ef/V2JiY+XN3/9G4uLjBaZhzU0NPs3Om1AoH3/sb6WttUV+9K2v+MTxggRIgARIgARIgARIwD0BChYuWQUyIHpD7QaVqV6a99lFceqFef2ypapX9l51eHZZrGOyluYmvaPRwqWrZN7i5Tr9c8/8RMoO7pFd774lyWqyvOH+h7XwUX54vxzcu91b5rtvviI1Vadk9rzFUnv2tM4fFe1eSfXFm+MkzpL871d6Vvb/bXe37K8LIlgEue1tlN/JSPZv2+ZX5Y57PyQf/cxfiSizsPq6GtnxziafFkBbER+fIH3JvXpXKDpw++DhBQmQAAmQAAmQAAm4JhBVWlrqMxVMTU2V1tYBcxrXJQ1Twmtd/1C6ge1ne5TkMRwO2UOpP0ltl9rT3eV9f0WgMrCV6qcf/7KcV5PrZ596IlCSiL0Xbv8ys3PU+zt6tZYnUCdT0zM0uyudHYGieY8ESIAESIAESIAESMAFAWosXEByStIVmoWRU3Ehx3e0BRcEH//KtyRG7QSFVXlRr/rb9DvP1rMhV3INM4Tbv6aGi7atx8vxGEiABEiABEiABEiABMIjQMEiPH4Rn3vnljf0uxuwGl92aJ/YTdIjvjMBGni99y9Al3mLBEiABEiABEiABCKSAE2hInJY2CgSIAESIAESIAESIAESGFsELK65Y6vhbC0JkAAJkAAJkAAJkAAJkEDkEKBgETljwZaQAAmQAAmQAAmQAAmQwJglQMHCb+iwKxUDCZAACZAACZAACZAACZBAaAQoWITGi6lJgARIgARIgARIgARIgAQCEKBgEQAKb5EACZAACZAACZAACZAACYRGgIJFaLyYmgRIgARIgARIgARIgARIIAABChYBoPAWCZAACZAACZAACZAACZBAaAQoWITG67pMHRcXp9/OPRKdmzBhgixevNin6EWLFklRUZHPPXMRHx8vt99+u6Snp5tbro65ubmyfPlyn7SzZs2SSZMm+dyzXgwljzX/+PEpO05bAABAAElEQVTjZd26dYKjXSguLpbS0lKfJAsXLrRtm09iXpAACZAACZAACZDAGCDAN29H+CCVlJToCeg777wjkydPFkxSce4mfOADH5Dy8nI5ceKETr5s2TJJSEiQrVu36uvk5GS5+eabJSsrS3p7e+XcuXOyf/9+uXLlio6/5557JCUlRfr7+6WlpUXOnDkjx44d03Fo19KlS/W5/59NmzZJc3Ozvg3BAvlNiI6OFuStqqoyt3yOCxYskHHjxsnKlSu9+err66Wvr0/33SRua2uTzZs360sIRmjLyZMnBfXl5eXJwYMHtXCC/qI/mZmZup979+6Vrq4uGUoeUzeOBQUFWpA5ffq0Zrhz506pra21JvGez5w50ycuNjZWpkyZ4h0Hb0KekAAJkAAJkAAJkMAYJkDBIsIHD5N+M0nHeVNTk+sWYxIfFRXlk956Dc0BJrkQVGJiYmTJkiUyY8YMOXTokM6D/JisV1dXC1b3586dqyfpp06dkrq6Onn77bd1OmgkLl++rNPiBib9CPPnz9cTfcRBYIBggok+6iwsLNQfpIPgceTIEUlLS9PCw/bt27UQgP5CQIAggBX/s2fPaiEJ91G2Cagfgs/x48cFwtKKFSsEwgjC1KlTtaABhhcvXvTyGEoeU9/EiRM1KwgpEJAuXbqk69y9e7duo0mHY05OjhZw3n33XcnOztZjib6DN1hPnz5dJwcD9JuBBEiABEiABEiABMYqAQoWETpymCBjIo/V946ODoG2Aeft7e3a9AYT+3ADtBGYbF+4cEEXhYktTJGsAXUjHh8IF1iph2DR2dmpP0jb3d2tBQ5TDu5BgMFKfUVFhVfb0NjYqLUvmIibepCuRGkwoAmB0NHT06NX89E2TL4hkCCgHYhD/xFnAib50OIgfuPGjQJhCBoKCA6o7+jRo/qD9ND4QFMBjqHmQZloH0yYIBjs2bPHq3WBcIF+YIygMYEwZLQ+06ZNk9NKqwHBYc2aNbJjxw6ZM2eOFtaMwAhBC6wYSIAESIAESIAESGAsE6BgEaGjB9MfTKITExOlpqZGT95xDu0BJtjDEc6fP68n9VjdR7mY8NsFaCJCfYEgtB8QPGCKhNV7mDm99tprXqEEk2oIFph4o3yYYuEeJvAQejApR4AwECig7Zisw5QLvMAGk3z4VqCtSUlJ3mzQDkAgGkoe+HzcdNNNWoABp/z8fP3xFq5OGhoaJCMjQzZs2KAFD9QFwQeC2KpVq3S9EM7QVphOYYwR0EZoLxhIgARIgARIgARIYCwToGARoaOHSSnMkOCAjBVwCBVY1X7//fe9E9Jwmw7TIZgVwc8Ck3qUDQFjpAIEjLKyMi1cQFhCgBBgAtqAlX6YMqH/6DO0DBA2IFig/9AAQCsBDQUCzKTgCI4JO84RoO3ZtWuX7hM0F9AwIA8m9BAKhpIHmprKykrdfggoKM8/wEwNGhpoJEw8tBkQlMAZwoQZQwhYRsNjZeBfJq9JgARIgARIgARIYKwQoGARwSOF1e/W1lYtSGDFHBNvs8o9HM3GCj/8JLC6D2diCBjwG8AEerjCvffeq7URMEFCuZjYr1+/Xps5GRMi1IV+QXiAEzYm/vv27dNH+FZgMo688NEwaY0Zkb6h/kBIMu1evXq1vg0tCAQM1IlzI4wMJY/RnEBIQLuDBZhvHT582BuN+rFzFO5hLMEXgg5Yv/XWW9rnAoIF2sdAAiRAAiRAAiRAAmOZAAWLCB09OCfDDwC+CHfddZde9cb5HXfcIa+//vqwtRoTWkya8cGEHKY7ZoLuX8lQVtbRVmgqbrnlFl0chCNMruEojhV+o2WAYAEHbOxiBSdu+CtAa4EAUyGYISFg4g4Ov/3tb/W1+QPhA8IRgjF/gqAC4QkCBUyxIKhB+2NMyYaSB9oUbC8L7Yd/gJYCZlZw1DYBGhP4ZiCAAYQjOKHjiLLefPNNrbWhYGGI8UgCJEACJEACJDBWCVCwiNCRw8QT5jOYXGOFHJNgTJLtVsv9uwKzIjPJRhxMhMyqPTQImOjCudk4gkMLAGEmWMCuRnCIDiVAcIBgYdW0mF2mUBeEGBOHtsH8C7tVYYIOIcM/QOjAZN0/YEtd+DIgYKtaE2BKhnog0ECQgcbBCBZDyYNyoU0JJHxBsIHJlAnw8YA2CPXCrAvCG/xaECDgQJMBUy/cCySomHJ4JAESIAESIAESIIGxQICCRYSOEib5WJ3HuyXwgd0+jkYIcNNsvFcBk2pMXLHKD7t+2PkjYLKPCTZ2nsJqOeqCtgIOyNYAwQT+C4iDOZZ5j4U1jd05VvdRDwQZa4DfBALKDDSphnM04vwD2hkowPfCvAzPKkzBpwMfBJggoR1GEzKUPIHqDnYPpk8vvviiFpygzQB/9AlO6ejz28oMDYIXBDYjXAUri/dJgARIgARIgARIINIJULCI4BHC6rzxJbCeu20yVtWxag57fkxkoQWBcGIC3h0BHwZoLmDmBF8EM+E3aTD5xrsgMEmGczfKCBSCmfJgtyNMmoPtJoWdoszWrNZy4dgcSCsADv5vsUY+aF7MiwDhw2ECNBQmoC1wrobJFcJQ8iAfnMUDCT0wtbIKSegzNBIQKCA8IGCXLAgWCMYMDGZagRjoRPxDAiRAAiRAAiRAAmOEwMCsa4w0+EZqptWPACvfoQaY/+DdFJhcY3LvvyoO7QTewm0m38ZEyNTz8ssvm1PbI5yQAwWYbm3ZskVrRzDBxovyTIAPCTQM0CBAYPEPmIwb3wRrnGmr9Z45h6kXhCTj9A6hbN68eboeaAwg/JidmMLJg3KsAoQpy58v2gPhAlomaE0guJl80LysXbtWC3QQUgIxMOXySAIkQAIkQAIkQAJjgUCUWv312Y4GEyGsTl+rcKPXP5zcE9ITZdqGWXJy0zG5crlTRvvari8QKCA4wCzJX6CBbwlCIH8OmHTBNMtsV4t0RusBTYRx2DbPMHwbzNav8OEwmpWh5EFdEHhQDoQm/4AX96E+CBBuAsqCoASBy/i+uMnHNCRAAiRAAiRAAiQQiQQoWPiNyrUWbPyaM+TL9KIMmbhispzdceqaHI88d2DIbWdGEiABEiABEiABEiCBsUeAgoXfmF0vgkXphxZeM00FNCPQkDCQAAmQAAmQAAmQAAncOAQoWPiN9fUiWPh1i5ckQAIkQAIkQAIkQAIkMKIEoke0dBZOAiRAAiRAAiRAAiRAAiRwQxCgYHFDDDM7SQIkQAIkQAIkQAIkQAIjS4CCxcjyZekkQAIkQAIkQAIkQAIkcEMQoGBxQwwzO0kCJEACJEACJEACJEACI0uAgsXI8mXpJEACJEACJEACJEACJHBDEOCbt2+IYWYnrxWBcbn5kptfoKvHm7mPlx28Vk0Zc/UmJiVLydSZ3nZXV1VK6+Vm7zVPSIAESIAESIAEIosABYvIGo+ArVlRGC1ZiVHyakVvwHjejFwCC5euklW33y0d7W3SdeUKBYsQhiprXK5s/PDHJSo6Wr3RPEmefeoJOXpoXwglMKkbArHxMdLX268+fQGTI76/r196ewLHB8w0hm6G2/+YuGjpBz/FKFBwKj9QnuG8FxMbrce3vz9w+8Kta6T758Q33PYzPwmQwPASoGAxvDxHpLT7psdKfkqUbD7TK509g6t4aGas3FocLRlK+ED4zCtXpMuFDIIJ26Rld0vR4ttFzd7k3R/+1eDCw7gz0uWH0TR55LEv+KyGP/n9b0hdTVU4RQbN29nRLt/+6uNB45fdP0suVjVL5f5zQdO4iZi1qlhiYqPkyDtnAiZ3ig+YaRRuBuv/ueozmlvBxBL51Oe/NAotGVoVwdrvtrSiWTlSsnC87P5duVxp7/Zmi1Jf54lz8qRkQb76fops+cUhb5z1JDomSpbcO0MuX+qQY9sGP8OT5uXLhOnZkpAcp7Nt/Z9DeqKZnJEgs2+ZJKlZiYJJZ+O5Vp2/+4rnxyMpPUHmrPbEI2NDbYuUbT0jvd0eAWPhhqmSkZdibYqc2FkjtScu6XvLH5glNeUXpfroRZ80/hfB+m/SBWu/iTdH6/OdkpEoSzbOMFE+x+Hqf1Ia+BVLWnaSFioaz7Uofmelp9vDz4mvaZRT/026YMdg44/6S+bny7jCdC0Unj/TJJX7zumxD1aWuT8c/ExZQz068bUr1037Tf5Az1dSaoLt8+MUD0HdbXA7/tbn223Z1nT++Z1+X5y+39ay7c7D/X20K5txkUmAgkVkjotPq/5pW5fEq8lDIKFifGqUbJwRI78q65GKRs+P2dX/az5lBLqYe99jkppbJA2ny2Tc5LmBkoR1b6TLD6dxW15/SfZs2yy54wtlzYaNEoVf2WsUlEw3LMGpB07xw9KIIRQyXP0fQtXDkiWc9sclxMokNfmrOnzeR6hAw+beNlnSc5PlghI68yZlBm3rxNI8iU+KU5PGykFpklLjtWByck+ttFxs1/Fm0oNJca/6sdj36gklkMbIrJUTZcqiCVK+o1qnw4SrX2kxEI9V6Vkri2X81GypOeYRFE7sqlH5PA/vxDm5kjUhTS5fbPO2wfOdsn/q7PqPguza763o6kmgmsq2VsmVti6dolAJcFnjU7X2BTfC7f+82ydLV0e3HHi9QvOZtqRAZt5cJEe2nNH1OZWPRE791wU5/Ak2/lMXF0i0Gp+Db1RKXGKszF41UVobOqWuosGhxIHocPgNlDK0Mye+bkq1az/yOz1fTvmd4p3aGMr4B3q+ncq3xvvnd/p9cfp+W8u2Ow/n99GuXMZFLgEKFpE7NvLo/FhZlO/5x93YKfK1rZ5/kGgy/p9nJkRJcXoUFjPlREO/NHV6BAu3ayXdHS2y/9fflczCaQEFi5S09EF04CfQ0daq7zvFO5U/qHC/G2nxUZrB7Jxo6VFmBrtq++SXR3rEWBw8Mi9W1P9LzWF6drTUtPTLk/u7pbbVmcDpk+W6tjl+dVov4R9xz0MflUK1Yt7bqwS38jJ56dmnpLvLMw5YSb/v4UclOydf6mvPSntbizYn+dXPfmgtxvG8T5mY9AYwQ4mNi5HJi8brFUeYA1yqvizl26v16jIKTVSTRkxeUjITpam+ddBKpFM8JkIoF5PSTLXy3NbUKUfVimtHyxXdZkwaZ6wo0hNGtPH86UalVanz9ic+KVYmL5wg2YVpSjDzrGif3F0rPVfVZU7xpqBg/TfxQz06PZ9O8W7rDdZ+p/FD+ZOVpgIaguqjFwZVd0VNWne/dFxpBZKDChZJafFSrASLUwfq9CTXFBIVHSXx6suRorQRCJcvKFO8Dl91Z4Ia96rKC9KiNB0IzSpN/FWtBvLnTcpQz0OVN76+skHyJ2d5BQs8LwhYcc2akCrvv6l8YPBDZQlo36K7pkmqekYbrq7oW02qgvXfTfvtnu8utQoDTUmz+l7gHM8nhLT6U03q++NpYDj9hzYAfTu+46w0n/cIU8lKwwMNAQQqaIDsyjeIgvUf8W6en2DjHx0TrUwve6T24EVpafCMLzRSOcXpXsEiLiFGpi/H9ztVRDG5eLZZa5xg0hUuP7Tf6ffDrn43fO3yO7Xf6flyyu8U76b/SGM3/nbPt5vynfI7/b44fb/t+KN9JgT7fUR8nlrYg/UAfOd+/N2vmSw8jnECFCwieADfP98nF9r7ZYaaNE/K8F1vWJAXLX+51GPagC585ZaB80+7NIU69oenPb1XgkWg8PiXvyUxMTE+URfqauWJ7/yDvucU71S+T8EBLm4viZY5Sqh443SvpKjurSuJkUOKyUH1QUiJixL4n7yp4vfW9cjG6TFy19QY+elB3wlUgKJd3Vp2yzotVBzev0tNEpKldOFSOXXiqOzf9a7Ov3TVWsnMGqc1H6npGTJ30TI5XeERWFxVcDVRV2ev9KhJgH8oWagcv4sz5PTBerXiGKNXtrF6DQEDoXDmOD25OX2wTpm5xOsJ3sXqAedmp3isQudP8UwUYYqFlfOi2TmClSqEqUrwyMxP1ZNW/BPBCnZnqxLcrpq6FM3OVUJPmpxS7YMNPv5JYuUak1wEp3idSP0J1n8TP9Sj0/PpFO+23mDtdxq/1KwkmTAtW6qPXdDj0FTXqoS6gcWD41c1B3btmLa0UAuC0CLAJKZffTUwqc1W2oO5a0u8WRffPd17bkyB6iob9Xi1NLRLsjLryZmYIcfeO6vTYXKMyVe3mpRjggv/C/QTpnbWgOcDzwlWwf2FCqTLn5yptDEXtJlV8Vz1vBSlKwG1SRdh13837bd7vrvV96lib623qZnj0yQxJd47qUZEOP03Wp9YpXEyIVZ9R/oUe+PLYFc+8tj1H/FOzw/SBBt/jFf51bFEOghWKep5u1DlYY97E6aP0xqcs0cuaGGoeG6eHieMT7j8UL7T74dd/W742uV3ar/T8+WU3yneTf+dxt/u+XZTvlN+N78vdt9vO/5onwnBfh8Rn5iUJMkpqRIbGyvxCYlKGPZdmDBl8Di2CAz8Ko6tdt8Qrd1X55lA908VJVj4TvCPKw3Fv7zXLYVpUYKV+x/s6RYzJ3FrCuUE8eVnn5boaI/GxKSFE7IJTvEm3VCPywti5L3qXvnNMc+ke6LSziwrUKr9q4IFyr3U0S9PH/LEpysNztpJvu0dat3IN332PDlx9JC8/Nwzupicv/6qzJy70CtYFE+eLifLj8iml36t44tK1EANIRxUphSBQkNNi5oINSrzBc+KI+zZ80oyvYIFbKcRb2zYswrUyqMlOMUjaacyE4GZDAI0DAUzBgQLmI1gwnjuqiCRkZsimWp10wgWWBHDZNLEY8UTExgTnOJNumD9N/FDPTo9n07xbusN1n6n8ZtYmqt9JzCmWN2F2cqhzaelUfkyuAkQOrML0uTApgo9mZ1/+xStdYLWCNqH/X84KbA1h9bp8Nun9WQR5ZpJG+ztMblZeIfnuT175LxcUHb4/mHxPdP1M3j5qimVNR6TaPhe5CpTLQgNe5SGBau5Jlw8e1mqVLkI0LxYBQu7/rtpv5vn27RjwrQsvXJvVmFxP5z+d7Z26e/OJDUZ71UaOggY46dky+XzHnMzN+Xb9R/5nZ4fu/FHfmuAkJ+YGqfGd2DhYbxaVMDvB8zwELB4gd8YI/hZ8w+Fn9Pvh139bvja5be2Hef+7XfzfFnL8M9vjQtUPu459d9p/J2eb6fynfL79yHQtd332y3/YL+PqK/q1El56kfflo4ObG5CoSLQGIzFexQsxuKoqTa3dPXLsUtqJ5J+z0T6VFO/XFST7OEMB/e8Z1ucU7xtZheRcFh/tWKgT2ea+2VKpmXmqsqovjwQv7PW4zSpFlq95lIuqgmaJC0jS5k4bfHGX6g/J/kTirzXKalpclHdM6HhQr1aNfYVAE3cUI7454fJQ8GMcXrCjhXX/r6BFe0Edd3a6BE6UH6bsp+OtqwoO8XrPBbTlfNXJx0QDtR8UZtIQZiA7T1CglIbGcddXEPLAVOsJR+YoSeymLRg1d0Ep3iTbqSOTs+nU3y47bIbPwgSGNu6kw1yXDk8Y9zmr5siU5TWZ68LwQIaBawI159q9JrieNrr+X7AHO3yBTXJvfr1gHBqdQxHWkw2YR50cneNGtt4pQHLUSZ1bVpQsPYd49h++Yr2I7DexznMgA69dUprNZZ/cJYytcmQ2uMe523EW7UYsO9Pz0nGbS1I2fXfTfvdPN+oC9q2cUUZSpAY0GDgfrj9L1O+FHj+56+foh22odmx9t2ufDfjb/f8OI0/+mcCmJcsGC9n3q/3LlIgDvygrTIBAmmgMFR+MLG0+/1wqt+Jr1N+05dA7XfzfNnlN3E4Biof9+3672b8nZ5vu/JRv1N+pHEKdt9vt/yd6jhTedwpCePHGAEKFmNswEazuQ8/+jk1UfbVADQ3Nsgrz/9CN8MpfjjaOiA2OJdWq3wsXigfWC11zuGcwq5+mD3ExcV7C4mNi1O7w3i0TN6bYZwsWD9VT+YwsYPdcyA/DDNxDFqNXQf8MnWoyeOZQ57VSxPV3dWjV2ZxDe0GTKFMwMom7PbHT83SpjcFyrTi+M5qpcHwOIc6xZtyRuro9Hw6xYfbLrvxgz0+TI3OKY0QVgV7u/vlvLL/n3rTBG2WYsxpgrUBebHLEyaYsOtHwC46bU0e/5hg+cx95J80L0/5CFR7V6hRFsxhoIGwBrNbGSbKwQJ2QmpUQiXs9a2Ta9/0Aw9juP33ljtQpPeW/0me8gtBgH+FCcPRf/im7Pptuf6OzlC+ConK5+JSjcdM0al8N/23e37cjj8WI0pvK1ECYKs2STP99x5HmJ/d74dug039dnzDbb83v4uTQM+PNZtdfLD+uxl/XYcNH8QHK9/bPof83nQOJ0G/38NUvkP1jB5jBChYjLEBG83mJij7x+ho3xX4uPgBUyin+HDb2nSlX/KSPSuwKCtXnV8eWLAPt3id3/wuYlLlHzraW7UPhbmfnpkl7eqeCefP1UjxlOlaSwHtxYTCYqk5e9pEh3WEQ3bauCRt5mKcQ1MyE3xM07DqBnMjE6BRgO2vCU7xJl2wI3YMalamHcaxGDb8/gFO4/gAX+maEm2qZQQLpHWK9y9vOK+dnk+n+HDa4jR+Zpzg4GtCfHKsmij0em30zf3Ax35pb+7UW8Viu1iEOOUz4zbApwI+NlYtBnZPKpiRrYvoVwIy/CuS07ExgOc7D4dasxUtVmmXfGCmHNt+1mu6hR1uuizb5aKgRPVMmoBJLp5JhPD7L7osu+ff1IudrOCXZOrG/XD7b8rGEQJdrnJ0h+bGBKfynfrv9PxAFeU0/tiYAX42EP6xU5W/sNrV2a19tEyb4e+D3aOMaZS5PxR+yOv0++G2/kB8Ub7b/IHaj/xug1P+YPF2/Xcaf7TN6ffbrnw3+e367+b77Za/XT2Ii42Nk56egQUrp/SMj3wCFCwieIzgtI0JW46aUCvLCZk5zqM9wO5HrcoUKtyQPmGK2hUoTpKy8nRRWcWetxw311ZKn/qiP/3Ed2yrcIp3Kt+2cBW5R+0CtbIoWk41R0uyMhWBI/dPDw7vD1D1mQplxtAty1evl/IjB3STqk9XyOVmtQPS8TKZUbpAv98Cb4EumDhZNr/6grfZJ48dktvv/qB8/kvflATleNbb65k0eROEcQIbY5gdwYYeZiwZ+SnauRZ21yZgdRTO15j4YfUa9tHwczDBKd6kC3aETT20EdhZB3b52P7xUu1lvXMM8sy9rURrtE7uUaY8SrOFNpgdpdzEB6t3uO47PZ9O8eG0w2n8Otu6NatipTXALklw/IWNvtWUDP4PEOYwuUcwZkTY5QfjgR2jrGHBHVOsl7bnMG3CxAXvyMDmADDjKVCmUC0XPaZ1SokieO9BgdogoE0JMBBCYLp0TpluIUDAgHZuktqRCj4GmAhjZ7ETyqzKGnKV/8hFNamPUc9HlnqW4deA4Kb/1nICnbt5viGcQ/A65feOmHD7b23PlMXjtUmYVdPjVL5T/52eHzfjDxNGrIyXvVulfW3QZggXZhcwaBQxKcb3HAsrUxZPGCRUDJUf6nL6/XBTP8oJxBf33eQP1n7kdxOc8tvF2/XfafzRNqfn2658N/ntfl/cfL/d8HdinDehUD7+2N9KW2uL/OhbX3FKzvgxQoCCRQQP1BdvjhO16OQNf7/Ss/r3b7u7ZX+dr2AxFAOcOfd8UuKSBhx+8d4JhN1Pf0M6Lw/YSXsbEOJJuOVjN6hM9dK/zy6KUy/865ctVdj9aSg9Dd7wluYm2bHldcEbsuctXq4TPvfMT6Ts4B7Z9e5bkqw0ERvuf1gLH+WH98vBvdu9hb375itSU3VKZs9bLLVKU4H8eCngcARMNrHbExz8YJ4Cp1MIFWrPGW/x2AkIK6OL7pyqVi+vqB1dlNAxEK23BbWL9xYU5AS7Q825dZLAeRftwaT3lGW72dPKZhsmIEvVyjXaBe2GdbXTKT5ItdfFbTfjhxVuvKBu3trJesKH7UBhSmYCBDk41JuAbVsRtv+mbNDWsSZNsCMEBWvABBMO3TOVYzdehKUnnEqogAbChBq1XSu0EPNVO2B6c0k9f7DTN6FMvYhxlvIxQLuwpWTtyUteMziTBs/M7FXF2jEYjtxW52Gn/psycPRvP+45Pf9Ik6+ENWhlwNYahqP/KA/CEnbOgQO9Nbgp367/bp4fa32BztOyk/W4larvsAnQQr33XJm+hMmaNpVSmkYAvljdMmj8wuHn9Pvhpv5gfNEBN/mDtV8DsPwJ9Hwh2im/XbxT/+3GH3U7Pd9O5Tvld/p9cfp+u+GPftgFaCvi4xOkL7mXu0LZgRpjcVGlpaU+/3JSU1OltdX3R3g0+3Sj1z+arMdKXWqxVL3HYngcsofS5yS1HV5Pd5f3/RWBysBWeZ9+/Mtyvq5Gnn3qCW+Sdfc8KDffdqdcqK/Vu1789w/+1Rvn9gSrxVYzDv984cb7l+d/DZOKfiXYwc8jUED92G4Wk6FAwSk+UB7cyy8okgc+8qdqtTtWcvLGa65HD+0Lljxi7zuNj+ar+Jndmka7I07jA0dTTJSDtQ/5oV1DmmABGhHzRmr/NOH234mvf33+1+H23788/2vH8vH9shn/cPvn3x7/a2PiGGx8/dP7X7vqn83vR7j1h5vfvz/Dfe30++n0/DuNv1P5Tvmd+ov8dt/vcPljq3a8G+pKp0db6tQexkc+gYHlsMhvK1s4ygQyM1PkwQeXyPPP75GmpjYJ9Xq4mnvVLHu4igu5HPNCwEAZH/+K510fWHXB3qGbfvdrn2TY8cJoMXp7BvwffBI5XNgJFcgabrxD9fqfil2akaq/o61NvZTwiK76eNlBuXje834Mu7ZEYpwTH+tOW9ei/Y7tCyIwmrY65Ue6YEIF4sLtv5v6UU+w4JQ/mMAcrDz/+47lK6HMLjjlt8vrJm6oAoUp26l9TuMbbv3h5jf9GKmjU/+d4sPl65Tfqd9O+cPlj5fjMVxfBKix8BvPa60x8WvONbssKcmV22+fI2+9VTak409/+s41a/toVnzzmg3aPhmrLWVqNd1OCBnNdrEuEiABEiABEiABEhhtAhQs/IhTsPAA+eQn1wxZUwHNBjQcDCRAAiRAAiRAAiRAAjcOAQoWfmNNwcIPCC9JgARIgARIgARIgARIwAWB4dnCxkVFTEICJEACJEACJEACJEACJHD9EqBgEWFjC40JAwmQAAmQAAmQAAmQAAmMNQIULMbaiLG9JEACJEACJEACJEACJBCBBChYROCgsEkkQAIkQAIkQAIkQAIkMNYIULAYayPG9pIACZAACZAACZAACZBABBLgC/IicFDYJBIwBMbl5ktufoG+7OvrE7wojsFDIDEpWUqmzvTiqK6qFL5syYuDJyRAAiRAAiQw6gQoWIw6clboT2DFrXdIWnqmvP7ys/5RN/z1wqWrZNXtd0tHe5t0XbkSkYJFbnGGxCfHSc2xi6M6XlnjcmXjhz+u32yemJgkzz71hBxVLylkIAESIAESIAESuDYEKFhcG+5jpta5i5bJouWr5Zkff3fE2rx01VpJz8yW7Vs2jZkV50ce+4LPavmT3/+G1NVUjQijzo52+fZXHx9UdmJqvCx/YJYc2nxK0rKTpHBWjrz3bJlPuoy8FCmcOU7Kto5M21DZpPn5kpSWIHUnG6S3p8+n/nAunPp3rvqM5lIwsUQ+9fkvhVMV85IACZAACZAACQwDAQoWwwDxei4iQ034J02ZPqJdfOYn35P4hIQxI1QAxpbXX5I92zZL7vhCWbNho0RFRY0oo0CF9/f169v96oCPeC59kiYoTULOxAyfe8N9cWBThURHRw2rUIE2uunfcPeF5ZEACZAACZAACQydAAWLobO7rnOuuHW93LLuXomNjVWTxhj5wte/r/t7ublRnvzeP+pz2P/f89BHpVCtGPf29khFeZm89OxT0t3VpeP/7IvfkNqzp2VCUbFkjcvT58///ElBGQh/9MhnZdJVG/m21hZ54ttf1ffNH5R/74c+psvvVzPnM5XH5YVf/pdgBR8hv6BIbr/7QZlYMlVP7KvPVMorz/9CGi9dMEXYHlPS0gfFw4+ho6110H3/G6dPlutbc/wjLNdOfLDSft/Dj0p2Tr7U156V9rYW6evtk1/97IeWUoKf9nZ7tAO93b3Soz8D2oIcZZ40bUmBxMRGK1OhKFnx4GxdUEdLlxx8vUKfxyXEyPRlhZI1IU3Xe/50k1Tuq1NCikdCWXz3NGmqa5OM/BRJzUyUxrpWOfpulVeAmLa0UAktHoZX2rtl/2snfRqry19epMpX72ZRRV482ywndtZI31WBKD4pViYvnCDZhWlq/EQaalvk5O5a6enq1eXY9c+nIl6QAAmQAAmQAAlEBAEKFhExDJHXiPpzNfL+3u3acXjqzFJ9jla2Wybdy25Zpyf9h/fvkgTlSFu6cKmcOnFU9u96V3coKTlFShcskX07twom/QuXrJT5S26Wd998RcdXqrTNTQ2CCXZO7nh9z/pn+er1UlA0SQ7u2a7t6OFvsHjFanlv8x90spW33SkT/3/23gM8quta9F/qvTfUOwJEERhMJ5hmqu0ANnHBLY7jktzYca6/5CXXcZJ383Lj9v9e8je2c1NsbOeLwdjXBoMxRhjTexVCQgUhCTVUUO9vrT3s0ZnRzDlHGpUZaW2+0Tlnt7P2b+9h9jp7rX0SU+D4gb04We0Ekmf+klXw2b/+oazG6vlzv/ojuLi4mKRXlpXCpld/bRLX3wstPmQCFhgUIlY+fP0DgMzOCvMMCouee5IyQU/1O9u6xGRcTsipbFNdCxRfqgLfYE+ISAwS5xTf3tJBBxEiU0OEUlGMvhFu7i7ClIom9zXXDYqVu6cbxoXA1fMVGFcPcRPDxepHeYFBMawuvQktDW1A5lZ+IV6yWuNR1D/GF65drBSKH5WnukmBoRAzPgxCUKkoOFsu2pGYMQZiJ4RBwZkyka7WPpGB/zABJsAEmAATYAJ2RYAVC7vqDvsRhhQE+sy9Yzkkpo6D3Z991Eu41PGTIPfSedi+dbNIC/3pS5A2McOoWFAkTZR3fvKhSI+MjoPElHFGxeLk4W9E/NI191pULMamT0Fn5XNiFYIyeqHyEhOfLMrQH7+AIKiuqoDMXZ+KuPOnjvbJJGn7lvdwNcZ0x2Vykh6ooMUnLjEVrly+CLs/N7CNwZWXvob9H54XRRpRkagoMEzYKaKprhU/lRCeEAjh8YGoWPRexaG0srwauHquXNThG+QFYZhXKhYUWVlUB0UXKkQ6KRC0umBULErqoRo/ZIdlSbEYkxQk6pfl3TxdhBIiFQvyoWioaYHruTdE/bSiYW5RZq19ogD/YQJMgAkwASbABOyKACsWdtUdjiUMTezLS/cbha4svw4RkTHGazqpLC81Xt+oLIdw9EnQG3x8/aHierEx+9bNbxvP6SQv+wIsXrUOfvyL30M55rt84QyubhwyyaN20Ze8avVYS9Pi4+PrB1XITIZq5ONstoIi0wbjSA7XRRcNSgPVX1/dDP6h3ia3aqhuMV6TEuAfYppuTLRw4uHjjnUazNYomcyclKEKlZbx8+Jg+uqxUFfZCJVX69D0StsMTVkHnzMBJsAEmAATYAL2Q4AVC/vpC4eUxIK/sNV2SNt9qxksJKjVfzBzFzTU10E6mhDFxCfBuIlT0V8h3LiCYaE6k6gNjz6LE3nTFYu6mmrjColJ5n5eqMnfhU/63dzcjTW7urmhSVePn4QxYTBPTAQ0ueh911u+F70TVGJUqqSVi7bmDhiTHATB6OcRhaZZOUeLcQWjWqVCTmICTIAJMAEmwATslQArFvbaM3Yll+Udj5qbGoSPgBTVPzAImjBOGfxxVUMGeldFa2uzvNQ8klkS+SDIsPDOu8Hbx9dk4k/+F/RxdXWDjU+9AGR+JE2jZDlrRw8vL+GYrkx3c++bKZScN1vaFUqLTwX6scThjlu0SkGrF2QqVnKtUCnOoJ63NbfjNrE9io2nrwe0tbSb3NPT18147YkrEO1tPT4axgQrJ1SXsv7IlGBw83Q1mlZRsdryBvEhE6j07yQI0y1WLKwA5WgmwASYABNgAnZOgBULO++g4RavAp2ZyQ9hwdLVUFVRJnZMKriSLcTKz8kC8oOg9zfQW5CjYhMhc+cnJiInoeM3OV3TxD8qLgGO7t9jTB8/+TbhE0HKB02uJ6CjNwV6PwHt7JSH/gdp6RliNyknlIF2qpKO4ZTvsR/9HHc9coWvd3yMzsfuYnJOzuB6w3ubXtWb1Wq+4qt5uCNTO5Cj+eWLZ0S+4sI8sfOVFp8r2edxV6vvwk9++Qfw8PDEnbUMuyFZvVk/EsjXgnaFolUBOicH76abraKmyqu1EJEUDPU3msEVnbeDcfem7MPXTO5C/hlV125i/zgJR+/80z2mW35oNkUqpwf6StB2s9KMiuqn+9CKxJjkYLhZ1ST6OWlapIlSMXFhglgxunKiRBxpa9zmeoNsJkLwBRNgAkyACTABJuAQBFixcIhuGj4hcy+dg2x8m/EcdOJ2d/fA3Z3yoOBPfxACHcPdmLzxSfuyuzeIyfXlC6fhLO4kpQwluBvU0jXrwdPTG4oKrgA5WMuw9sEncFemniG4fuMPRdIOdAY/iYrF8YN78Y3cAbBi7QNi16CiglwTxeRg5k5Yumo9PPTk88KBuLysBI58s1tWPyTH+rpaOLL/K6E8TZo2U9yTfEGyzp4ALT60O1ZJUQGMnzRNKE9UnhSogQwNNc1QmnMDkm+LEsrDjZKbcCGzUNyiBOPdvdxgwvx4sYVsKZog3Si+aXL7atwNavzcWLHScAMVDHLmliFjabJQOOT11OUp4vT83gKxdSzdl1Y5aCWCHLyriutNzJwK0Wl8LG5HO2N1Gu5G2w11FU0mioesl49MgAkwASbABJiAYxBwSk9Pl9YcQmJfX19oaDA1ZxnKpvD9h5d/f/raC82TOtrbjO+vkHW88PLrqEgcgT24okAv2tP7fglZXh5JeSH/DGvvlwgMDsX3MHQa348hy9nL0RofpXzuuGLxg+d+BRWoHG15d5MxafHKtTAbt9UlJ/i21hb4+5//y5g2UCe0GtGNrh3mPjCzvjseaCta2lGKVjSU29n25d5UP4WuTpP/aoxVUN1i29w+vrWb3mNyz/3fF8ppaPgYwe0SKsEcmAATYAJMgAkwgeEh0PO4eHjuz3cdAQSsTfhl02jS31+lgupowpfnqYXa6iq15GFPU+Pz3H8Y3qVBq0GAhkXm2/rSSwHlKkZnh37/hr402tqEX1lHf5UKqkOr/v7W3dzYKMzl6B45WWeFqR6dc2ACTIAJMAEmwASGhwCvWJhxH+0rJmY4bLqkF8DRk3b5lmqbKhuhhWd/Z5nwP2htaYYsfNqupoQMNYKQGH9oRn8J6ZMx1Pfn+zEBJsAEmAATYAKORYAVC7P+YsXCDAhfMgEmwASYABNgAkyACTABHQQG1lNUxw05CxNgAkyACTABJsAEmAATYAIjjwArFiOvT7lFTIAJMAEmwASYABNgAkxgyAmwYjHkyPmGTIAJMAEmwASYABNgAkxg5BFgxWLk9Sm3iAkwASbABJgAE2ACTIAJDDkBViyGHDnfkAkwASbABJgAE2ACTIAJjDwCrFiMvD7lFjEBJsAEmAATYAJMgAkwgSEnwC/IG3LkfEMm4DgEQsIiICwiSgjc1dUlXkSnV3pPL29ISE4zZi8uyoeGm3XGaz5hAkyACTABJsAERhYBVixGVn86ZGtmLVgKfv6B8NX2LYMif1BIGLS3t43YSe1g8suYMRfmLloBzU2N0NbaalGxcPf2x7drt0NHa7NJ/xH3Nfc9It4c7unpBVve3QSX8CWAHJgAE2ACTIAJMIGRSYAVi5HZrwPWqolTb4epM+fD5rdeG7A6zSuiN3T7BwbD4f27B3TyH49Py+/CiS1NcCmUFBXA1vfegrraanMRBu3akflJKC3NTfDKS8/JS+PRNywG0pZtBO+gCBFXV3IFLu36O7Q3N4rr68VXRbmo2AR44ie/NJbjEybABJgAE2ACTGBkEmDFYmT264C1KgAn/PFJqQNWn6WKNr/9Orh7eAyoUkH3mYdP2js7O+Cjf7wJXt4+sGT1epgxbxHs2b7VkhiDEufI/LSAxM1YBt3I99wnfwY3Tx9IWXgvRKbPhaITu7WKcjoTYAJMgAkwASYwAgmwYjECO3UgmjRrwRKYt3gVuLq6grOzC/zsN2+Iam/W1cA7r/9WnJP9/cp1D0E0PpGmCXze5Sz4fMu70N7WJtKfefF3UHqtECJj4nDVIFycb3v/HaA6KNz78FNAqwoUGhvqYdMrL4lz+YfqX7V+o6i/u7sbrubnwCcf/hXoCTqFiKgYWLRiLcQmJIOTkxMUX82HL7Z9ADU3KsEDTW8SU8fB1zu2QfaF0yJ/fPJYSJswRbdi4ePnL8op/5CfQXNjgzLK4rmj87PYKEWks6sbBCekw5V9W4BWKigExKRCaGoGKxYKTnzKBJgAE2ACTGA0EWDFYjT1dh/aWn69BM6dPCwcd5PT0sU5FW9STKpvn7dYTPovnD4GHuiom54xAwpyL8HpYwfEnWiVIH3KdDh19Fsx6c+YPgcmT58NB77+QqTnY14yS4pCxSQ0bIyIU/6ZOX8JRMXEw9kTh4WdPtn7T5s1Hw5lfimyzVl4J8QmpsDxA3uhq6sTSJ75S1bBZ//6B7i6uQmFiBSWwKAQaGlpRoWgUcQr76F2/tyv/gguLi4mWSrLSmHTq782ibN04ej8LLVJGUfKphN+2pobwM3LFzrRh6UDz0nh4MAEmAATYAJMgAmMTgKsWIzOftdsNSkI9Jl7x3Lx5H/3Zx/1KpM6fhLkXjoP27duFmmhP30J0iZmGBULiizMuww7P/lQpEdGx0FiyjijYnHy8Dcifumaey0qFmPTp6Cz8DmxCkEZvVB5iYlPFmXoj19AEFRXVUDmrk9F3PlTR8XKhTHDrZPHfvxzuFFRBuWlxeZJqtfbt7yHyonpjszkxKwnjCR+Wu2det8L0HijFBoqrmll5XQmwASYABNgAkxgBBNgxWIEd+5gN40m9uWl+423qSy/DhGRMcZrOqksLzVe36gsh/Ax0cZrrRMfX3+ouN6jDGzd/LZJkbzsC7B41Tr48S9+D+WY7/KFM7i6ccgkD10U5GajeVQFeHp690pTi7BUl1r+vqY5Cj+tdlUXXoTm2kpw9fDSysrpTIAJMAEmwASYwAgmwIrFCO7coWhadx9uQn4SfQ1qJQ5m7oKG+jpIx52rYuKTYNzEqRAcGm5cwZD3+vSffxWnd961QUbpOm549FlwdjFdsairqTauoOiqRCOTWvvMiw4XP3M5zK+vfGNwho+/fbl5El8zASbABJgAE2ACo4gAKxajqLP731Qni0WbmxqE/4JM9A8MgiaMUwZ/XNWQgd5V0Wr2rgOZZulIZkfkHyHDwjvvBm8fX5OJPflf0McVbfs3PvUCkHkWmUa1NjcLJ+/Q8B7fDdp2trWlRVanefTw8hJ+GsqMbu76TKGUZQAcj5+p/L2vOjvaoL2lEbeaDYfqAkO6V2A4dLbq59u7Vo5hAkyACTABJsAEHJkAKxaO3HtDIHsFOiuTn8GCpauhCv0UaEekgivZ4s75OVlAfhBlJUVAb1mOik2EzJ2fmEiVhI7f5HRNE/+ouAQ4un+PMX385NuETwQpH87oJD0BHb0p0PsPaGenvMsXIS09Q+wm5YQy0E5L0jGc8j32o5+DC+5a9fWOj8HN3R18fP2M76jo6GgHcg6n90hUlJUIhSQhJQ0uXzxDRXWF9za9qiufWiZH5afWJkrrxt2xqgsuwJgJs9C/4rrYbjY4YQJU5JzUKsrpTIAJMAEmwASYwAglwIrFCO3YgWpW7qVzkI1vS56DTtzu7h64u1MeFPzpD6L6Y7gbkzdO5pfdvQE62tvRx+E0nMWdpJShBLeAXbpmvfBvKCq4AuRgLcPaB5/AXZd6huD6jT8USTvQGfwkKhbHD+7FN3IHwIq1D+BEthuKCnJNFJODmTth6ar18NCTz+NMtxvKUYE48k3POxSOfbsHFaI1cNeGx4RyRLJ/NYTvsKDGODI/2U/WjiVnvkG/Cm+YsOJxsUNUbXEOFB7ebi07xzMBJsAEmAATYAIjnIBTenq6iZm3r68vNDSYmrMMJQO+//Dy709fe6F5UgduNyrfXyHreOHl11GROAJ7cEWBXhRHqxD9CaS8kH+BtfdHBAaHQldnp/H9GOb38EXlhN4/0YRbz9pjsGd+i1euhdm4rS854behmdPf//xfvRCS03Z3dxd0trWapNF7Ru65//tCeSSTtC3vboJLqKRyYAJMgAkwASbABEYmgZ7HxSOzfdyqISBgbcIvb02T/v4qFVSHlkJQW10lb2Xx2HCzzmK8vUTaMz96KSGZoVHo7OiwiKzDit8MvTeEzNko5GSdFaZ0FivgSCbABJgAE2ACTGBEEGDFYkR0o302Yv9Xn5tsN2ufUtqvVPbA7wpu6Uuf/gR6w/qeITY964+cXIYJMAEmwASYABMYGAKsWAwMR67FAoHjBzMtxHKUXgLMTy8pzscEmAATYAJMgAnYAwHTTfrtQSKWgQkwASbABJgAE2ACTIAJMAGHI8CKhcN1GQvMBJgAE2ACTIAJMAEmwATsjwArFvbXJywRE2ACTIAJMAEmwASYABNwOAKsWDhcl7HATIAJMAEmwASYABNgAkzA/giwYmF/fcISMQEmwASYABNgAkyACTABhyPAioXDdRkLzASYABNgAkyACTABJsAE7I8AKxb21ycsERNgAkyACTABJsAEmAATcDgCrFg4XJexwEyACTABJsAEmAATYAJMwP4IsGJhf33CEjEBJsAEmAATYAJMgAkwAYcjwIqFw3UZC8wEmAATYAJMgAkwASbABOyPACsW9tcnLBETYAJMgAkwASbABJgAE3A4AqxYOFyXscBMgAkwASbABJgAE2ACTMD+CLBiYX99whIxASbABJgAE2ACTIAJMAGHI8CKhcN1GQvMBJgAE2ACTIAJMAEmwATsjwArFvbXJywRE2ACTIAJMAEmwASYABNwOAKsWDhcl7HATIAJMAEmwASYABNgAkzA/giwYmF/fcISMQEmwASYABNgAkyACTABhyPAioXDdRkLzASYABNgAkyACTABJsAE7I8AKxb21ycsERNgAkyACTABJsAEmAATcDgCrFg4XJexwEyACTABJsAEmAATYAJMwP4IsGJhf33CEjEBJsAEmAATYAJMgAkwAYcjwIqFw3UZC8wEmAATYAJMgAkwASbABOyPACsW9tcnLBETYAJMgAkwASbABJgAE3A4AqxYOFyXscBMgAkwASbABJgAE2ACTMD+CLBiYX99whIxASbABJgAE2ACTIAJMAGHI8CKhcN1GQvMBJgAE2ACTIAJMAEmwATsjwArFvbXJywRE2ACTIAJMAEmwASYABNwOAKsWDhcl7HATIAJMAEmwASYABNgAkzA/giwYmF/fcISMQEmwASYABNgAkyACTABhyPAioXDddnQCzwr2hlWJLsM/Y0H6I6zFiyFpavvHaDaelcTFBIGvv4BvRM4RhBwcXUGJyenftOwtXy/bzxABW2V39XdBZxdrP9X7eLmDM7O/eer1Uxb6x+I9lMd/Q1a/Ppb70CVG275hrt/B4oj19M/Alrfz+Een/1r1dCV0uI3dJLYz51c7UcUlsReCdyV6goRPk6QebUTWjp6S7kuzRUWxDlDgKdhcvPkF63Q1tk7n6WYiVNvh6kz58Pmt16zlDwgcTPm3gH+gcFweP9uaLhZNyB1UiXxyWlw132PACkWFEqKCmDre29BXW21uB7uP56+7jDznnFwPrMA/IK9IHpcKBzakmVVrHFz48DF1QkufnPVYh5r6fGTIiAyNRg8vN1EuW//eR66OrvBO8ADEiZHQEi0P3R2dEHF1VrIP3VdpFHGSYsSITjKz+ReV06UQkl2lYjTKm9SUMeFufyk68ROCIeEKREAeL7/g/MmtRC7kstVUHzJII9Joo4LW+Wn8uPnxYNvkCd0d3dDzfUGyD5YBO2thi+Xlx+lx4m+7eqi9HpMvwYd7YZ0vfLH4LhIyBgDxz+7DK1N7caWadVvzGjlRKv9WvJ5+XvAhPmG9tMtqkvrIevbq9DZ3mVyR2vya/GTlVgbvzLd2jFjWTIEhPuYJOceLYHS3BvgE+AJ09eMNUmTF8rvh1r/yvzyaD5+ZXx/j1r9a+v3U6t/1eTWw0+Wt9Z/Wt9vWd7a+FHrX1lWz9HZxQmmrxoLN280i++vnjKUR0t+rXR5H2vt0/p+2vr90Ro/WulSfq2jXr7Wvj/Wxo+WfFr8tMaP1vdDq7wWF5lurX19nR/I+vQcWbHQQ2mU5/nPg23gjv85WlIqxvg6wZqxLvCvrA7Iq+kWpG7Na3RRC8AJf3xSqq68/c20+e3Xwd3DY0CVCpJl3qIV0NnZAR/9403w8vaBJavXw4x5i2DP9q39FXVAy3XjZJMCzknFBwyXVu9hUAutJtPcu1fwQuWFJuakENRXNYl0UiooJE+LAmd80nx2Tz64ebrC+Lmx0FDdAmV5BsWLVjEqr9bhxL1S5Kc/LY1txnOt8saMOk/M5Z+4MBH8w7yhsqgOwuMDe9ViWGUxL9Urm9UIW+UnpaETv0ynduaiwucC4+bEQtLUSLh8pFjck3742prb4cxXeUBPFVOmR0Ha7Bi4uP+qSNcjv5uHK8Sj8ld0ocJEqaAKtOoXN1H5o9V+LfnoB7G7s0u0n9o3bk4cjEkONiqedGs1+bX4UXm18UvpaiH3WAn2i2ElJXZCGARF+sHNqkaTIlnfFkHrrTFNin3QGF+Q30s98ikr6/9IVNbSc67Vv7Z+P7X6t0cS62dq/KiUWv9pfb+pvNr40dO/VIdWiE0PB3cvN3yokq+V1SRdS36tdKpMrX1a308941ONv9b40Uo3gaFyoZevpe+PLfJr8dMaP1rfD63yKkiMSWrtk/8P6Z0fGCvVccKKhQ5IozXLo5NdYWqE4YezpgXg5W97Jn30exro4QRx/k5iwplb3Q21LbcmsjqAzVqwBOYtXgWurq5oxuECP/vNG6LUzboaeOf134rzkLAIWLnuIYiOTRAT+LzLWfD5lnehvc0gxzMv/g5KrxVCZEwcrhqEi/Nt778DVAeFex9+Sqwq0HljQz1seuUlOjUGqn/V+o2ifnoifDU/Bz758K/Q0myYIEdExcCiFWshNiFZmPIUX82HL7Z9ADU3KsHD0wsSU8fB1zu2QfaF06LO+OSxkDZhim7FwsfP3yiLPOnq6oLmxgZxqZUuy1g7yie7NDmlp9gdZk966YkF/Xj4BHpCbXmDcSVB1qeW7oSmN+6oLPjg03QKNysbcZLbs5xFpjttrR1QerYK6qubRR564h4a569QLEBMZm/eUkhEplt/9JR3dXOBxKljxIoImXPcKL4Jlw8Xi6f7VI2a/JTeipPy45/n4FNnb4uKBeXx8nOHqctTwBcZVd9aEaDVFwo0qRw7K0ZMKLtoRaawBvJPl4k0PfK7ebhA6kwq74uaH0DVtTqgJ960+kDBAycjRfmVUI9POinUIWP3W6tC9LSMZMs5cg3qKgyTWW98wk8rRPSDReOZgpr8lJ6IKxW0AqJU7iheT/1q8utpP93Hmnw0vsLjA+ASrtDI9pfnV0NEYpCJYmFNfqpbjZ/W+KXyau2j9MZa/E8RAz0Rpj4893U+NNB/lBja8CkMrXTV4feKzunpMimx5QW1BiUf86jJR3VojV+t8a+Wrqd/SWZawerv95PaYK1/KU1NPi1+evpPz/dbbfyo9S/JrzU+KA+1Pw4Vi4IzZeIhAMXJoNZ+yqMlv1Y61WGtfXq+n2rjUw9/tfFDsmmla/GhOtT4qn1/bJVfDz+t8SPlt/b7olVepq2kHgAAQABJREFU7fdHT/u05gckX/iYaHj46Z+Jh7JvvfYyRekKrFjowjQ6M52r6ILKpm4YG+wM8QGm+v6UcGf4txkG0xei8x/zes5/oMMUqvx6CZw7eRjCIqIgOS1dnFM9Tbcm1XR++7zFYtJ/4fQx/BH2hvSMGVCQewlOHztAyWKVIH3KdDh19FugSX/G9DkwefpsOPD1FyI9H/OSWVIUKiahYWNEnPLPzPlLIComHs6eOAxOzs6QMWMuTJs1Hw5lfimyzVl4J8QmpsDxA3txstcp5Jm/ZBV89q9/4I+im1CISGEJDAqBlpZmVAgaRbzyHmrnz/3qj+DiYuq7UllWCpte/bUoppWuVjelkTJBTyU627qgA23T6KMM0Wkh4j/mwrNlaMbkLiZIVcU9pmJq6cH4dHbiHQnG6qat6Fl1Mph6dMHlQ9eM6fQj4hPkhasDtYo4J6DJ8OTFSeJHmkxIyvJqhMxd+KRaq3xCRgSExQVA4dlyXBFxEU/eafWBFAwKavJTes6tJ/90bi1EJAbi0/xKYYYUNzEMQmL8UYEwtCEZVwgCI3zFpIEmGfSEvaWhXZjC6JE/MjVEPMG+drESf2RRSZ8YLu4j6y/Lr0FTrTBUzJrAG82eQmMDIPsWU7kq5IorDjK4ogxdqFBIpYLi1eT3xf6ITAmG4uxKiEgKgtqyBmiuNyjteupXk19P+9XkIx7049iOk3KaYFB9bS2dwlRPtldNfsqjxk97/HajeZ96/9A9qP9pHNAqnFQqKL4dleq8k6V0KkLgGD/w9HE3KtUUqSYfpWuNX63xr5aup3+pD2z5flIb1Mafmnxa/PT0n9b3W2v8kPzW+pfS9IyPlBnR+J1qFcowmex04zMJ+f1Uaz/VryW/Vrpa+/R8P9XGpx7+auOH2qeVrsWH6lDjq/b9sVV+PfxIPrXxQ+lq3w+t8mq/P3rapzU/oPt7enmBt4+veADs7uGJDwsND04oTS30/Cqp5eK0UUngVJnhyWx3MvoTBJhOgHNwheL/HGqHaD8neHiSK/z5RDvcmpMAzmc1AykI9Jl7x3Lx5H/3Zx/1KpM6fhLkXjoP27duFmmhP30J0iZmGBULiizMuww7P/lQpEdGx0FiyjijYnHy8Dcifumaey0qFmPTp0BO1jmxCkEZvVB5iYnHxt4KfgFBUF1VAZm7PhUx508dFf8ZynR5fOzHP4cbFWVQXloso3Qdt295D5UTw4qQLNDc1GNKoZUuy6gd939o8BtorGuBCnxaqgzk+0ATeelDEBSFT84VQS2dnp6f/vKKsCWnp/YX9hWKyRQVl5MWRVUQMz4Mn8C6CdMnGe+ETQ+O9hM/uvQkfiw+vadVD6kYyHx0tFS+uqReyN9wa0WE7N3DEwKN5dXkV9atdl517SYUXawQWWhlQ6lYkFkLTSivo0JEISDMBwLxyTUpSObBkvxjcDJP/MkMiQIpR9QGqViQPwpNDjKWGsbkNZSjEv1UKLQ0tAmzsXhURjpRYSQFY0xSMNysMKy2iUz4R03+2HT0DUKFj5jR0y8yWzufWQg16Mugp34t+aUMdLTUfopXk4/SKUxbmYomdM29npyryU/l1PjpGb962keTRPL9CENTOhobJ3AFjJ62m4fIlCCxciefQmrJR+la41dr/Kul6+lfW7+f1Aa1/lWTj8oqgzk/Pf2nLG/pXGv8UBm1/tUaH/TQg3zIzuzOE/VMXpQkVrmuHDconH1pvyX5teL0tE/WYen7aev3R2v8aKVr8dHiq/b90TN+tOST7OhoiR/Fq40fSlf7fmiVV/v90dM+ql9tfkDpRQVX4N03X4HmZrRI0KlUUDlWLIgChz4TqG/rhuwb3fiE1DAxLqjthqpmg/lFnyuzUoAm9uWl+42pleXXISIyxnhNJ5XlPU8Fb1SWi6U7kwwqFz6++PT5eo8ysHXz2ya587IvwOJV6+DHv/g9lGO+yxfO4OrGIZM8dFGQm43mURXg6endK00twlJdyvxa6cq8/Tn3wCeoDTUGMxsq34j+D87ovC2DWjqtftysxEnsrS6niZ/S8VfWQUf/UG/0wxgDV8+ViwmiTCu5fAOfllcZlQ1aEqYfA3PFwlp5+s+TflyixoaIZXV6Itzd1WOupya/lEHrqHwKTf4hJIsMZDdNygT5PlDw8HHr5VhM8dbkJ/loNUIGOeGQ1/RjReYzV46XYN3u+AQ7FE3WGsVElvJkoS8FmbJNXpIkVqfoyX5pjqlSY01+UiSIXdmVashB8yvqd1o5SkLTqJM4UdZTv5b8ohL8Y639lG5NPlmWjlW4CtV0s1X4kch4PfKr8dMzfvW0j8zQzu8tEKsqM787Dk39Anr1Aa1mhcQEoKLT838VtUNNPkqn+6t9P7XGv1a61vix9ftJbVDrXy35qDwFS/z09J+htOW/esYPlVTrX7XxQU/j6YlyeUGN0VTRIEnP/69622+5BeqxettHtVj7fqqNTz38tcaPVroaHz181b4/AyG/7AFr/ChdbfxQutr3Q6u82u+PnvZR/XoCmYj3NbBi0VdinH9ICfRFVZFLzH0RUK3+g5m7oKG+DtJx56qY+CQYN3EqBIeGG1cw5H0+/edfxemdd22QUbqOGx59ttc2onU11cYVFK10XTfRyqQGgMpqpWvUT5P99IUJ+B9sgzApUmaXT+ZlHNly+4f0TNwpXq38lCXJYrJJE0/yS+hEc5lewUb5TevrXVl7W4fR4Zwcz8kUShnU5Bf5elcposkMKH5SuDCHkJzox5TMpegJOQXyPTj2P5cFA1rt8UR77hslBjMwkaHXn56bkYkL3eM6rrjQ96azvVusaCXfFilW5ShOV/09Vfa6G0Vott+klOXK8k9fF7looiODlvy0EqPFT9alerQsUq8iZFZQg6Zk5GthrtyFo18IBfKvkEFP/4q8KvfXGv9a6Vr9K8edlLmv309Zrudo2hgt+WQ5S/xkWn+PWuPH/LfEav+aNskoDvUv7ZJH31nye6JAu3A11rYa8+htv7FAH070ts/a91P3+FSRSWv8aKWr8dHDV4hmpX9UxDYmaclHGa3xM1Zy68Tq+DHJaF1Ya+W1fn9Mqh/CC1YshhA238oagZ6nOMoczU0Nwn9BxvkHBkETximDP65qyODnHwitrT1P4GW8tSOZHZF/hAwL77xb2BOSg7YM5H9BH1dXN9j41AtA5llkGtXa3CycvEPDe3w3aNvZ1hZ9NohUvwfaL5LjujK4ufeYQmmlK8v155yeapCDmwz0xJ1sm2XQSpf5rB3JoZr8MMi8iXYqMv+xJtORprpWYYNMdXjiD3FbS8/EXK08OZz7hXgJMwPpvOwT6GFiWmar/EImZCID/YhQnTKQU3wdmh5Jx2eyoVYGNfkpH7WVnA9lIH8H2j2LTKPIp4J2QlKuAtHuQlFjg2V245EmLGHo6ExPzs2DpxX5ZT+Tg6YM7t6uuDEC+uWgUqEM1upXk5/Ka7Wf8liTrxs3MSD/Cm9/2ljA8J0gh2O51a6W/D5YTi8/ksNSUGsfPUWfvjoNsg9fE6ZjVJ524GlTbNcr66SdrGgVTjl29PSv2vjVGv9a6VI2OlrrX1u+n7J+a/3bF/ks8ZP19/eoNX709K/a+KAnMk1ofkpbRdOHght+n2XoS/tlmb4ctdpHdal9P/WMTy15tMaPWro2H3W+JJva90dLdkpXk4/S1fjpGT9Uh7Xvh57yWr8/VP9ABJr7dHT0/C7rqZMVCz2URmkectrGBy4Q6u0EaDkBaSEGs6eS+m5oQFOogQgV6KxMfgYLlq6GKvRToB2RCq5ki6rzc7KA/CDKSorQicgbnbATIXPnJya3TULHb3K6psEfFZcAR/fvMaaPn3ybeGJEyoczOklPQEdvCteLr4qdnfIuX4S09AyxmxQ5b9NOVdIxnPI99qOfo+25K+789DH+KLiDj6+f8R0V9EUj53B6D0dFWYlQSBJS0uDyxTNUVFd4b9Orqvm00lUL60ikp9vCaRcnbvR0jez7aWciGbTSZT5rRzIRoidnWQeKhC8G5ZNPwumcTHG8cb//3GPF4skPbdeZc7THNE2tPNmI064WZMNMZlgBET7CuZnscmXQkp/8F0gZoMkrBVrSpkC7WMmt+MLQ/6AKJ4UuuMtVEN6L7I5loCe4Y5KDxM4/5FdC23feKL0pdnaiPGryUzo9EaNJE9VDTzaTpkUa/S3I9Id+GGkrX3JOJzOnKDSFqq/qrTgnTRsjltzlSgbVLYM1+Vsa24VCF4erIrTLFTl+k48GOXCbB2v1q8lPdWi1n/JYk490G3rvSRRuMED+QaQk0Hi5jqZbFLTk7ws/UaGFP2rtIwWHdnCLxx1/yMeFJkKB+P3JRbM1ZSDllyaWBbdWXWSaHvnUxq/W+NdKl3LQ0Vr/2vL9lPVb61+98lnjJ+tXO6p9v7XGj57+VRsf9P8B7TinDFOWJhkv9bRfTX76/0ktXat9JIja91PP+DQ2xsqJ1vhRS9fio8WXRFL7/lgR2SRaTT7KqMZPz/ihOqx9P/SU1/r9ofptDeGR0fDI0/8udtV884//obs6Vix0oxp9GV+c7Qb40NkY/tccw9PN/+94O5wuM1UsLBihGMupneReOgfZ50/BHHTidnf3wN2d8qDgT38QRY7hbkzeOJlfdvcGtCFvRx+H03AWd5JShhLcDWrpmvXCv4EcjcjBWoa1Dz6BE8KeIb5+4w9F0g50Bj+JW8YeP7gX/PCN2SvWPiAmkkUFuSaKycHMnbB01Xp46MnnaUYM5ahAHPlmt6wejn27BxWiNXDXhseEckSyf2Un77AwCqlyQi+ioydTU+9MFisH9II1pemTVrqyarOH3CLJL9hbmNukL4g3ZqWn0Ie2ZonrQvS5GDszGu+fIibRZI+s9K9QK0+TYdrNihwUyTyInGJJqcA9kYz30pKfFAF3r57xQT4eFA5/nGXcOpcm2uPnxgnHanK0o/duyED7jE/AtpFzMclDeQtubTdLedTkp3QymRFL6d9JEOOrqrgeHcENE2dSwMghPg0d4+lFSUIhQ6WCnpArAyk7tPMIOYhaCmry0woHvaBt0h2Jon7aDlip2FF9avWryU9ltdpPedTkK8HtWmkVYDL2E5k+3MD+JT8dGdTk18tP1mVp/Gq1LwtfJDkOfVxo3NB2w6VXbhj7T9YbgcoarToRW2XQI5/a+NUa/1rpUha1/rXl+ynrt9a/euWzxk/WL4+W+k/r+602fqherf7VGh9SNktHPe3Xkl8rXat9at9PPeNT2S5L/LXGj1q6Hj7K+1s6V/v+mOfvj/xq/Kh+rfFDeax9P/SU1/r9oTpksNQ+maZ2pAe2NC/r8u7Ed4Hp3xXKKT09veeXGO/g6+sLDQ2m/wmq3Xig0/j+w8t/oPtzIOrzwu3OOtrbjO+vkHW+8PLrqEgcgT24okAv2qP3S/QnkPJC/5HK90eY1xEYHIo7HaGz8q33Y5in+6JyQk8vm3DrWUcM9DRYaaZh3gatdPP8fb0mR0N6AkV90J+gJZ9Wup570ooB2blaCrQk3o3yy/dPWMqjFidNqIiBpUDyi22DcfLa36ApPz4BtXZ/rXtqya9VntJV5cPxQWPDmnyCv4r8tvLTah/VT6tntoxftf7VGr+2pmv1j63fT63+1ZJfSz5b0/WMH7X+1RofWvINdvu12qdHPrXxqVVea/xopdvKx9byWvJptZ/urzZ+qLza/39a5W39/dGSn+Y39O6wVtxSX2/oeVyntwTnYwJDTMDahF+KQZP+/ioVVIeWQlBbXSVvZfHYcLPnKbbFDHYeqaZUkOha6bY2j55O2RK05NNK13Nva0oFlaUfDVuCtQmzrNPR5ZftUDuq8tUYH1r8beU32P2jJd9gp6v1C6XZ+v2kOtT6V6t9VH4wg63jR2t8aMk+2O3Xat9gy6c1frTSbeVja3kt+QaCny3fD1v7V0v+/sxvWLHQosrpdktg/1efm2w3a7eCsmBMgAkwASbABJgAExgFBFixGAWdPFKbePxg5khtGreLCTABJsAEmAATYAIOR0DhmutwsrPATIAJMAEmwASYABNgAkyACdgJAVYs7KQjWAwmwASYABNgAkyACTABJuDIBFixcOTeGwTZaVcuDkyACTABJsAEmAATYAJMoK8EWLHoKzHOzwSYABNgAkyACTABJsAEmEAvAqxY9ELCEUyACTABJsAEmAATYAJMgAn0lQArFn0lxvmZABNgAkyACTABJsAEmAAT6EWAt5vthYQjmAATYAKOQSAkLALCIqKEsPT295yss7oF9/TyhoTkNGP+4qJ8MH8Zki31Gyvu54ke+fpZNRdjAkyACTCBQSLAisUggeVqmQATYAJEYNaCpeDnHwhfbd8y4EAyZsyFuYtWQHNTI7S1tvZJsQgKCYM19z0CTs7O4OnpBVve3QSXzp8ykVFP/a4eXvj28Tbo7uo0KWvrhR75bL0Hl2cCTIAJMIGBJcCKxcDy5NoGgcCq9Rth/KRp4O1j2LHqlV8/D82NDYNwp8Gt8sEfPAeubm7w7puvWLyRVrrFQoMY6enrDjPvGQfnMwvAL9gLoseFwqEtWb3u6OziBNNXjYWbN5oh+2CRMd3JCSB2QjgkTIkAwPP9H5w3ptGJ3vpNCg3wxcSpt8PUmfNh81uvDXDNPdXNmHsH+AcGw+H9u3utCPTk6v9ZS3MTvPLSc70qIIUh/vYVEDNtEfJ3hgP///Mmea4XXxXlomIT4Imf/NIkTXlhrX6/iDiIm3EnBMaMhc6ONqguuAB5326DzrZWZXFwcfOAafe/CI1VJZD1xd9M0tQu9MqnVgenMQEmwASYwNASYMViaHnz3fpIIC4xBW6btQAO7fsSSosKROnWluY+1mIf2Z1opq0StNJVig5KUndXt6i3Gw/0AcNlr3vFpoeDu5cb5J/KN0mbuDAR/MO8obKoDsLjA03S6EJv/b0KmkX4+PkDmQH1R9kMwAl/fFKqWY0De7n57dfB3cNjUJQKNUkn3vU0+IbFQHVhFoQkTlTL2q+0hNlrwMXVHS7u+G/sf19IueM+VB5KoeTsNyb1xd2+HNy8/CD/4Gcm8XzBBJgAE2ACI48AKxYjr09HRIs80DQjODQcxkTHi/YUF+ZBXW21OO/qNJhcrNv4Q3B3d8eVDD+IiIqF2upK2LH1fbianyPykX34ynUPQTQ+ke3s7IC8y1nw+ZZ3ob2tDcamT4FVax+EJjQhITMVsk2fMPk2OHX0W9j92Ue6GAYGhcCyu+6D2MRUcEM5ivJzYevmt9EkpUWUj01IgdX3PgxBIaFQVlIEHR0dJvVqpWu1z6QyCxc04TYPfZmAd7Z3ieKd7Z3QIT6Ga2WdXn7uEIeKRcGZMmhrblcmQSteH/88BwLCvS0qFnrqN6nQygWt9FSVX4dtH/zFSo7e0bMWLIF5i1eBq6srODu7wM9+84bIdLOuBt55/bfiXG38UIZnXvwdlF4rhMiYOOzjcHG+7f13gOqgcO/DT0H8LR+GxoZ62PTKSyJe/qH6aTWOxmc3am40bj/58K9AKwQUIqJiYNGKtRCbkAykdBZfzYcvtn0ANTcqZRWqx/bmejj90WsQGJ0y4IqFq7sndLQ0QtH5L6Gu5IqQIzxtOgQnppsoFj6hURA1eT5cO7kHWuqqeskbPiYaHn76Z0Lpeuu1l3ulcwQTYAJMgAk4FgFWLByrv0aNtJOmzYSVOPGX4b5Hn5GnIE2hPDw9ISVtIlw8ewKVhoswffZ3YCZOGKVicfu8xWLSduH0MfBAR9X0jBlQkHsJTh87AK4uruAXEATHDmbCjDl3QGj4GFHP5Ntm61Yslqy5FxJSx8MJrMPL2wemoUlNxow5cOzAXiGrMIEJCMT0feDrHyDuf63AMAmjDFrpWu0zArFy8tyv/gguLi4mqZVlpbDp1V+bxFm7IGWCVhU627qgow2VC/yYh5QZ0dBc3wol2VVAJlHdqHvQJJlCzpFi8+wm13rqNykwgBfl10vg3MnDwvE5OS1dnFP1TQoTO7XxQ3mpz9OnTBfKKE36M6bPgcnTZ8OBr7+gZMjHsUbKMJkahYaNEXHKPzPnL4GomHg4e+Kw8HMgf4Zps+bDocwvRbY5C+9EpTUFjuN46kL/BZJn/pJV8Nm//qGsxup59pfvGdJQsRjo0NHWApd2/cNYLZldeQdHwI2Ci8Y4OkmevxZa66uhGBULMokiP4wuVPJl8PTyEiaOpOC5e3galXKZzkcmwASYABNwLAKsWDhWf40aafNzsuBjfPpLO94sWLoadn36T6CnvhSUplAN9TfhY1wloODj6wcTcKInQ+r4SZB76Txs37pZRIX+9CVIm5ghFAuZ59iBryExZRzQhPta4RWYevs83RMckpEmpzkXDTvxROIkceyEKUbFIg5NbHKyzsHuzw0rIDH45FkZtNIpr1r7lHVZOt++5T18Gu9skkROvn0J+z80+EU01rVARUGtSdGwuAAIjvKDM7vzhDIxeVESNNa2wJXjpSb51C7U6lcrF4KKYOq4SSIL7R4UEBQsnKQp4sShfbg6ZLp6IjIq/pCCSZ+5dyyHxNRxFpVJPeOnMO8y7PzkQ1FzZHScGEtSsTh52GAStBQVUEuKBa2a0figVQgKXtiOmPieMUKKb3VVBWTu+lSknz91VKxciAs7+0O+Fu6+gVB15YxRsojxMyEAlZqL298RysSU7/4ImmvKIefrfxrzFKGiTT5Hzc3kfG5Y6TMm8gkTYAJMgAk4HAFWLByuy0aHwDShog+ZJ1G4hqZQ5MxpHiiPDBfOHBenrq5uYmJJE7Py0v0yGSrRXCYiMsZ4rTzpRgcCKy4Eymwm53nZF2AKrlDQSgWZqtCqBJkayeDj648KS4m8hOrKcrRJ7/nKaaVTQbX2GSu2cnL2xCErKbZHU3uTp0dBeUEN1FUolRV1PxLb72yogUxolqxeLy5IeSJfiei4JHF9FpU9LcVCjxx6xk9leY8SdQP7l+TSG6j/K64XG7OTGZ0y0PhavGod/PgXv4dyzHf5whlc3Ri8PlXeuy/nQXFpEDttCZSc3gd1pXmiqBOalyXMXgVVeeeEj0dPfb3Hh1xh7MnDZ0yACTABJuCoBHpmOY7aApabCdwicBWfHtNHGfqqLCjLap0/9OTzYnWj4Eq2eCLb0d77KbnW/bXSlTJYap8y3fx8w6PPonmS6YpFXU218Qm5ef6+XDs5O4GHt5tQqBIm465PGLz8PHDForUv1fQ776VzJ+F/v/hDUf5JXInqq4+F3hv3pX+kCZjeuimfWv0HM3fhilUdpOPOVTHxSTBu4lThdyRXMPpyn8HK6x08BtKWPQw3ywuh8MgO421cULl39/YX4yNp3j0i3tMvGFcseh4EGDPzCRNgAkyACYwYAqxYjJiu5IaYE2huagBysJbBPzAInbUHZpvalHETgcxxyGGYfDgoPPrMiziR7/FpINMOepIug69fgDD5kNda6TJff48eaL9OjsnK4OauXF1QpvT1vBua0DzKN8hTfKi0m7vpvfpa4/Dl7/0UnWTRM378cVVMBtoEoLVV/45lZJamHJ8L77xb+BtI0yiql/wv6EOrcBufegHIPMteFAs3Lx+YsPJxaG9ugEs7/yb8JyQLUrKa6yrBO2SM+FA8ve/CUpArjJbSOI4JMAEmwAQciwArFo7VXyxtHwiQDwTZsdOOTGSHHxWbCJk7P+lDDdazVqDzbzu+FCxp7ASxG1TqhMlAPhPkxCsDOWpTfDru9kMKRnhktMirN13m6+/xvU2v9reoZrmuzm6x45My45SlBlMkGecbhIoNOnR7+3uKKP9Qb3Gsr24WTuEyn61HMkGqq7nRr2oq0LeGTKnIj6eqokxsWUsrUBT0jJ8kdPwmp2uaHEfFJcDR/XuMcoxHMz4yGSPlgxRO6f9DJn20sxNtOJCWniF2kyLnZ9qpijYWkOGxH/1cmM59veNjsesY+RDJndFkHrWjf2QSOky7gVdQuMhGJksU6krzoUvDB0Vk1PiTtnQjePqHQG7mR2JbW8pOO7bRLlGd7a1wYvN/mtQwZf1zJtd0Qd+JR57+d+E/9eYf/6NXOkcwASbABJiAYxFgxcKx+mvUStut8F3QC4F2Z/LGydiyuzfgdqntaKN+Gsj+XhnkuxRUbVKUBW6d05aiJw7tE7tA0cSSJooGpaLHuOXE4X2weOVaWPfQkzjxrRYTSKW5jFa6hds6VNSkRYn4foOe/2KmLk8R8h/+OAu3pu3ZGcjWRknn/f7Uk3vpHGTj26bnoBO3u7sH9mEeFPzpD6IqPeOnBBXJpWvW45urvYEckcnBWoa1Dz6Bu3L1tH89bo9MYQduJnASx8vxg3txq+MAWLH2AaFoFRXkmigmBzN3wtJV64FM7uhFIuXor3Pkm92yes0jrSa44fslZKD3WlA4/t7voOVm/xQxWRcdfUIicTcrFxi7+H5jdDtuQXvkv39pvNY6IYWMuHd5d+reNEGrTk5nAkyACTCB4SPglJ6e3jMTQjl8fX2hoWFgzEX60yy+/+jm358xo1XGC9/Y3YGrC/T+Cr1h8m2zgExTLIX333nD6FRNT6JpNULt3QJBIWE2pVuSgeOGjoC18fPCy6+jInEE9uCKgtYYUJOWlF9hOqTY6laZPzA4VKwEyPdjKNNIcZ2N29KSEzmZ1v39z/+lTFY9p/dk3HP/94XyQ9stb3l3E1xCJUsZbKlfWY/aOW16QN9N5W5vlF+PfGr1choTYAJMgAkMPQFTz86hvz/fkQlYJRAY6AOPP/4doCOF/l57uHWLiUtfypeVXIMzx/YBtOWL42F8Uiyv3d2EOEKeRx+ZB92dhheaWavf1nRr7TdIwX8HmwC90VtNKSXzHzXFUku+JtxGWe2t4bXVVcaX7pnXRTsqHdn/lTCrKrxiunGBeV7z6+bGRlGOXg5Jb7YnUzDzYEv95nVZu264WddLqaC8euSzVifHMwEmwASYwPAQcAkPD39ZeWt6k3FbH57sKssOxDnff3Tzl2MoISEMVq6cAnv3ZoljTU3TkF4XXyuD2zKCYNeOb8Xx4rmLxutlyybAUMtjfr/Tp69KVHwcJgK0CkbvPqmttt2sqL9NoO2IyReEPoW3fEP01tWKKxyyLB2bGg3viVGWt6V+ZT39OdcjX3/q5TJMgAkwASYweATYFMqMLZtiDa8pluwOWqnYtu0E1Nbizjm4YrF27XS+VvAgLhyYABNgAkyACTABJmBPBFixMOsNVizsQ7Ew6xa+ZAJMgAkwASbABJgAE7BzAuxjYecdxOIxASbABJgAE2ACTIAJMAFHIMCKhSP0EsvIBJgAE2ACTIAJMAEmwATsnAArFnbeQSweE2ACTIAJMAEmwASYABNwBAKsWDhCL7GMTIAJMAEmwASYABNgAkzAzgmwYmHnHcTiMQEmwASYABNgAkyACTABRyDg6ghCsoxMgAkwgZFIICQsAsIiokTTurq6gF5Wpzd4enlDQnKaMXtxUT7Qy+aUwZb6lfX051yPfP2pl8swASbABJiA/RJgxcJ++4YlYwJMwA4IzFqwFPz8A+Gr7VsGXJqMGXNh7qIV0NzUCG2trRYVC1cPL+jEl/F1d3Wa3D8oJAzW3PcIODk7g6enF2x5dxNcOn/KJI8t9ZtU1I8LPfL1o1ouwgSYABNgAnZMgBULO+4cFg1g4tTbYerM+bD5rdeGHceDP3gOXN3c4N03X7Eoi1a6xUKDGOnp6w4z7xkH5zMLwC/YC6LHhcKhLVm97ujs4gTTV42FmzeaIftgkTHdyQkgdkI4JEyJAMDz/R+cN6bRid76TQoN8MVQjI8Zc+8A/8BgOLx/d68VgYFoTktzE7zy0nO9qvKLiIO4GXdCYMxY6Oxog+qCC5D37TbobGsVea8XXxXlomIT4Imf/LJXeRnR3/pleRc3D5h2/4vQWFUCWV/8TUZrHvXKp1kRZ2ACTIAJMAGHIcCKhcN01egUNAAndPFJqXbReCeaaasErXSVooOS1N3VLertxgN9wHDZ616x6eHg7uUG+afyTdImLkwE/zBvqCyqg/D4QJM0utBbf6+CZhE+fv5AZkDNjQ1mKdqXQzE+Nr/9Orh7eAyKUqHWwoTZa8DF1R0u7vhv7B9fSLnjPpzcl0LJ2W/UiulO01t/3O3Lwc3LD/IPfqa7bs7IBJgAE2ACo5MAKxajs9/tvtWzFiyBeYtXgaurKzg7u8DPfvOGkPlmXQ288/pvxTnZj69c9xBE4xPbzs4OyLucBZ9veRfa29p0tS8wKASW3XUfxCamgpu7OxTl58LWzW+jSUqLKB+bkAKr730YgkJCoaykCDo6Okzq1Upft/GH4I71evv4QURULNRWV8KOre/D1fwck3qsXdCE2zz0ZQLe2d4line2d0KH+BiulXV6+blDHCoWBWfKoK25XZkErXh9/PMcCAj3tqhY6KnfpEIrF7TSU1V+HbZ98BcrOXpHD8T4eObF30HptUKIjInDPg4X59vefwdojFG49+GnIP6WD0NjQz1seuUlE0Fo/K1av1GMv27U3KhfP/nwr0ArBBQiomJg0Yq1EJuQDKR0Fl/Nhy+2fQA1NypN6rF04eruCR0tjVB0/kuoK7kisoSnTYfgxPQBUSz01u8TGgVRk+fDtZN7oKWuqpeo4WOi4eGnfyaUrrdee7lXOkcwASbABJjA6CLAisXo6m+HaW359RI4d/KwcGxNTksX5yR8k+Kp9u3zFotJ3YXTx8ADHVnTM2ZAQe4lOH3sgK52LllzLySkjocTBzPBy9sHpqHJVcaMOXDswF5RXpjABARi+j7w9Q8Q9V8rMEzyKINWuoenJ6SkTYSLZ0+g0nMRps/+DsxEhUmvYvHcr/4ILi4uJm2pLCuFTa/+2iTO2gUpE7Sq0NnWBR1tqFzgxzykzIiG5vpWKMmuAjKJ6kbdgybJFHKOFJtnN7nWU79JgQG8GIjxQX2ePmU6nDr6rZj0Z0yfA5Onz4YDX38hJM3HsVRXWw1kahQaNqaX9DPnL4GomHg4e+Kw8HMgf4Zps+bDocwvRd45C+9EpTUFjuN46kL/CBqv85esgs/+9Y9edZlHdLS1wKVdPfnIj8I7OAJuFFw0z9qva731J89fC6311VCMigWZRJGfRxcq8TJ4enmh4uwrHgC4e3galXKZzkcmwASYABMYXQRYsRhd/e0wrSUFgT5z71gOianjYPdnH/WSPXX8JMi9dB62b90s0kJ/+hKkTczQrVjk52QJhSXnomEnnkicJI6dMMWoWMShCVZO1jnY/bnh3jH45FkZtNIpb0P9TfgYV0Eo+Pj6wQScyOoN27e8h6s1pjtCk5NvX8L+Dw1+EY11LVBRUGtSNCwuAIKj/ODM7jyhTExelASNtS1w5XipST61C7X61cqFhI+B1HGTRBbaPSggKBjISZrCiUP7cHXIdPVEJCj+DNT4KMy7DDs/+VDUHBkdB4kp44yKxcnDBpOjpaiAWlIsxqZPEeODViEoeGE7YuJ7xohfQBBUV1VA5q5PRfr5U0fFyoW46OMf8rVw9w2Eqitn+lhSX3ZL9UeMnwkB0Slwcfs7QpmY8t0fQXNNOeR8/U9jpUWoaJPPUXMzOZ8bVvqMiXzCBJgAE2ACo44AKxajrstHToNp4lZeut/YoEo0p4mIjDFea53kZV+AKbhCQSsVZKpCqxJkaiSDj68/VJaVyEuorixHm/eer4xWOhWkiaUMF84cF6eurm6aE2fKePbEIVl0wI/U3uTpUVBeUAN1FUplRd2PZKAEIROaJavXi+pIeSJfiei4JHF9FleqtBQLPXLoGR+V5T1K1A3sX5JLb6D+r7jes6pDZnTKQONr8ap18ONf/B7KMd/lC2f61adBcWkQO20JlJzeB3WlecpbDMi5pfqd0PwwYfYqqMo7B9WFSof/3uND7wrcgAjLlTABJsAEmIBdE+iZJdm1mCwcE7BMwIo/suXMZrEPPfk8OuV6QsGVbPFEtqO991Nyrfq10pW3vIpPx+mjN2x49Fk0TzJdsairqRZ2+nrrsJbPydkJPLzdhEKVMBl3fcLg5eeBKxat1ooMaPylcyfhf7/4Q1Hnk7jS1FcfC73C9KV/pAmY3ropn1r9BzN34YpVHaTjzmYx8UkwbuJUCA4NN65g6LmPd/AYSFv2MNwsL4TCIzv0FOlTHmv1u6Dy6+7tL8ZH0rx7RJ2efsG4YtGjKPfpRpyZCTABJsAERgUBVixGRTc7eiN7PyWlFjU3NQA5YMvgHxgETRinJ6SMmwhkjkMOw+SjQeHRZ17EiXyPTwOZdtCTdBl8/QKEyYe81kqX+fp79ED7dXJcVwY3d+XqgjKlr+fd0ITmUb5BnuJDpd3cTe/V1xqHL3//x4c/rnrJQO+qaG1tlpeaRzJLU46/hXfeLfwNpGkUVUD+F/ShVaqNT70AZL4nTaO0buDm5QMTVj4O7c0NcGnn34R/g1aZvqSr1U9KVnNdJXiHjBEfqpfep2Ep6F2Bs1SW45gAE2ACTGBkEWDFYmT154hrTQU6K5OpzIKlq6GqokxsSUorDBTIR4Ls3GnHJrLTj4pNhMydn+hiUIHO4e340rGksRPEblCpEyYD+UzQzj0ykKM2xafjbj+kYIRHRou8etNlvv4e39v0an+Lapbr6uwWOz4pM05ZajBFknG+QajYoEO3t7+niPIP9RbH+upm4RQu89l6JBOkupob/arG1vGRhBsDkNM1TY6j4hLg6P49RjnGT75NPLEn5YMUTukfQ+9noJ2dyCE/LT1D7CZFztW0U5Vy44DHfvRzYTr39Y6Pxa5j5GNDzuB6Q9rSjeDpHwK5mR+Bb5jBxK+rs9O4S5TeeqzlU6u/s70VTmz+T5OiU9Y/Z3JNF/SdeOTpfwfaNevNP/5Hr3SOYAJMgAkwgdFFgBWL0dXfDtfa3EvnIBvfJjwHnbjd3T1w4p8HBX/6g2gH7d7kjZO1ZXdvwO1U29GG/TSQfb6eQFuKnji0T+wCRRNLmigalIoe45YTh/fB4pVrYd1DT+LEt1pMIJXmMlrpeuSw5zyTFiXi+xN6/ouYujxFiHv44yzcmrZnZyBb2yCd2/tTj63jowQVyaVr1uObq72BHJHJwVqGtQ8+gbty9bR/PW4fTGEHbhZwEsfL8YN78Y3cAbBi7QNC0SoqyDVRTA5m7oSlq9YDmdzRi0TK0V/nyDe7ZfWaR5+QSNxtygXGLr7fmLcdt6A98t+/NF7bcjIQ9ZNCRt/LLu9OYVbIDty29AiXZQJMgAk4PgGn9PT0npkUtsfX1xcaGvSZkwxG8/n+o5t/f8aUF2532YGrD8r3V0y+bRaQaYql8P47bxidqulJNK1GqL1bICgkzKZ0SzJw3NARsDQ+6O4vvPw6KhJHYA+uKGiNATVpSbkVpkOKrZCV+QODQ9GHp9P4fgxlGimus3FbWnIip0n53//8X8pk1XN6T8Y9939fKD+haNa35d1NcAmVcGWwpX5lPWrntOkBffdaW0zNyPTIp1YvpzEBJsAEmIDjETD1DHU8+VniEUwgMNAHHn/8O0BHCtauPdy6xcRGmV5Wcg3OHNsH0JYvjofxSbG8dncT1Yn6Hn1kHnR3Gl5opiyvvJ+t6dbkN0jBfwebAL3RW6l0mt+PJv1qiqV5fvPrJjQDUntreG11lUWlguqhHZWO7P9KmFUVXtHv2E9lmxsbRbmcrLNwaN+XwlSQ4pXBlvqV9aidN9ys66VUUH498qnVy2lMgAkwASbgeARcwsPDX1aKTW8KbtP55mJluYE65/uPbv5yHCUkhMHKlVNg794scaypaerTdfG1MrgtIwh27fhWHC+eu2i8XrZsAvS1voHOf/r0VdlUPg4TAVrlulZ4Bd+I3j//joEQm7YjJl8h+hTe8h3SW28rrnDIsnRsaqzvVdSW+ntV1scIPfL1sUrOzgSYABNgAnZOgE2hzDqITbGG1xRLdgetVGzbdgJqa3HnHVyxWLt2+oi6pnZxYAJMgAkwASbABJjASCLAioVZb7JiYR+KhVm38CUTYAJMgAkwASbABJiAnRNgHws77yAWjwkwASbABJgAE2ACTIAJOAIBViwcoZdYRibABJgAE2ACTIAJMAEmYOcEWLGw8w5i8ZgAE2ACTIAJMAEmwASYgCMQYMXCEXqJZWQCTIAJMAEmwASYABNgAnZOgBULO+8gFo8JMAEmwASYABNgAkyACTgCAVYsHKGXWEYmwASYgIMTCAwKgTFRsQ7eiqETPz45Ddw9PIfuhnwnJsAEmMAAEHAdgDq4CibABJgAE2ACFgm44UtX19z7CKRNzIBv9+yAstJrFvNxpCmB6bO/A4kp4+Dkkf2QuetT00S+YgJMgAnYKQFWLOy0Y0a7WHMXrYDFK9daxLD57dehIPeSxTRLkavWb4Txk6aBt4+vSH7l189Dc2ODpawOFzdx6u0wdeZ82PzWa3Yru73y/+lLr8KF08dg9+cf2S07pWAP/uA5cHVzg3fffEUZbTzXSjdmHOKT1esfhuS0dPjqsy1w4vC+Xne31/HRS1CNCC3+Wunm1X++5T2Ye8dymLtoObS2NsOhzC/Ns/A1E2ACTMDuCLBiYXddwgIRgcsXzkBNVYWAsWT1eqi5UQknD38jrivKSsRRz5+4xBS4bdYCOLTvSygtKhBFWlua9RR1iDwBgcEQn5Rqt7LaM38nZ7QEdbJbdL0Ec3JSF1YrvVeFQxAxbtJUIOX3kw//ikrc0V53tOfx0UtYjQgt/lrp5tW3tbaIlQpXVzdYeOfdcP7UUaivqzXPxtdMgAkwAbsiwIqFXXUHCyMJVFVcB/pQmL90NTThCkPWuZMyWfPo4ekFwaHhMCY6XuQtLsyDutpqcd7V2SmO6zb+ENzRTMPbxw8i0Pa7troSdmx9H67m54j0kLAIWLnuIYiOTYDOzg7Iu5wFn295F9rb2mBs+hRYtfZBaGpqBD//QMjJOgsTJt8Gp45+C7s/0/cE3MfPX9xH+aerq0vXasqsBUtg3uJV4OrqCs7OLvCz37whqrlZVwPvvP5bcW5L+6iCZ178HVwvvgpRMfEQEBwqFLMtm9+Cxvqbon61P47An+QPDgmHZ7Gdltrn6x8A93zvcYiOS4KOjnbs/wvw6T//Jpo9JjoOHvj+v8Gl86dg5ycfirgHnvg3CAgKhb+88TuRX0Sq/CGfg2V33QexialA5kJF+bmwdfPbQBNKCrEJKbD63ochKCQUykqKsM4Ok9q00rX6X619dKOIqBhYtGItypEMNCkuvpoPX2z7QCj5etIpT3ziWDFezJUKRxgfw90/xI8CrfLMXrgMzaLGw7mThw2R/JcJMAEmYKcE2HnbTjuGxbKNwKRpM+EHz/0Klt/zPVHRfY8+I64pzuuWSZSHpyekjp8MtTU30MxgF3h7+8JMnLDLcPu8xUKpIHOZ/NxsSM+YARMzbhfJri6u4BcQJExpOtrbITR8DFw8ewIm3zZbFtc8PverP8ILv37N5PPo0/+uWY4ylF8vEZOMa6gwUaAJB32yUAYZbGkf1eHl7SNMyPJysuA81h2Lqz+Tp82S1aseHYE/NSBx7HjIvXQezhw70Kt9q9dthEhUqo4d+BouoVKbjn2/aMV3Rbtpop976ZwwQ4tCxXPK9DmQMm4SnEJ7eFJC9IQla+6FhNTxcBqV0fMnj0Dy2AmQMWOOseiMuXeAf0AgnDi4D5XeG7gyNRYXWHpWLbTStfpfrX0kxJyFdwomxw9mwpH9XwG1c/6SVUb5tNIpY2hEJNSgwm4eHGF8DHf/SGa0WksPVtjxXRLhIxNgAvZMgFcs7Ll3WLZ+E8jHyfDH778DYRFRsABXPHZ9+k9obKgX9SlNoRrw6fvH+JSYgo+vH0yYMl2c05/U8ZPEpHP71s0iLvSnLwkH1NM4CZWBJp3kYFlZVgrXCq/A1NvniZ1c5FNnmc/ScTvaUDuTOY4iNOMKiJ5APib0IRvsxNRxVldJbG1fYf5lwY5kio5PEhPxw9/s1hTREfhTI67m5Rh9LOLQpIwUDdm+qLgEuHzxjNFxllYpYvDpvQx7vtgGyeMmwpJV6yAQV3RIyTv67R6ZrHkkRqQM5lw8K/KSEjN2whRUZPaKa5InJ+ucUT7lvSmDVjrlUet/rfaR4lyN5ojScZhMcZTmPFrpdH8XXFFrR8XbPDjC+Bju/lEyI2WVWHJgAkyACdg7Af6fyt57iOXrFwGaENGHzJMo0KSPzHrMA+WR4cKZ4+KUbJrph5wmTuWl+2UyVJZfh4jIGOO18qQb6F/fwtkTh/pWoB+5bW1fFbZZhjpc2fHCVR09wRH4UzukuR2dm7eP2hpJJk9P/ISSwRdN18gMTgbaACBz56dw9/ceE+OFFNm+hLzsCzAFVyimofM9TdjJNIlM4WTw8fVHhbXHn6i6stxkcqmVTvWo9b9W+0i+xag0/fgXv8cVsmLh96Qcs1rpsh2Wjo4wPoa7fyxx4zgmwASYgL0TYMXC3nuI5RsyAlfzLuMT7Msm9+ursmBSWONiw6PPgrOL6YpFXU21sGPXKNqv5KFuX1+FtEf5WltaoP6mwWGWjjdv+enItpn3n4zXc3zoyefF6lbBlWzoQh8eMqkzD1rjTytdWZ8lvmrtO4jmgQ31dZCOztcxuFo1buJU4bckVzC00unenegX4unlrRSj3+eW5O9L+/t6Y3voHymzB77PQq+JnSzDRybABJjAcBBgxWI4qPM9HYJAc1MDkAOnDP6BQeisPXDb1Hp4eQnHa1k/Hd3c9ZlCKcv0d2ujwW6fqYx9vxpu+drbWsUq15ef/UsIL31zZEv80P/hjuX3QCEqo0FoCrX8nvvhr//39zJZ9ZiCJlQh6Jez7YO/CD8dyvzoMy+iouliLEfmdLTrlwy+fgHQ3NwzPrTSZTlrR632UbmzJw6LD63ibXzqBWEeKBULPen1uJkArfoMRhjM8WEP/SOZkTknObvTihoHJsAEmIC9E2DFwt57iOUbNgJkY027P5GjLj11jYpNRNOXTwZMnvc2vWpzXRXo20F+GuRHUlVRJnaUoifgesJgt0+PDGp5hls+YksvdSPFob29Db77wBPCj+ajf7wpxF625j6gJ8m7/+dfEI4mcvfc/zju1LUSDnz9hVqzRFoFOt9TnUnosE27QaVOmCx8JmjnJRmuFVwR8em4SxkpGOGR0SKv3nSZz9pRq32P/ejnwvTq6x0fi12ryAdJ7qxGdWqlU54ibEMG+h2Rc7vSjIrSbA2DOT7soX8kn2mz5otd6eRudTKej0yACTABeyTAioU99grLNOAEuhW263orJydab5xMLbt7gzBTuXzhNJxFZ1tl6O66ZYwxmDYZyhuandPORNm45ekcdOJ2d/fALUHzoOBPfzDLZflST/uUJbtFG/vXUEfgb94+cvgnZWLDY88KM5TrxUVGJ/m09Azh6H9w707xJml6m3R6xnThTE87cyl9G5QM5TltC3zi0D6xC1TGjLliC1eDUtHDl7YZpZdErnvoSXxaXQ2l1wqh2yCkqEYrXd7L2lGtfVTmYOZOWLpqPZBJEN4YytHf44jCcV8rneo4c/yg2GmNfDVampuEMzzFmwd7Gx/20D/EiHb+mj57IX7HT6O/V7E5Nr5mAkyACdgdAaf09PSeXzIUz9fXFxoaBs7co68t5vuPbv56x8vk22aJl0ZZyv/+O29oTuwslbMWRyYwHfh0Wem4ay2vI8b3p332zn8g5aPVglY0S6KJsd6g9/5k+kT105ai1kJQSJhN6dbqlfFa7aMdr+jdLzTZthS00ul9Mvc+8rTY+GA3mpUd2a9/5yxL9zOPG8zxO5z9c9eGR1HxnAtXss/j+03eMb7fxLz9fM0EmAATsCcCLuHh4S8rBaIXhrUpdj5Rpg3FOd9/dPNXjrHAQB944IE5UFBQBS0t7aC8bm5uw8l+E4wJ64IzJ89CwZUcuFFxTVxnX7yMynGjSX7z8n25zs0pxX3kW/pcn7It9nxOSpN8aaBeOenJOTkz0wqJ+acUd9+iOgcqDLd8tD1xXx1n9fKhfFoKi63pWv2g1T66PylW1oJWOm2hfPLwN2LVpf5mHdyoLLNWVb/iB3N8DGf/kOnZsYN7Yf9X24UpVL/gcCEmwASYwBAT4BULM+C8YjK8KyayOxISwmDRogmwd2+WQx7/9rdvZFP4yASYABNgAkyACTCBUUGAFQuzbmbFwj4Ui8cf/w5s23YCamsNKw9r1053qGuSmwMTYAJMgAkwASbABEYTAVYszHqbFQv7UCzMuoUvmQATYAJMgAkwASbABOycgOnbuexcWBaPCTABJsAEmAATYAJMgAkwAfskwIqFffYLS8UEmAATYAJMgAkwASbABByKACsWDtVdLCwTYAJMgAkwASbABJgAE7BPAqxY2Ge/sFRMgAkwASbABJgAE2ACTMChCLBi4VDdxcIyASbABJgAE2ACTIAJMAH7JMCKhX32C0vFBJgAE7ArAoFBITAmKtauZBpMYeKT08Ddw3Mwb8F1MwEmwARGHAHXEdcibhATYAJMgAkMGAE3d3dYc+8jkDYxA77dswPKSq8NWN32XNH02d+BxJRxcPLIfsjc9ak9i8qyMQEmwATshgArFnbTFSyIksDcRStg8cq1yijj+ea3X4eC3EvGa7WTiVNvh6kz58Pmt15TyzZsafYuH4FZtX4jjJ80Dbx9fAWnV379PDQ3NgwbM3njn770Klw4fQx2f/6RjLLr44M/eA5c3dzg3TdfsSinVrrFQkMQuXr9w5Cclg5ffbYFThzeZ3JHexq/Wvy00k0ahhefb3kP5t6xHOYuWg6trc1wKPNL8yx8zQSYABNgAmYEWLEwA8KX9kHg8oUzUFNVIYRZsno91NyohJOHvxHXFWUluoUMCAyG+KRU3fmHOqO9yxeXmAK3zVoAh/Z9CaVFBQJPa0vzUGOyeD8nZ7TkdLKYZJeRTk7qwmqlD0ejxk2aCqQ8fPLhX1GJO9pLBHsav1r8tNLNG9fW2iJWKlxd3WDhnXfD+VNHob6u1jwbXzMBJsAEmICCACsWChh8aj8EqiquA30ozF+6GprwCXnWuZO6BZy1YAnMW7wKXF1dwdnZBX72mzdE2Zt1NfDO678V5yFhEbBy3UMQHZsAnZ0dkHc5C59SvgvtbW267uPj598rX1dXl66n+XrkW7fxh+COZijePn4QgbbttdWVsGPr+3A1P0eX/M+8+Du4XnwVomLiISA4VCgGWza/BY31N3vJbR7h4ekFwaHhMCY6XiQVF+ZBXW21OO/q7BRHW+Qbmz4FVq19EJqaGsHPPxByss7ChMm3wamj38Luz/SvQASHhMOz2E5L7fP1D4B7vvc4RMclQUdHO/bvBfj0n38Tso+JjoMHvv9vcOn8Kdj5yYci7oEn/g0CgkLhL2/8TuQXkSp/yOdg2V33QWxiKpC5UFF+Lmzd/DbQhJRCbEIKrL73YQgKCYWykiKss8OkNq10Lb5q7aMbRUTFwKIVa1GOZKBJdfHVfPhi2wdCSdeTTnniE8eK8WKuVOgZv7Z+v4abL7WfAq3SzF64DM2ixsO5k4cNkfyXCTABJsAELBJg522LWDjS0QmUXy8Rk4BrOCGmQBMC+mSdPWFs2u3zFgulgsxp8nOzIT1jBkzMuN2YrnXy3K/+CC/8+jWTz6NP/7tWMZGuRz4PT09IHT8ZamtuoBnGLvD29oWZqDDJoCW/l7ePMGHKy8mC89j2WFx9mDxtliyuepw0bSb84LlfwfJ7vify3ffoM+Ka4rxumUTZIp+riyv4BQQJU6aO9nYIDR8DF7FvJt82W1Uu88TEseMh99J5OHPsQK/2rV63ESJRqTp24Gu4hEppOvbtohXfFVXQRD/30jlhJheFiuWU6XMgZdwkOIX29KSE6AlL1twLCanj4TQqQ+dPHoHksRMgY/0rH4MAAEAASURBVMYcY9EZc+8A/4BAOHFwHyqFN3DlbCwusPSsWmila/FVax8JMWfhnYLJ8YOZcGT/V0DtnL9klVE+rXTKGBoRCTWo0JoHPeNXa3ya12l+Pdx8pTy0WkoPNkaT47psOx+ZABNgAn0lwCsWfSXG+R2CAPlg0IdspBNTx1l8Cp46fpKYlG7fulm0KfSnLwkH1dM4SdUTtqMNtjOZ4yhCMz6B1xP0yEf1NODqwsf4FJyCj68fTJgyXZzTHz3yF+Zfhl2f/lOUiY5PApqIH/5mt7EOayf5qIx8/P47EBYRBQtwxYjqaGyoF9mVplC2ykeTfnKQrSwrhWuFV2Dq7fPETjzyqb81+WT81bwco49FHJq8KdsXFZcAly+eMTre0ipFDD69l2HPF9sgedxEWLJqHQTiig4poUe/3SOTNY/EiJTVnItnRV5SYsZOmIKKzF5xTfLkZJ0zyqe8N2XQSqc8any12keKWzWaE0rHYzLlUZoDaaXT/V1wxa8dFT/zoGf86hmf5vUqr4ebr1IWUjaJBQcmwASYABNQJ8D/U6rz4dQRTIAmVuWl+40trCy/DhGRMcZrrZOzJw5pZbE5nSaGMlw4c1ycks03TXT0yF+FbZKhDlc+vHDVQ0+g+9KHzJMo0KSbzKrMg63yyfq6gf71PUhzOSpp3j5qaySZPD3xE1GxL5quKc3cyAE9c+encPf3HhM8SZHqS8jLvgBTcIViGm4OQBN2Mk0iUzgZfHz9UWHq8Qeqriw3mZxqpVM9any12kfyLUal6ce/+D2UXy8G8ltSjlmtdNmO/h71jE+1uoebr5psnMYEmAATYAKWCbBiYZkLx44SAv2ZzEo0Gx59FpxdTFcs6mqqhR27zDOQx6t5l4E+ymCL/Mp6BuLcHuVrbWmB+psGh1s63rzlJyLba95/Ml7P8aEnnxerKwVXsqELfXTIpMs8aPWPVrqyPkt81dp3EM3nGurrIB2dr2NwtWrcxKnCb0auYGil07070S/E08tbKUafzvvSPvOK7YGvlMkD32eh10ROluEjE2ACTGA0EmDFYjT2+qhrc49du7LpzU0NQA6iMvgHBqEzsf5tVD28vIRjuCxPRzd3faZQyjL93drIVvlNZRj4q+GWr72tVayyfPnZv0TjpG+IbKkf+j/csfweKERlLQhNoZbfcz/89f/+XiarHlPQhCoE/UK2ffAX4SdCmR995kVUNF2M5cici3ZNksHXLwCam3vGh1a6LGftqNU+Knf2xGHxoVWujU+9IMznpGKhJ70eNzugVR/1MPDfL3vgK9tM5oC0mQGtiHFgAkyACTABdQKsWKjz4VQHJ1CBtvvkB0F+AlUVZWLHJnrCTIFsuGl3InLkpaeyUbGJaBrzie4Wv7fpVd15rWVUk89aGRlvq/yynsE6Drd8xJZe6kaKQ3t7G3z3gSeEH8dH/3hTNHnZmvuAnkTv/p9/QTiawN1z/+O4k9hKOPD1F5pIKnBzAKozCR22aTeo1AmThc8E7bwkw7WCKyI+HXfxIgUjPDJa5NWbLvNZO2q177Ef/VyYXn2942OxaxX56MidvahOrXTKU4RtyEC/F3JuV5pRURoFtfFrS//bA19DCwGmzZovdo2Tu7HJeD4yASbABJhAbwKsWPRmwjEjiADt/JONW4rOQSdud3cP3HIzDwr+9AfRQnKy9cbJ1rK7NwgzlssXTsNZdMYdyqAmn5YcfZW/W9il9M84pVvhO6All0zXI1931y15+ieWvJU4mrePHM5Jmdjw2LPCjOV6cZHRiT8tPUM4wh/cu1O8SZreJp2eMV04+9POYUrfBpOb3LqgbYtPHNondoHKmDFXbOFqUCp6GkLblNJLHtc99CQ+7a6G0muF0G0QUtSilW7pvso4tfZRvoOZO2HpqvVAJkV4YyhHf48jCsd9rXSq48zxg2InMvLVaGluEs7wFC+D2vjV0/+yHvOjPfAlmWjnrumzF+L/IafRH6vYXEy+ZgJMgAkwATMCTunp6T2/hJjo6+sLDQ36zUHM6rP5ku8/uvnrHUCTb5slXlplKf/777yhOTFUliMTmQ58+qx07FWm2/t5f+QfSH5afIZbPlotaEWzJJoY6w16+ZDpE9VPW5JaC0EhYTalW6tXxmu1j3a8oneP0GTdUtBKp/eZ3PvI02Jjg91oVnZkv/6ds+h+lvrfEfjeteFRVBznwpXs8/h+kneM7yexxJDjmAATYAJMwECAFQuzkcCKzfAqNsruCAz0gbVrp8O2bSegtrYRlNfunoHojDoRMjLi4MyZIrRdbwMvr//H3nuAV3Vded9LvfeCkARIgAAhumkGU40xNjh23OO4xXEyiZNJnDJ5Ms9knMnkTb55x0n8ZGa+OHEmmXFwki/BLe7GBWPTTe8CJISQhBrqvX77v8W5Orq6954j3Sskof/iuTrnnt1/+0jsddZa+wTr73/949+k9FJ5n/zO5e18N/flWjtPTkmTSVOmuRwWdp/CjknDKcPdv+FufzjZu2sbi2xsp4wtfL2V0cAXu33hHTJw6aKQAAmQAAnYI0DFwokTFYuRoVhkZCTJ2rUz5cMPTw7L8fe/3+50Z/ArCZAACZAACZAACZCAJwJULJzoULEYGYrFY4+tcmmpsGNpMFs2Bpsf5SgkQAIkQAIkQAIkQAL2CVCxcGJFxWJkKBZO08KvJEACJEACJEACJEACI5xA37d7jfDOsnskQAIkQAIkQAIkQAIkQAIjkwAVi5E5L+wVCZAACZAACZAACZAACYwqAlQsRtV0sbMkQAIkQAIkQAIkQAIkMDIJULEYmfPCXpEACZAACZAACZAACZDAqCJAxWJUTRc7SwIkQAIkQAIkQAIkQAIjkwAVi5E5L+wVCZAACZAACZAACZAACYwqAlQsRtV0sbMkQAIkQAIkQAIkQAIkMDIJBI7MbrFXJOAbAtmJ/rIuI0D+c3+7byr0US3L194iN956p8vaNv/mF3L+7CmXaa4ubrz7IcmevUDCIyJ18tM//JY0Nza4yjpirvlq/LPmL5b5S1bI5l//fMSMjR0hARIgARIggbFKgIrFWJ35MTLu+FA/mTdu5Bnmco8flurKcj0L6zbdLdWXK+TA7u36e3lpse3ZmZg5Va5bulJ2ffSulBSe1+VaW5ptlx+ujL4af0xsvEyanDVcw2C7JEACJEACJEACJgJULEwweDqyCDw8O1BC1R0aG+InWfH+UlzfLc8dapeShm7dUaR9cW6Q5CT5S2tHt+wr6ZI/n+zQaUvT/OVzMwMlOMBPApVe8cubgvX18qZu+cnOHuvF/1kVLO/md8onFzt12oOzAiUq2E+ePdiTbtX+j1YGy5mqLpmm+pYa6ScnK7vkVwfapbWnOl2nux+V5ZcEH8iKmzZJk7IwnDx6wF32ftdDQsMkPjFZUtIm6bSigjypranS512dPR2466G/k+DgYGXJiJJxqROkpqpC3nzxBbmQf0bnS0gaJ7fe9aCkTciQzs4Oycs9Ka9veV7a29pkWs5c2Xjn56WpqVGiomPlzMkjMnPOdXJw7yey9bW/9uvPQC94O/6lK9fJDTdulMDAQPH3D5Dv/ugZ3YW62mp57hf/ajm+gfaX+UmABEiABEiABKwJjLxHudZ9Zo4xQiAiyE+WpwdIaWO3/H9KYYgNFdkwJcAxeigC0xP85OXcDtle2CnrMgPkJvWBFCklZOv5Tjla3qW/4xyfjwt7vuNiTIhIeJBO1j9wHtGjf+jvVu1Hq7yrJgbIgUudWkGZm+wvC1Kuzq/U7AVL5EtP/kA23HG/7uu9jz6hv+Na2BWXqJDQUMnKniM11Zdl17Z3JDw8UpaoBbkhi2+4USsVxw/tk/yzpyVn3iKZNW+xTg4MUEpWTJwgraO9XRKTU+TEkf0y57rrjeLDeiy7VCxHD+yWi0qhguAcn5Oqj4Z4Gp+Rh0cSIAESIAESIAHfEaDFwncsWdMQELjc3C1/ONZjhYhWlos1k3oX7oif2HGxS95XCgMEVo2Z6tp76ntRXbf6dCrFRGTheH9585wNM4KL/ntqH9kPlXbJa2d76p6ZCLerANld3Ku8uKjSJ5fyz5yUl154TpLGpcpKZfF459U/S2NDva7b7ArVUF8nL23+jb4eERklM+cudLSflT1bzp46Jm+8uFlfS/z2UzJ91jw5tG+HI8++HR9I5tQZUlFaohbx52T+4hskOCRU2lpbHHmG4wQxKPgsX7NBMrNmuLSi2BnfcPSdbZIACZAACZDAtUqAisW1OrPXyLigIBiyt6RnAe/vJ9KlLve4SPnJVxb0mB0QT9GsXKJ8KZ7aRzuFdb1KBCwrUH6uhlSp+Ax84J4EwZP7S0UX+jWNPIYcP/ypPg0MDJKOjnZtkSgr+dhIloqySzJuvNLEXEi34N/oElhc7I5vdI2MvSUBEiABEiCBkUmAisXInBf2ygWBEuXe9IpyezJLkwqHgFUBgmOliqEYKnHV/lC1NRT1XsjLFXzMMnS0zK0M3/m1Pr7hI8uWSYAESIAESKA/ASoW/ZnwyighAOvEWRU8/cYVN6fg3vCLPiPwc2NEqG0VSQjrTUxU54aS0qeCa/RLc1ODxMYlOEYXHRungrUHvk1tZqyfdKsVfEHtcC3je+fQMRh14qvxmevkOQmQAAmQAAmQgHsCVCzcs2HKCCeQX90ty1Rw96nL3dLe2S3fWhwkxyq65PdHeq0aJQ1dojaGktWTAuSS2k2qsU3FXijLB2S/CrpG8PXRcn+1G1RPjMbbn46s910M5RQgTgO7P5UWF0poWLikTsiUbW+/MqAm4fr1wxXBclrtiPVvu68+u3IV++Hv76/jTCrLS/X7O86fO63H4IvxDQgGM5MACZAACZDAGCdAxWKM3wCjefjPq6Duv18YJP98Q5C0qfCL3Mtd8pcr280a4zpf0y0fqR2j7s8OlDAVinFM7RL1s709C2DsEJUa5S/fXBSktojtlm0XOuXIlV2kjPIDPg7TQ/vurt5YD7t93rfjQwlXAd3rb79P7/yUe/yQHFE7K5mlG8EsEDfjyla7csFeAHbDIWdPHZXTxw7KMhXEHRwcIkUX8uT8f/6b7oqd8Q1Hn9kmCZAACZAACVyrBPxycnL6LBkiIyOloWHg7hC+AsT2xzb/wdxH2Ca2Xa1r2we+ttbN4X0YKNs5yPKD6bNVmTnXLZXVN9/uMtsLzz2jA7ddJg7iIran7Whv0++vGGjxR+YEygL1AsJvf9DmU36+HL834xsoD+YnARIgARIggbFMgBaLsTz718jYEcDtjbT0ek55U41Py5YWX5Td27e6rLO5ucnl9cFebFYv5xusTFdb/H6itvz1tVLmy/F7M77BcmE5EiABEiABEhiLBKhYjMVZ55hHPIHy0mLBZ6TL/7Or3edb/GLMo2X8I31+2D8SIAESIAESuJoEqFhcTdpsiwSuMQL1KhieQgIkQAIkQAIkQAIg0PsaY/IgARIgARIgARIgARIgARIggUESoGIxSHAsRgIkQAIkQAIkQAIkQAIk0EtgxCkWw7kjFbCw/cEH8vbeVjwjARIgARIgARIgARIYawRGnGIx1iaA4yUBEiABEiABEiABEiCBa4EAFYtrYRY5BhIgARIgARIgARIgARIYZgJULIZ5Atg8CZAACZAACZAACZAACVwLBKhYXAuzyDGQAAmQAAmQAAmQAAmQwDAToGIxzBPA5kmABEiABEiABEiABEjgWiAwal+Q981FQTI/pVcv+s77bXK5mS/ruhZuSo6BBEiABEiABEiABEhg9BEYtYrFi6c75O08P0mP8pNH5gSK3+hjzx6TAAmQAAmQAAmQAAmQwDVDYEQrFqGqd1+cGyQ5Sf7S2tEt+0q65M8nOzT84npYJ/DptVo4z0p8qJ/ckx0gs1R5f6V5HK/ols3HO6Shrcey4al+o67klDR5+KvflYa6Wvn1z//FuMwjCZAACZAACZAACZAACZCAicCIViwenBUo0xP85OXcDokMErktK1AqlbvTe+c7TUNwf7phSoDMSfaXV850SmeXyGenB8jGqQHylyvKiZ36Q8PCJDwiUgIDAyU4JFTaWlvcN8gUEiABEiABEiABEiABEhijBEa0YpGd6C87LnbJ+1cUiax4f5mprtlVLJLC/eRiXbej/P5LSrswiZ36C8+fk+d/9bQ0NzdSqTCx4ykJkAAJkAAJkAAJkAAJmAmMaMUiNsRPsuL95CsLlLlCCVybmpVLlF2BIvHl+YHy09XBcq66Sz5VrlTHKnqVC7v1X8g/Y7dJ5iMBEiABEiABEiABEiCBMUlgRCsWmJGmdnHs9oRdnyqb7CsWO4s6pba1W1ZMCNBxGqsmBsjmYx3yfkGvK5U39Y/JO4aDJgESIAESIAESIAESIAEXBEa0YgHrxNmqLnnjXI8iEBzgYgRXLvm52RbquLJQ4IPg7W8tDpLFqf4OxcJu/YGBQdLRoTQcCgmQAAmQAAmQAAmQAAmQgEsCI1qxyK/ulmXpAXLqcre0d3ZrxQCuTL8/0rMzFEZUWNclrUrvWD85QIwYisLaLuUyJfKdJUESpDaNeuFEhwSrY5xypSpr7LV42Kk/eXyaPPLVf5DGhnr51b//s0uIvEgCJEACJEACJEACJEACY51AQHJy8r+YIQQHB0tbW5v50rCdn6nqloXjA+T2aQGyXLkzna/pluePdkh7b5iEdKjzFqVEwN3pZqVc4HhUbSsLtykoEQtTA+TOaYGyUrlBlSs3Krz/oqa1Z0h26o+JS5CF168SWEQO7P5YOjt7lZphA8OGSYAESIAESIAESIAESGCEEfDLycnpfYSvOhcZGSkNDQ0jqpvhKna7XVklzArFQDoYocp3qVHCiuFKrOqPjI6RdqVstbY0uyrOayRAAiRAAiRAAiRAAiQw5gmMaFcoY3YQYO2NNFqUt6ofL8ejkAAJkAAJkAAJkAAJkAAJuCfg/rXV7sswhQRIgARIgARIgARIgARIgAT6EKBi0QcHv5AACZAACZAACZAACZAACQyGABWLwVBjGRIgARIgARIgARIgARIggT4EqFj0wcEvJEACJEACJEACJEACJEACgyEw4hQL7EpFIQESIAESIAESIAESIAESGF0ERpxiMbrwsbckQAIkQAIkQAIkQAIkQAIgQMWC9wEJkAAJkAAJkAAJkAAJkIDXBKhYeI2QFZAACZAACZAACZAACZAACVCx4D1AAiRAAiRAAiRAAiRAAiTgNQEqFl4jHNkVLFiwQMaNG9evk4sXL5aUlJR+15EX141PTEyMBAQEyJo1a8TPz8+RPygoyHHOExIgARIgARIgARIgARIIJALPBDIyMmTSpEmyfft2yczMlIkTJ+pzz6VEUG7RokUus23dulVqa2vl1ltvlYiICJ2nra1NKioq5MCBA9La2iqJiYmyevVqOXjwoOTn5+s8s2fPlilTpsjbb7+t87is/MrFwMBArRCgv0VFRRISEiKdnZ36GrKMHz9eCgsL9XV8b29vx0FWrlwpVVVV+hxlLl++rPuE/kCx6O7u1orKkiVL5K233pKOjg6dlz9IgARIgARIgARIgATGNgEqFhbzHxcXp5UAZMN5TU2NRYme5NLSUvnoo4/0F1gN6urq5Ny5c/p7Y2OjPvr7+0teXp5e4GOb3ZkzZwosCZ988olUVlbKpUuX9DUoAKGhoZKVlSWnTp2yVCpQOZSQqVOn6nZWrVqlj2fPntV16C/qx4oVK4xTrSyhTSgOO3fulKSkJIFykpyc7MiDEyhC6OPp06epVPQhwy8kQAIkQAIkQAIkMLYJULFwM//h4eEya9YsvbBubm7Wi2ksspuamrSbEBQHT9LS0iL4QGANgBUCFglnQX1Y0OODNrOzsx2WgWPHjslNN90kM2bMECgeqO/MmTPOVbj8fujQIZ0frkwnT54UKDOwWBw+fFhbYKZNmybvvfden7JQdCDoB9INS4mRCcoGLBUlJSW2+2GU5ZEESIAESIAESIAESODaJkDFws38dnV1aSUCloLi4mKtHOAcbkVD5f4TGxsr9fX12mqAbsHKcf78eW1lQJzDvn37tHLgpsv9LqempmrLwtq1a+X999/Xyglco6BsBAcHa2XJKFReXq4tJ8Z3V8f4+HhtMYHlg0ICJEACJEACJEACJEACZgJULMw0TOewDsB1CdaCI0eOaFek6dOny9GjRwVKh69kwoQJeqEPpSI6OlpOnDjRp2pYGxDbAYUDLlF2BfXhA0sJYiNQNwSuXFA4Ll68qOs06oPlxJ1AGYGACVylED8CgZWloaFBn/MHCZAACZAACZAACZDA2CZAxcLD/OPJPhbOUCSwMIc7kS+VCjQNS0RYWJiuH3ELUCTMgrgOuCjBFQqfgSzkYfGYP3++bgMxF1BM8JkzZ452ZTJbXuDuZbhCmdvHORQRCJQguINBoYBbFZSRgfRHV8IfJEACJEACJEACJEAC1yQBbjfrZlqx+MauTog32LBhgyxcuFCfI+bBl1JQUKCDvLFAj4qK6ld1Tk6ODuKG5QHndgWWCcRQ4IMYDwRkI/A7ISFBWx4Q0H3jjTfKzTffLBs3buxTLQK0zUrHnj17dPqOHTukrKxMLly4oAPM4T5FIQESIAESIAESIAESIAEQoMXCzX2AxTOsBXD/wVN+uEHhCf1A3JHcVO3yMnaHgjJjtkrAQoA+ID4C273OnTtXx0xgq1orwY5OUFTwgVUEShK2j33nnXd0nAgsL7iO7WWdFQRYajBuVwIu2J0KsR8UEiABEiABEiABEiABEjAI0GJhkHA6YvGOhTe2fMXHOLfaDcqpGttfsVCHexF2Y4IgLgIWCgSOV1dX621p4a6ELWntCMpCacCWs6gLY4DVAgHYmzZt0vVA2YBlwojrgLLx+uuv69gMtAHXKLxXwyzoD5QfVy/XM+fjOQmQAAmQAAmQAAmQwNgiQMXCw3zjab9hHTCfeyjiNglBz54E7kqwhuBlfHirNQKksYA3Yi6w6EcMRnp6umPh76k+BJn/7W9/kw8//FArD9jNCgHgePkdgtEnT56sYyawdaxZoDDAXQr5YUExXoyHPCiDd18cP35cW0CwSxaFBEiABEiABEiABEiABEDATz3Z7rPiNbviDAei4W5/OMY81G3efvvt8sEHH/QJtIarFKwfcGvau3evViSw+xPcrRBLASsJFAm4gOHt37B+wOqB92jAdeqGG27QR7vv1RjqMbJ+EiABEiABEiABEiCB4SVAxWJ4+V+V1sePH6+Drl3taAVFDrEjSIOygTgM483g6BysEoi3gMUGFg9DYFWBlYVCAiRAAiRAAiRAAiRAAiDA4O0xcB/A0uBOzNvFIt7CvBsUyhhB3GalAtepVIAChQRIgARIgARIgARIwCDAGAuDBI8kQAIkQAIkQAIkQAIkQAKDJkDFYtDoWJAESIAESIAESIAESIAESMAgQMXCIMEjCZAACZAACZAACZAACZDAoAkwxmLQ6FhwKAlMz4oZyuol96z1SwaHtAOsnARIgARIgARIgASuMQK0WFxjE8rhkAAJkAAJkAAJkAAJkMBwEKBiMRzU2SYJkAAJkAAJkAAJkAAJXGMEqFhcYxPK4ZAACZAACZAACZAACZDAcBCgYjEc1NkmCZDAiCMQG5cgKakTRly/hqpDk6ZMl+CQ0KGqnvWSAAmQAAmMQQIM3rYx6UtX3iRR0bHy3htbbORmFhIgAV8SGOrfv6DgYLntnkdk+qx58sn7b0ppyUVfdn/E1rXw+lWSOXWGHNjzsWx759UR2092jARIgARIYPQQoMXCxlwtWr5GFq+4USKjB7dT0ca7H5Lv/ugZeepnv9WfsIhIG61enSyz5i+Wh77ynavT2CBamTh1vqze9JVBlBwZRbzl6235kUHBfS/sjM/b3z/3rfekbLr7YZkyPUfee22L7PjgrT7Z7fSvT4EBfPn2Uz+T9bfdO4ASA8tqVf/rW/6glYrlazfIsjU3D6xy5iYBEiABEiABFwRosXABxfnS5t/8QrkMhEhD3cC3KJ2YOVWuW7pSdn30rpQUntdVt7Y0OzcxbN9jYuNl0uSsYWvfquHwyFhJHj/ZKtuITfeWr7flRyyYKx2zMz5vfv+sxj9j9nyB8vDKn34nxw/t7ZfdTv/6FbJ5wc9fPdfxs5l5ENms6m9rbdGWisDAIFl98+1y7OBeqa+tGURLLEICJEACJEACPQSoWHi4E+55+CsCP2RIY0O9PPv0U31yP/G9H8uloguSmj5JYuITteKwZfOvpbG+TkJCwyQ+MVlS0ibpMkUFeVJbU6XPuzo79TEhaZzceteDkjYhQzo7OyQv96S8vuV5aW9r69OOuy8RUdH9krq6uqS5saHfdecLS1eukxtu3CiBgYHi7x+gLSrIU1dbLc/94l919rse+jsJVm4i4RFRMk75ntdUVcibL74gF/LP6HSr/nvioyvw8GPanJUyc/6NEhAQKFgg3fHIj3Tu5sZaeffFX+jzZesekoCgYAkNjZDYhFSl+FXJ/k9elIpL+RKXmCYrbvmiFOUfk4M7X9H5V97yuERExcnWl57x0HJvUqqal8/c96iax3FSptxjmhrrpauzS/7yv/+vzgQL1h33PyZpEydLR0e7mr/j8uqff6/T7PDtban/mZ3yVvODmIH1n7lXJmRmCdx9CvPPyoubfyNYUEKs5mdcarqsveVOmZAxRfz8/KToQr689fIfpfpyhS5vVT/uD1jrcH93d3fr+wYL+JbmJrEzPqvfP1/cf5Myp+nfV2elwqp/KWkT5YEvfkNOHTsob7/yJ83jgce/ITFxifLbZ36s7wd90eJHfEKyfE39HXH++4FiVnyt5gd1eKof6ZD9uz+S61evV25R2XL0wO6ei/xJAiRAAiRAAoMgEJCcnPwv5nJYSLbZXNiay/nqfLjbN48jLDxCPcGrlgC1+I5VT/ZhdTDLyptu08GeJ48ekMqyEu2jDaWi6EKezF98g9z/ha/L1BmzdJGceYu05QLWi307t0lHe5t+SpiVPVs9Kd0n9coakjN3oVq8V0ppcaG5Gbfn3/vxL2X5GuXGsPpmx2da9hzZv+sjt2WMhKDgEN2Hjo4OrQAd2LNdyi4VScnFAik8f1Znm7/kBsmaMVsuKqXozInDyrIxTaJiYuXE4U91Op5yeuq/Jz5GP9wdU8ZFS6darHcphSsyJlHyTu6RmsuXpKriolSW9lh+MmcskdSJM9T3AikuOKEtG2ERMXIx77C0NNVLdFyyTJ6+SEqLciUlfZrMmLtaTh76QOe/XNXqrmnH9bW3flYmTJoiB3Zvl66uTsmevUAa6mvlyP5dOs+dD3xJ0iZNlk/VfGLe5ixcJkFBQXL+3Gm1kLfm62jIxYmd8lbzs+neRyRz2kw5qPpfVVmu76/GhjopvmI5s5qf9bfdo8tjfBcLzskMNX4os7nqXoBY1b9mwx36/j96YI+Uq9+P7DnXSWtLk76f7IzP6vfPF/cf4jfa21vl8L6dfWbBqn+4DxKTU2TuouVKoTwhkxVn/B7ClQqs7AjyJ45L0b//5aXFmq/x9wPlrfhazY9V/UYfoegtWr5WK1h5Z04Yl3kkARIgARIggQEToMXCAzIsKCE3qQVWYlKKy5wF+bnyzqt/1mlYZGZOy5bd27dK/pmT8tILz0nSuFRZedMmnQdWD4jhCoVF+dlTx+SNFzfr64nffkorJ4f27dDfrX68oXyk/eFOYZLmpkbTN/en58+eEnygmGRmzZCtr/3VZeYGpSi9pJ5yQyIio2SmUn4MsdN/d3yMOtwdy4rPCj4z5q2RcWlZcnj3ay6ztjTXy673e/iFhEXKxClzHfmO7n1LUibMkLlLNqoFcbxS/grkzLFPHOlWJxPVk/5zatG49fUeNunqyb1ZUidm6EW2EfiKp9hGHrt8zfWZz+2W9zQ/uAfxBPrMiSO66vHKsjZt5lzZt+NDR1Oe5icqJk4rJMb44CoDy4UhVvVPy5krZ04e1VYOlAkLC5d0pahB7IzP6vfPF/cfHhq0t7frPpl/2Onf+2+9LFPUg4N1G++SWGWxhAK+95P3zdVYnl/IO+O4vyYql0Tj7wcKWvG1mh/U4al+pBsCixtYUEiABEiABEjAGwL8n8QbeqpsZdklRw211ZclLLwnMBtPiPGZqZ7SQrDogNuUWbAwKCv52HGpQtU1bny647vVifHk3CqfN+kYgyHHr1gq4JONhYid/rvjY9Tp7bGhttJRBSwVELhPwbWstaVRjn/6tixefb/+vvv9Fxx57ZxAkTL3v6qiTPwDAhxFMdfj4RLz+Df1tUj1NN+uG5ujEi9PPM1P3unj6on6MlmwZIVWCOC6BVc5s5jHZ75/kQflb1SL5r//x59qa1bu8cMOa42R7qn+iMhoKVdWMEPghuVLGe77Dy6H295+VW6//wv69wEPEgYqleWu/36gHqv5s5of1OGpfqRTSIAESIAESMCXBKhY+JLmIOrqHkQZo8h9j35NLXT7Wixqq6scT4iNfL46XsjLVU9Ac/tU503/+1Tkgy/lJXmCj1n8/HoVAfN1O+ddKi4gSMVwGBKo3JycF+atLS3Kja0n4BXHuitxNEaZq3l0np8Hv/wt/Z4CuGbBpazDxZN5T/3bue0d7fqVo4Kb05U1bsas+dptzrBg2Kl/qO8Pb+vvVK6AocqSMlhx/v0bbD2uylnxtZofV3W6uxai3meBhwUUEiABEiABEvCGABULb+h5Wba5qUEHaBrVRMfGSZO6ZldCwsJ04LU5f1CwPVcoc5nBbk3jbf+NPsAFpLmxUSqUH75L6fW+cZns7iLiLWYv2qCVDbhCzV9+h7z/yn/0y+6u/fJLxYI0WClgvYB1ovhigaN8e1urtkK9+9pf9DX32wgPcgCOlgZeHrE9CSoG4OU//lb78KOqR5/4Xh+Li6N6DydH9u9WVordKsg/SG9LDPcjKBZ26odbHgKQDUFMRLjaahkB4H1l4ONDeV/cf4ihwrx6Ftf9Q7wR4kgKlLIdp1yhNtzxOfndf/zUc1U2U+3wRVXu5sdmMzob3DWx2QQsVhQSIAESIAES8IYAFQsP9BBsCp/yaOWyhMWlEV8AlyZjZxwPxS2T4EMNP3QEa+OpaeqETOVa8YplOSPDH579mXE66GN5aYmO00AcSGV5qd5RCk+47Yi3/UcbqWrHICx4sQh95l//od9T07qqUjUH/pJz3U3KGlAubcq9qazYXnDsvOtvk0AVRH1o19/UrlHjZcmaz0m22mnqlArgNsRT++dOH1O7In1WvvlP/yZ4ott5ZTcvoyzY4aVqWFi2q2D8zz7wuA7c/ev//srIIt7wRSWDLQ+lCH1CUDF2g8qaOUcrSdjZya584evf1373H7z5kt5VCsqVsbOZnfoR1Dw9Z57eEAA7e2GnJef4IU/js/r988X9V3j+nMxTGy3MVYH3rlwLPfUP76DAfbH1b39RGwekyx2fe0zttHZrv3dh2OVtzmeHr6f5Mddldb5g6QrtKmjs9maVn+kkQAIkQAIk4I4AFQt3ZNT1Oz//uPbXN7LcrbZfhbypgq0PXNly00jDUXnO4Cd+9JNuJ992ZEAQbbharK2//T7tppJ7/JAcucrbPZ49dVROqy0zl6kg7mC1CMeOVuf/89/69d/VhYH23xUfuBZhZyp3bjolhaek6PwxtaPTGglUbkmVZReUYvGfrrrT51paRo5aSM+Vk4c/VLtJlejPhCnzJFsFg1/MRzBzzztJPLWPHX6wgxJ2g8JuWbMXLNFb3xoNIWgfysR9X/iaVoguFRX2C4L3hi/aGWx5bBu8f9dHMk/FWMxTOxdBEe5RKlzfn2jLeX52bntbbtp4t8AlB4llaueiPWpjAoid+j/d+aF6Y32M3HLnA9Ld1a13G9v7cd/gZk/js/r988X9d/jTnbJEKTyIJcHuSMaOV3qQ6oe7/kFhwoOGnR++rd/Ujbd158xbqDdDOHlkv46vMuqwezTzt8PX0/y4atNcv5GOlw8uvH61+htwSMV7FRmXeSQBEiABEiCBQRHwy8nJ6bPSiIyMlIYG++44g2rVQ6Hhbt9D14YsCS402H72agf++mpA3vYfQcUYu7FbFvo1PSvGV91zWU/u2R7FAomu2ncuFKyeTH/pyR8oC0KxbHn+2T7JeIlaq3o3BBamdmXOdUv1dsOu8r/w3DODWpi6qguWNvTPGwsbdjzCu1ew2HUWO/VDecZ7LOy8X8W5fjvfvb3/8L6Zex75qt44Yatya9vjpPzY6YNzHl/Nrx2+nubHuV/m73hHC5ROWOZe3Pyc4/0m5jw8JwESIAESIIGBEKBiMRBazHvVCFxNxcLToJ78539XVqsAbc1BLAp2NsJTbG8lOSVNvXxxmstqsPvWUC3CXTbIi5oAFtlwyXO2WgwGz2iYX+wWVqPiKuBSRiEBEiABEiABXxCgYuELiqzD5wRGimJx/ar1Os4G1pSTymWMC36fTzUrJAESIAESIAESuEYIMMbiGplIDmNoCOBlhxQSIAESIAESIAESIAFrAn1fgmCdnzlIgARIgARIgARIgARIgARIoB8BKhb9kPACCZAACZAACZAACZAACZDAQAnQFWqgxJj/qhAw79p0VRpkIyRAAiRAAiRAAiRAAl4RoMXCK3wsTAIkQAIkQAIkQAIkQAIkAAJULHgfkAAJkAAJkAAJkAAJkAAJeE2AioXXCFkBCZAACZAACZAACZAACZAAFQveAw4CwcHBEh4e7vjOE98SGGl8o6Ojxd/f/Z8Aq3Tf0mFtJEACJEACJEACo52A+1XFaB/ZNdT/iRMnyvTp04dsRH5+fjJ//nzZuHGjjBs3zmU7kydPlilTprhM40XPBKz4DvX8uusd5vPWW2+VqVOnusxile6yEC+SAAmQAAmQAAmMWQLcFcpi6jMyMmTSpEmyfft2yczMFCwCcX41JTs7WyIjIyUvL086OjoG1HRycrJeOO7atcttublz50p6errs27dPiouLXeabNWuWfgM1+jBSZenSpRIQECA7d+4cUV204uvN/GKgmBvcm6GhoXrcL7/8snR2dloyOHLkiNTX1wv6197eLhcuXOhTxiq9T2Z+IQESIAESIAESGPMEqFhY3AJxcXFSW1urc+G8pqbGooTvk7dt26YXzANVKtATuDaNHz/ebacSExO14vHxxx9LeXm523xbt/IN1G7heEiww9eb+Y2KihIoJkePHpWqqirdEztKBTJ2dXXJuXPn9L113XXXSUlJiVYwjOFYpRv5eCQBEiABEiABEiABEKBi4eY+wIIcT4LxxL+5uVkWL16sz5uamiQlJUVKS0vdlOy9vG7dOqmsrJSEhASJiYnRC/e9e/c6Fm8LFiyQwMBACQsL03nq6uq01QBHCBZ7qamp+hx9eP/99/W58cOoPykpSbDAhGKwZ88ebdWAZQVPovEEH370t912my7W0NAgWMgagoUvxuRKqVi/fr2EhIQYWfVYdu/e7fgORrNnz9buU3D3KSsrk0OHDklra6vOg7IYA/qHRWpRUZEcPnxYuru7dbqn/jsa8XCCMS9ZskQQC1BRUaHbMGdH/8+ePSvnz5/Xl+HuhT6BUXx8vMDC0dLSopWvwsJC/dQ/NzdXTp8+rfMb/XM3f1bjRyWe+Hozv5hT3DexsbG6r7jPMBazWPE38hYUFMicOXM0E8yhs1ilO+fndxIgARIgARIggbFJgDEWbuYdC2EsuOFegifB5nO7lgOURWzCpUuX9AIXCglcjgxBMC/crOCOgifOyD9t2jQjWSsvWBhXV1c73FwcieoE+eECA/cl5EP9hiICKwuuGQoQzvHBItEsWJiifVeSn5+vy6Acxm9WMpAffUWbJ0+elOPHj2sFwhwLAh99KGZwn0If8R35DfHUfyOPpyNiAyIiInT7UJhgmYGCYwjqDwoKMr7qczCHQOFCWYwRT/ih+OE8KyvLkR/lPc2f1fhRkSe+mBuwHcz8YqyIj4ByBFm7dq3+jmsYG8SKv86kfkARhFICi5wrsUp3VYbXSIAESIAESIAExh4BWizczDkWWnATmTFjhsDXHItMLJqhAEDpsCtwL8HCG4Kn11hYG0/QcQ0L9oMHD+JUL9yxkDXEiHdAu8aTaSPNOEJpMerHIh6KBZ6+Q7HABzEiaWlpjqfwRjnjiEWoO0UJ4zcEMR74mAULc7iGGflgkTDLhAkTtN8+lA4IFu+4hj4b4q7/RrqnI1giLsCwMLgLPPdUB8pjkY7F/eXLl/V8wxpgzLGn+bMaP9r1xNeb+YWF4qOPPtJMYYmBJcmwFBmuUHb4G2xwD3jaIcoq3aiHRxIgARIgARIggbFLgBYLD3OPhTCehGORCXebxsZGx4LTQ7E+SeaYDCz04T5jFlwz5OLFi/qpufmpu5Hm7miuH5YH44m8u/y+vI6FMZSZm2++WRYuXKifeBuLW7QDRQQLdkPQV7gvmcWb/oOluTzODTcrcxtW50YZ42jOb67fef6sxm+uZ7Dn5vbN8wvOcP8y7h9wxnd8DLHD38jLIwmQAAmQAAmQAAl4S4AWCzcE4XOOOAUs1Dds2KBjIXB+0003yXvvveemlOfLrhau5hKIrThx4oT50pCf4+m2s4uT3UbhVgXLDqwisBbALQsxFoYFw249oyWf8/zZGb83fK8mF9zbhqXDVbtW6a7K8BoJkAAJkAAJkMDYIkDFws18w0UGPudYOMO1CO5IcFvC+UDEbKHAeVtb20CKD3lejAkuWoMVxAngAyvLDTfcoF2dDMUC7MzuU3AdwrWBCqxF4OZcFlukok5DwNdsMUF+Z/4Igh+IOJd3nj9P40c73vIdSF+d89rlDzc/KA6wyLkSq3RXZXiNBEiABEiABEhg7BGgK5SbOYeLCfzjEQOAj3GOheRABH7uiAVAnAPchgZSHgt+7KiExTP833GOz0AsDLCCoCxiN1AW7l1mgesMdhcyB1Wb0z2dr1ixQlatWqXrhBKGeswLe8RcwOqDuA9YNTB+5zgMT/UjDWOHqxUsRc4uYpgX1I96EQSP3ZvMeeCqhGB5jA3p4Al3s4GIp/mzGj/a8cTXF/PraSx2+cPSBHc/Y7ta5zqt0p3z8zsJkAAJkAAJkMDYJECLhYd5RzyA4cNuPvdQpF8Stu9ctGiRVgawEB7IwhaLdnNA7erVq3X9eAEcgopdibO7DhaLCBaHaxd2SIJi88knnziKok8IWsbWp9iGFeeuBGWNgGYjHW5bKIdFPwRlT506ZSRrlygoG9gSFm426IeVYuHcf3xHWVduOrCMwCICTog/wJa55vJoD/O2bNkyHaCOXZ8w3oGIp/mzGj/a8cTXF/NrjMU8buMa+Fjxh+KF92CAFawrzmKV7pyf30mABEiABEiABMYuAb+cnJyelwpcYYCFGgKWh0uGu31fjnvTpk16cY1di2BlMD/N92U73taFvi1fvlw/8cd7NpzdvbAjFZQaLKSxPaqzwI0GC1u4JrkSWHuglLha/LrK73wN7/pAeWfFxshnxdaqvFGP89Hu/FmN34qvc7u+/u6OP5RNuPhhvj/99NN+fK3Sfd1P1kcCJEACJEACJDC6CdBicZXmb6QqFRg++vbhhx9qlyFDOUBcw8qVK7XFBAtjWCMKnN6BYaBzjjswrhtHV9YGI83O0d12uEZZK7ZW5Y16PB09tWE1fld8PbXl6zR3/LFlLZQK885T5rat0s15eU4CJEACJEACJEACtFgM4T0ANxK46BjuVEPYlM+rhuuT8bI9KBXDacXy+eBsVjia58/mEJmNBEiABEiABEiABHxGgIqFz1CyIhIgARIgARIgARIgARIYuwS4K9TYnXuOnARIgARIgARIgARIgAR8RoCKhc9QsiISIAESIAESIAESIAESGLsEqFiM3bnnyEmABEiABEiABEiABEjAZwSoWPgMJSsiARIgARIgARIgARIggbFLgIrF2J17jpwESIAESIAESIAESIAEfEaAioXPULIiEiABEiABEiABEiABEhi7BPiCvLE796Ni5AlJ4yRpXKruK968febkkVHR79HQydCwcMmYMt3R1aLCfGmoq3V8xwn598Hh0y9DzX+o6/cpjDFYGefH86Tb4eO5BqaSAAkMBwEqFsNBfZS1uXTlTRIVHSvvvbHlqvd83qLlsnztLdLc1Cht6g3hVCx8NwVxCUly272PiJ+/v4SGhsmW55+VU8cO9mmA/Pvg8OkXX/EPDo+Wrs526Wht7tM/X9Xfp1J+8RkBzo9nlHb4eK6BqSRAAsNBgIrFEFF/+Kvf7fM0+LlnfiylxYVD1NrQVrto+RqJjo2X3R9v7fdE207LG+9+SLJnL5DwiEid/ekffkuaGxvsFNV5Wpqb5OmnnnSbf/HtM6SysFbyD11ym2ckJMxYPlECAv3kxPYLtrsTkxwhadMT5OQng7933PG5VHRBc02dkCGPf/Of3PZpJPP3BR+3A7eRYKf9oeIfmZQu09c/JOFx43RPa4vPyal3/kfamxv192thfm1MgVdZ7MyfVw2owkM1/0a/3NVvpA/mOHPlJEmaGOMouuflU9La1O747ssTd/23e//6si+siwRIwHsCVCy8Z+iyho/fe13279wmSSlpsmr9beLn5+cy32i4uPk3v5DgkJBBKRUTM6fKdUtXyq6P3pWSwvN6uK0tfZ+sesvAb5RECg3mDggJD5LECb3/wQ+G1VDzGer6PY3ZF3w81W+VZqf9oeIzcdF66e7skKOv/JcEhUbI1NX3yPic5VK4f6tVtweUPlT9H1Anhiiznfnztumh5jcU9RccLpWikxUSHhsq05eme4vAY/mh6L/HBplIAiQwpASoWLjBO3vBErn59vu1e8iF/DM6FxbIazbcIf/9y59ITfVliY1LkPWfuVcmZGZJUHCwFOaflRc3/0a57LRIwblcXWamm/px+evf/4kc/nSn7PjgLZ3rzs9/SULDw+VPv/2l/h4ZHSN33P+YpE2cLB0d7ZKXe1xe/fPvdZqdHxFR0f2yIU7BrrXgnoe/IpOu+OA3NtTLs08/1ae+J773Y8FTpdT0SRITn6gVhy2bfy2N9XUSolxr4hOTJSVtki5TVJAntTVV+ryrs1Mf4b9/610PSpp6Yt6pFkh5uSfl9S3PS3tbW592rL50dXSp8l39sk1dmCoBQf4SHBYkserJf2NNi5zaeVGa61t13sCgAMmcnyIJadE63+WiOsndXSTd3d2SOS9F/AP9JW9/icxemymN1S3aIjJrdYaU5ldrC0m/Bp0uhEYGS/YNEyVC/edcU9ag3FW6++Tw1H6ielqo+6/64OfvJ0vvzNZlm+vb5Mh7efrcU3lzQ+74mPN4c+6u/qCQAMlaki5x45WlSg298mKtnN1bLF1dPRx0+uI0lR6l2HRJeUGN5B8s1fzRnwW3TJXaskaJGRcpETEhUnWpXk7tuKjz2uHjzfyjfU/9t9M+6oC449OTOrif/oFBEp+RI+c+2iKwVEBi0rMkMWuezxULd/3H/NSUYn4iJFLd49WlDWp+CqVT/T5CrO5Pb+YnMj5MZq6YKG3NHYLfszL1O5k6LUEuHCuXolMVuv0A9bszTS2K9f2l+lReUK1+h0t1mp3581QelVj1XzekfrjjZ6R7e3RVPywx+Ntz5L18x9+7+NQozWP/62eko73T4/w01fX8jfTUt+s2Zinlo1LKzlfrbFOuG69+ZwLl9K6L+rsVP6NuV/030ngkARIYfQSoWLiZs3O5J+S24BCZPmueGIrF1BmzpVG58ECpgKy77R7JyMrWlomw8AhZsGSFzFu0TPbt+NBNrX0vo0xISKjjYkhoqPJ1D3d833TXQzJeLdr37fhAkHe+qr+uplo+fPsVRx5PJ0/+4N8lICCgT5aK0hJ59mc/7HPN3Zf8s6e0MgBXmcSklH7Z0Ce4OB3c+4kEBQXJvMU3yJwFS2X39q0CxezWOz/vKHPvo084zg1XqMU33KiViuOH9kmICiTOmbdIzqs2D+3b4chr56StpVP5l3f0yxoYHCDjJsdJ8elKrQhMmjNO0rMT5ey+Yp03Y54KDFcL+IIjZeqJb4AgvUK5VEHBaFf1JST1WApi1cIWi3tIVEK4FJ7oWbjoCx5+wIUpLCpY1V8qIeHBkj4jUSqLeoOjPbXfVNuiFkiVEhkfKuMy4/Q5mmpv6R2np/LmbrnjY87jzbm7+sdnJUhcSqRcVLxgsZs4K1mqLzVoBQLt6XSlVBSp+QlSc5Wm+FSV1Os8SA8ODZLxerFYJlUB/jJp9jhJSK+Rigu1YoePN/Pv6J+b/ttpH3VA3PHpSR3cT3//AHVPBqiFdYMEhUVKZ3ubdKhzKBy+Fnf9x/ykzehZzFcrpQ/zC+uasdC0uj+9mR9/9fsYFhWif3fxexsRFyrFuZX699tQLKaoBwv43T2vnr5DScT909LQLiVnL9u6fzyVB2Or/hvz4I6fke7t0VX99ZebdP8S0qMdihbmBu5MUCogVvNj1S/Mf0Bwr7kYPKBYGGLFz8jnqv9GGo8kQAKjj0DvX4HR1/ch7TGe6mOXHPOuORMypsiJI/sd7eafOSlHD+yWMyd6diqCEjBt5lzbioWjIjcnqRMzJPfEYdn2zqs6R0raRElXfbArb2z5g/irwFyzIAjarhzYvV1nvUkpUK4UCyQW5OfKO6/+WedLmzRZMqdla8UCbF564Tm9o9PKmzbpPLB6QAxXqKzs2XL21DF548XN+nrit5/SitxAFQvjCb6uxOlHS2ObnFNWB0hwWKB6qtmrWFQV10tpXrU0VPW4ZuEpX3JGrFYs8MQuLTJIL0hg4QiNCFbxEbB+BEpzXYtTK66/whKC+qEgQOJSe2JMjNwe269tVYufCt2f5EmxjsWBURZHT+XN+TzxMecb7Lm7+lOUUofxFx4v11VDeQNjWCYgYI30C0fL9PfIuDBJUmOF8mEIYmegmEBg+QDTHsXCmg/KDHb+UdZT/5tszA/qgLjj05Pq/c/5935HGi+XSEN5z5Ni72vsW4On/kMRN+YXcxufFuVQLOzcn97MD3qJewGL5/rLzVJX0aiVByixsDpCqS3Nq5JLSpGAxCRFSKy6h3oUC+v7x1N5XaH64an/Rh5P/Iw83hxd1Q/rKJT0hHSluF+x4GBuSs70sEB7dubHm37Z4Yf6XfXfm3ZZlgRIYHgJULHwwB+L4zU33y7YnSIxOUXCI6P0Qt8oknf6uMxVFgpYKvCfGVyX4GrkKwkLj5TxSpl44PFv6iojlWvTQNyEjuzf5auuuK2nsqw3YLpWWXLQZ0hVZbn+zJxznf5+UblCwW3KLFExcVJW8rHjUoWqa9z4dMd3X5zAhcmQcrUIgaipUgsPkVq1EIHFAi4UuAbloburxw2rua5NWRmCJDwmVLtQRSWESXh0iLZktLf2PPEz6nV3DFH1NVT3xpM0VrWoJ8qqoSviqX0jj6ejt+U91e2LNIy/vqrJUdW5T3sUPOMCnjgXnuhROnCtXil40Ym9FjtcazDNH5Q9PCUdiAx2/tGGVf8H0o+hzFtVcEKaayokMCRsKJtxWXeDuqcNwVxFK4ueIXbuT2/mx2gHbnaQK4eeL+onXCChTMxYNkFfC4kIUpYd+3+f7ZT31H9HR4bp5PLFOpm+LF1bLkLV2PH3DO6IhtiZHyPvYI52+A2mXpYhARIY2QSoWHiYn5PKOgHFAovjGBVPUVerfHSVsmHIg1/+lgpqDpXz504rv+8OZWL2/a4ZrS0tUl/X84QXx7orcQpGHzwd73v0a+KvXEjMUltdJW+9/EfzpWE9d14MDGVnmtXCFD7YhsxdN0X/p4un4vD7N8dptDQoBUN1LlY99cSCFq4UeNqJOgYkHgboqX07bXhb3k4bXufxMH5dd5/0Pl+8btq5goHMv6Ps0HbJ0Yw3J+e2v6iLT1q8wZtqvC/1L/b1AAA8yElEQVQLbd0kA70/BzU/pvZcnba3dWirAtJgXYAr1EBkIOWd+z+QdoYi7+XiOl0tYisQh4L+wdJmyEDnxyg3kONA+A2kXuYlARIYuQSoWHiYGzx1L7tUJBlTZ+j3OFzI6wniRpGpM2ZJgrJivPzH3wpiBCCPPvE9tZDvG9Ng/FfralcouCVFx8bpsviBd0U01Pc+UWpva9VP+d997S86T9iV7VodBSxOQsLClCtU3/4EBdt3hbKo3uvk5qYGHQBvVAQWTera1RAEVMMKcXirCiov72ESERvicB2DK0WzUi7ilTJRnHtZ+w7Hq3gA83/MVv3saOvU/6Eb+fDEFLEbEKv2jTLujt6Wd1evL6+3tbTrGBOjzvFT41UsS6DDdaatuW96aGSIikcY2MLPqHugRzv8rPo/0DZ9mb+zo03F2zSqrWaTpep8T81hscnSqTaOuJoSqtwFDYHFDwtJiB2+RjlXR2/Lo85OFUtQW97kcAXyD+i1Frpq0/mat+Wd67va3/H3B3/b4pX7ICwWlSp2zBC7fI3/v8QFOvx+YM4NwXmLaUva0c7PGBePJEACAyNAxcKC1/mzp2XhslXKvz5IdnzYs3sTipRfKpZ2FTA5edpMvRtU1sw5MnGy2iXjQn6fGosu5GlLxpIV6xxuVNghybB+ZCtryNyF16t3PERpN6D9u7c7yperQGsEjxfk5eq2PvvA43Kx4Jz89X9/5cjj6eQPz/7MU7JlGvoGhShauSxBYZo5d6EuA5em6sv2Apg9NQLrz7Scufr9HnjLauqETNlmMzDdU7120mCRgFsEnuYhxgI72yC4EX7HhuAJH/y3zyoXHiyIEYydf7DX9cvI5+6IJ4YIHq9ROxvBDQE+6IYrgp32US8UGQSOp0xRSpc6x2IBFhS75d317WpcRyxFypR4qats0vfR5AXjHUoF2q+4UKP4xGv/eAR+Qok7vXtgcQLu+FiNzw4/q/6jjcG2b9U/q/Ru5XJZdf64pMxcquIrLuntZuMzZkr5mQNWRX2ajvifSuVyg0U7dl8y3iVjh6+njnhbHnXjvsPvTe2VHdmwu9vlkjq9M5nRtqf5s1PeqGekHjE3GXPHqU08/HUQu9FPu3yb1E562OUrfXqi3tgC5bG7Hq4hviVVbdCAv5k6fkr9Db24rcBowhZ/R2aekAAJXDMEqFhYTCXeRHz96vWCl4SdPnbIkRuKwf5dH+ldoPB2Yiy0e5QKxzMenbe+tkb2fPyeyrdc75SEi9iSFm5WB/Zs11uybrz7YaV8tMnJowfk2ME9uhx+ICgaysR9X/ia3m72UlGhbH3tr470oT658/OPq/+Qem+Rux/6O93kmyrY+oALxaLHE6Lv+I0+YiHkLNg9C3Er62+/TytfuccPyREVDH81BP8xYremCTlJejcb/GeJ/yC7TZ7a2NoVAgUDQdsQLOrtCnajCldxBPNvnqIXoNg5x6jeTvtoBzEaCLiccl2qdtuCsnJc/edtt7zdvg5FPvQbTzFzVmXooJbKonoVSNuz5TDaK1bp8MOeuWKSHk+JSsOOXG5F3Vrm+UE+d3zc1nElwQ4/q/57075V/+ykFx/eruIqwmXmLY/pHaJqis5Iwe437BT1WR5sAZy9fIJWvOHTj2BuiB2+njphv7zx98Y49taK3d/worcFt2bp/tSo7XDPX9lu1sjl6f6xU96oZ6Qe8fuEbXGxmxyC2w2xyxf58g9c0n8n02cm6eKH3jmnlQYExkeoGLTZa9R24SofLLvmjReuBX4GLx5JgATsE/DLycnp8xc5MjJSGhqujjuKq24Od/uu+uTpGp7kx6i3UnvzBB9B322trfr9F67aQv2tysUBys21KHDxgmLlKjD9xlvvVIrdzVJRVqL5/M9//V+fI8DTclgCBiKwcGQtSnNZBO5V5vqs6rdKd9mI6eJgy49LTZc7PvdFrTxic4Itzz8rUKTN4gv+hguK83s8jHaQ3q30TrifDYdY8bPq/2D77Cv+CNruVgA7leukWXxVv7lO8/nSz2brrYKx65Anhp7SzPW5O/e2PN5l0612STLen+KuHXfXvS3vrt6hnh937Tpf95qv2i0Pv9vufn8Hy88OH+ex8DsJkMDwE+h9HD38fRmVPcDL3rxRKjDohrreuApXEIwXy7lKuxaueXphH94h4ndly9zOjt53OPhy3GYlwG69zcotCfvjuxK87M0sVvVbpZvrcnU+2PLNjY3qpYQndJVnTh6RyvL+4/EFf3cKhTEWq3Qj31AdrfgNVf98xb+jtXfnMTMjX9VvrtPduSeGntLc1We+7m35gewEZW7XOPe2vFGP8/Fqzo9z2+bvXvNV1gpPMlh+dvh4apdpJEACw0OAFovh4c5WSYAESGBUE0D8kd5paADugaN6wOw8CZAACZCAJQFaLCwRMQMJkAAJkIAzAY/xMM6Z+Z0ESIAESGBMEOj7koMxMWQOkgRIgARIgARIgARIgARIwNcEqFj4mijrIwESIAESIAESIAESIIExSICKxRicdA6ZBEiABEiABEiABEiABHxNgIqFr4myPhIgARIgARIgARIgARIYgwSoWIzBSeeQSYAESIAESIAESIAESMDXBKhY+Joo6yMBEiABEiABEiABEiCBMUiA282OwUnnkElgLBKIjUuQ0LBwKS25OGqGn5A0TpLGper+dnV1CV5kSBkbBHCvZkyZ7hhsUWF+n5epTlJpl4ouSFtriyMPT0iABEhguAlQsRjuGWD7JEACQ0ogKDhYbrvnEZk+a5588v6bo0qxmLdouSxfe4s0NzWqBWQrFYshvVNGVuVxCUly272PiJ+/v4SGhsmW55+VU8cOOjq58PpVkjl1hhzY87Fse+dVx3WekAAJkMBwEqBi4YY+/jO/8dY7XaZu/s0v5PzZUy7TXF3cePdDkj17gYRHROrkp3/4LWlubHCVddRdmzV/scxfskI2//rnI7bvI5X/t5/6mRw/tE+2vv7XEcvO3LHPf+lJCQwKkud/9bT5suPcKt2R8SqfbLr7YZkyPUfee22L7N/9kU9af/ir3+3zNPm5Z34spcWFPqnbuZKW5iZ5+qknnS87vi++fYZUFtZK/qFLjmtj8WTG8okSEOgnJ7ZfcDl8q3SXha7CRXfzB2sE5j11QoY8/s1/6teT17f8QZav2aAUzw3S2tosu7a92y8PL5AACZDA1SZAxcIN8dzjh6W6slynrtt0t1RfrpADu7fr7+WlxW5K9b88MXOqXLd0pez66F0pKTyvM7S2NPfPOEqvxMTGy6TJWSO29yOZP55Eit+IRdevY35+njtrld6vwqtwYcbs+QLl95U//U4pcXt91uLH770u+3duk6SUNFm1/jYZzrH7MVJOz6vnu3Pk/qoNdv7gAgVLRWBgkKy++XY5dnCv1NfW+OweZ0UkQAIkMBgCVCzcUKssvyT4QFbctEmalIXh5NEDbnL3vxyiTNfxicmSkjZJJxYV5EltTZU+7+rs1Me7Hvo7CVZuGuERUTIudYLUVFXImy++IBfyz+h0+FffeteDkqaeWHV2dkhe7kl5fcvz0t7WJtNy5srGOz8vTcpFIio6VrtIzJxznRzc+4lsfc3eE/CIqGjdjvkH/LjtWFOWrlwnN9y4Uf2nFij+/gHy3R89o6upq62W537xr/rcm/Ghgie+92PtQ5yaPkli4hO1YrZl86+lsb5O1+/px2jgj/7HJyTL19Q4XY0vMjpG7rj/MUmbOFk6OtrV/B+XV//8ez3slLSJ8sAXv6FdI95+5U/62gOPf0Ni4hLlt+rpOfJbCWIO1n/mXpmQmSVwFyrMPysvbv6Nw2d7QsZU2XTPwxKXkKifxnd0dPSp0irdav49jQ8NjUtNl7W33CkTMqbohXvRhXx56+U/aiXfTjryTMqcpu8XZ6Vi9oIlcvPt92v3EuP3DQ8A1my4Q/77lz+RmurL4olPwblcVC8z9U/XP77+/Z/I4U93yo4P3tIZ7vz8lyQ0PFz+9Ntf6u9W43dda/+rXR1d6u9DV7+EoJAAyVqcJnHjo6RLpZcX1Ej+wVLp7u6WzHkp4h/oL3n7S2T22kxprG7RFo9ZqzOkNL9aW0AW3DJVassaJWZcpETEhEjVpXo5teOirguNBajy05am99Sv+lBeUK3qKHX0Y+rCVAkI8pfgsCCJTY6QxpoWObXzojTXtzryeDoJDAqQzPkpkpAWreu5XFQnubuLdP9RLjQyWLJvmCgRsaFSU9ag+tXdpzqrdKv+WY0vOCxQcRwv8WlR6v4UqSqpl3OflkhHW8/fd6t0o7Pu5s9ItzrCCnf96vXKLSpbjh7YbZWd6SRAAiQwpAT4rGuI8GLh8qUnfyAb7rhft3Dvo0/o77gWdsUlKiQ0VLKy5+hFzK5t70h4eKQsUQt2QxbfcKNWKuAuk3/2tOTMWySz5i3WyYEBgRIVE6ddaTra2yUxOUVOHNkvc6673ihueXzyB/8u3/nhz/t8Hv3qP1iWQ4ayS8X6P7GLSmGC4D80fE6qPhjizfhQR1h4hHYhyztzUo6puico68+cBUuN6j0eRwN/DCBzWracPXVMDu/b0W98m+56SMYrpWrfjg/klFJqc9Tcr73ls3rccLs5e+qodkODq8Tchctk6ozZclD5W9tRKlDJutvukYysbDmklNFjB/bIlGkzZd6iZbp+/Fi0fI1Ex8SqJ/MfKaX3srJMTVMGlt7nwlbpVvPvaXxof9nqmzWTT5VlYM/H72mXkBXrNiJJi1U6MiWOGy/VSmF3lnO5J5RSH6LjLow08GtUDxCgVECs+Bjl3B1x/4aEhDqSwSM0NNzx3Wr8jowWJ20tndLR2lfpQ5HxWQl60V90ulIqLtRK2oxEiU2J0LW1q/yRcWH6PFYpDpEJPedRCeHS1txTV3BokIyfliAVhTVy8WSFJKbHSEJ6lC6DH1OU4oCy5w+XSsnZy6r+JElVbRoSGBwgKVPipbmuVc4pBSY4PEjSsxONZMtjxjwVuD4xRgqPl0vRqQpJzozVi3ijYNr0BAmLCpaCI6WqjTZJmhBjJOmjVbpV/6zGl56dpJSeKNV+mVbY4lKiZMLMJEcfrNKNjO7mz0i3OsKajgdfKerhFIUESIAEhpsALRZDNAP5ajH80gvP6R1dViqLxzuv/lkaG+p1a2ZXqAb19P0l9ZQYEhEZJTPnLtTn+JGVPVsvOt94cbO+lvjtp/RC6JBahBqCRScC+CpKS+RiwTmZv/gGCVaLGTs7hbyhfHT94Y5jEgSJ2hHEmOADH9/MrBlurSTejq8gP1ezQ5/SJk3WC/Hd27dadnE08McgLuSdccRYTFQuZVA0jPGlTsyQ3BOHHYGZsFKkq6f3hrz/1ssyZcYsWbfxLolVFh0oeXs/ed9ItjyCEZTBMyd6dhqCEjNt5lylyHyoy6I/Z04edfTP3DYyWKUjj6f5txofFOcq5Y5oBKbC1cPscmSVjvYDlEWtXSnezgKrHHbZMe+6A8sIlHNDrPgY+QZ7tBq/3XqPvNej3DvnT86IldK8arlwtEwnQZFImhQr1ZcapEkt9tMigwRWDVgQQiOCtQUCT9mb63p3GULsxsUTPYpZ3PhIbT2AkgKJS4lU9VfJJaVUQGKSIiRW5YGSYUhLY5tWKvAddadOS5Sz++y5klYV1+v+N1T1uI7GKKsHxgTLBQSWDIyv6FSl/h6X2hPDpr/YSEc+T/2zGh8sIg3K0mOMv/JirbZcGO1bpRv53M2fkW7niIcJuNcpJEACJDDcBPiXaIhmAAsifOCeBMGiD8F4zoI8hhw//Kk+hc8s/qPAwqms5GMjWSrKLsm48emO7+aTbsG/gcmR/bsGVmAQub0dX6UasyG16klymLLq2JHRwB/jMNztcO48Pox1PFyeHv8mkiVSua7BDc4QLI63vf2q3H7/F/T9AkV2IJJ3+rjMVRaKBSr4Hgt2uObAFc6QiMhopbD2LgKrKsr6LF6s0lGPp/m3Gh/6d6NSmv7+H3+qLGRFgrgn8z1rlW6Mw90RisMa5ZuO3Xdg8QtXij0UOUOs+Bj5Bnu0Gv9g6zXKhUWFSOGJ3r8v9WqBHp3YYzHBE/4QZUEIjwnVLkpRymIRHh0isGS0t/a48qAeLJwNgTICK4YhcHGCMjFjWc+T8pCIIOls771/kA8uVoaUX1FI4DakvLEspbaiUVssUpXVBGWg/HR39d7/Iep7Q3VvvFpjVYty7+q1qFmlowOe+mc1PihdcMVauGmaoK9QuGpKezflsEq3BMAMJEACJDAKCVCxGEGTdiEvVz3B7vHdNrpl4/9fI+uAj/c9+jXxD+hrsaitrtJ+7AOuzEaBqz0+G13qk2Uk9q+1pUXq63oCMnGsuxKnY3Tcef6M63aOD375W9q6df7caeWf3iFwqXMWq/vPKt1cnyu+nsa3U7kHNtTXSo4Kvk5X1qoZs+bruCXDgmGVjrY7VVwI3gfgSuC2B8UCyn+MijdBfBCUDUPs8DHyDvboafyDrbNPuT4T1PulpUEt0NXXWGV1gMIAywWsDXBbGoi0t3Xop/4og6f/LQ397yGjPtR94VivomNcd3ecu26KwF0JC/Surm6XcSSWT1N6h+yuGcd1V/3zND7ErMBtLGVKnMSrOBa4gZ3ZW6QsGD2xdFbpjoZ9cAKXO7sukD5ojlWQAAmQgFsCVCzcohn+hOamBh1AavQkOjZOBWv3PhEzrg/2GBIWpgOvzeWDgu25QpnLDHa/laEeX98+DvzbcPevva1VW7nefe0vuvNGbI4xkigV/4Bg4wKljMYpV6gNd3xOfvcfPzWSPR6nKheqBPWU/uU//lbH6SDzo098TymaAY5ycKfDrl+GREbFSHNz7/1hlW6Uc3e0Gh/KHdm/W39gxXvoK9/R7oGGYmEnvV4pC7D6uBJYU2AJyVCuhNgAAW5phtjhg7zGutXsomXUAbdC/M4agjagKBliZ/xG3sEc25rbdQyCUTY0MkTaWnoW/gjgblbKRbxSJopzLyvFIlAvjptq7SsWne2dUlvepOMf0IZ/QK+1wGhzsEcEZMOKcnir2vSivOeei4gN6eO6iSBpuBsZAosJLC6GWKUb+dwd7YwPQeP4wKKSsypDu2oZigXqtUp31/ZAruMFitisAhZPCgmQAAkMNwEqFsM9Ax7ax9NT7P6EQF08dU2dkKlcX17xUGJgSX949mcDK+Aid7mK7UCcBuJIKstVEKVyz8ETcDsy1OOz0wdPeYa7f2CLl7pBcWhvb5PPPvC4jqP56//+Snd7/W336uDgrX/7iyQrF7k7PveY2qnrVscuRJ7GVq6C71HnZBWwjd2gsmbO0TET2HnJkIvnz+nrOWqXMigYyePTdF676UY+d0er8X3h69/XrlcfvPmS3rUKMUjGzmqo0yodeQrVGOapuCMEt5vdqJAGOa82RVi4bJVqJ0h2fNizexOu2+GDfEUX8rSlZ8mKdQ43KuwAZ1g/spU1ZO7C63t2flNztH/3dhTTYjV+I99gjxUXamTc5Hipv9ysn/xDiTi9+6KjOjyhT0iPlrNqJ6Og0EBBsHP+wV7XQ0dGNyd1lU36aX3tlR2ZsLvU5ZI6Obu3133OTVHLy7CowK0qPjVKEGMRMy5CElVwNuIuDLlcXKfGF6cW743arQsxGIhzMMQq3cjn7mg1PuygBYvhuf3F+gjXMvOOV1bp7tod6PUFS1foXQON3c0GWp75SYAESMCXBKhY+JKmh7q6Tb7rHrL1SUIQLfy+199+n1685B4/JEdUsK1ZupWLgBbj0ak58SqcY2ei0+ptsMtUEDd22cFC6/x//putlu2Mz1xRj1/24AY6Gvg7jw8B/1Am7vvC17Sbw6WiQkeQ/PSceTrQf+eHb+s3SZeWXFS7Ri3UwfRw8THHNpgZGudY+O7f9ZHeBQpvd8bOMj1KRS9fbGOJl0Te9eCX1dPQKim5WODY6hP1WKUbbbk7ehofyuzc9rbctPFugUsSnPLLVLzHHlPgvlU66sB2r9hpDbEaeNGcOYYC6XiTMbbqRNrpY4dwSYsdPsiI9wZgxyowxE5kEGzZizk4sGe7dt3aqF7Q16GUOGxXfezgHp0HP6zG78g4yJPiM5f1Vq8zV0xSLmFdKqi6yhH4jCqb63viFaBgILAaArcot6JuDXMkF4KwZ66cJAtuzdL1I77gvGm7Wbf12EhAf7Hb04ScJJk4K1nHgUCpMLdfrHa7CldxJPNvniKwtFSr7XAdJiTVhlW6VTesxlegguKnLUmXRZum637BeoMdrAyxSjfyeXPEzmwLr1+t792ykiJvqmJZEiABEvAJAb+cnJzelYSqMjIyUhoafOduM9BeDnf7dvs757ql+qVErvK/8Nwzlgs7V+XcXYMLDBYm5sBdd3lH4/XBjG+k8/dl/2AtaFVuSVj82hW77cP1CfVDsXAnCG72Jt1dvcZ1q/Fhxyu8+wWLfVdilY73ydzzyFf1xgdblVvZno/t75xlh4+rPpmvISi+rbXV7U5tnsYPxe56te1uRVmJLv8///V/zVXbOoeLUreKqYb701AI3lXRrd4hgTgIuwILRNaiNJfZ4f5kvAsCGRBnYf7uXMjbdOf6nL9bjQ/t4wEPlCFXYpXuqgyu4T0ud3zuixKgthbH5gJbnn9WK8JG/s/c96hWaM+dPqaU2efc3l9Gfh5JgARI4GoQCEhOTv4Xc0N4YVubaecZc9rVOB/u9s1jjI2NkAceWCbnz1dKi/JNNn9vbm5Ti33lCpDUJYcPHFHuP2fkcvlF/f30iVylnDX2ye9cfiDfz54pUfuUtwy4PvNYRvI5lCbjpYF2+4lFEoKZYSFx/pSo3bdQp69kuPuH7YkHGphplw/yWSks3qZbzYPV+NA+FCt3YpWOWIcDygUJVpf6ulq5XNH7Ejd3dRrX7fAx8ro7QqnACy7diafxByjFD1v2QrGrrqyQAptuhua2hkifcDSBRfVA24AiAusIrBzOH1hQzPU5v/jO0fCVE2/Tnetz/m41PrTvsBw7F1bfrdJdFNGXAtSLR8PVQ6XLajc27CqI7b2bGntdweAauG/nh/Lxe294vL/c1c/rJEACJDAUBGixcEM1IyNJ1q6dKR9+eHJUHn//+15fbjdD5GUSIAESIAESIAESIAES8BkBKhZuUD722Cp5+eX9UlPTY3m4886Fo+o7+k0hARIgARIgARIgARIggatFgIrF1SLNdkiABEiABEiABEiABEjgGibQ9+1o1/BAOTQSIAESIAESIAESIAESIIGhI0DFYujYsmYSIAESIAESIAESIAESGDMEqFiMmanmQEmABEiABEiABEiABEhg6AhQsRg6tqyZBEiABEiABEiABEiABMYMASoWY2aqOVASIAESIAESIAESIAESGDoCgUNXNWsmARIgAd8RiI1LkNCwcCktuei7Soe4poSkcZI0LlW30tXVJWdOHhniFlm9XQK4lzKmTHdkLyrMlwb1AkVDJqm0S+plm20eXs5o5OWRBEiABEighwAVC94JJEACI5pAUHCw3HbPIzJ91jz55P03R5ViMW/Rclm+9hbB27/xBm4qFiPnVotLSJLb7n1E/Pz9JTQ0TLY8/6ycOnbQ0cGF16+SzKkz5MCej2XbO686rvOEBEiABEjAPQEqFm7YYDFw4613ukzd/JtfyPmzp1ymOV+cNX+xzF+yQjb/+ufOSSPi+0jvHyBtvPshyZ69QMIjIjWzp3/4LWlubBh2ft9+6mdy/NA+2fr6X4e9L3Y68PkvPSmBQUHy/K+edpndKt1loatwcdPdD8uU6Tny3mtbZP/uj3zS4sNf/W6fp9XPPfNjKS0u9EndzpW0NDfJ00896XzZ8X3x7TOksrBW8g9dclwzTmKSIyRteoKc/GRo+ma0Y+c4Y/lECQj0kxPbL7jMbpXustBVuOiOL6wRmJfUCRny+Df/qV9PXt/yB1m+ZoNSDDdIa2uz7Nr2br88vEACJEACJNCXABWLvjwc33KPH5bqynL9fd2mu6X6coUc2L1dfy8vLXbkszqJiY2XSZOzrLINW/pI79/EzKly3dKVsuujd6Wk8Lzm1NrSPGy8zA3jSaf4ma+M7HM/P8+dtUofjtHNmD1foPy+8qffKSVur8+68PF7r8v+ndskKSVNVq2/TYZz7H4eIt1CwoMkcUKMz8btTUWe756R+6vgia8nHnCBgqUiMDBIVt98uxw7uFfqa2s8FWEaCZAACYx5AlQs3NwCleWXBB/Iips2SZN6Qn7y6AE3uftfXrpyndxw40b1n1Kg+PsHyHd/9IzOVFdbLc/94l/1Ofyvb73rQUlTT8w6OzskL/ekvL7leWlva+tfoYsrEVHR/a7Cj9vO03w7/bvrob+TYOWGEh4RJeNSJ0hNVYW8+eILciH/jK3+P/G9H2sf5dT0SRITn6gVgy2bfy2N9XX9+u18IUS5JsQnJktK2iSdVFSQJ7U1Vfq8q7NTH73p37ScubLxzs9Lk3JRiYqO1S4qM+dcJwf3fiJbX7NvgYhPSJavqXG6Gl9kdIzccf9jkjZxsnR0tKv5PS6v/vn3uu8paRPlgS9+Q7tevP3Kn/S1Bx7/hsTEJcpv1dNz5LcSxBys/8y9MiEzS+AuVJh/Vl7c/BuHT/iEjKmy6Z6HJS4hUT+N7+jo6FOlVboVX0/jQ0PjUtNl7S13yoSMKXrhXnQhX956+Y9aSbeTjjyTMqfp+8VZqZi9YIncfPv92n3FuB+hgK7ZcIf89y9/IjXVl8UTn4JzuaheZuqfrn98/fs/kcOf7pQdH7ylM9z5+S9JaHi4/Om3v9Tfrcbvutb+V7s6utTvf1efhMSJMTJ1YaqyEPgrVx0/WXpntk5vrm+TI+/l6fOgkADJWpwmceOjpEuVLy+okfyDpdLd3d2nLndfAoMCJHN+iiSkRUtAkL9cLqqT3N1FjvKhkcGSfcNEiYgNlZqyBtVG33qt0nX/Vb3BYUESqywvjTUtcmrnRWmub9VdwtimLU3v6b9iUF5Qraw2pY7uBocFSua88RKfFqXuH5Gqkno592mJdLT1/P5bpRsVueJrpNk5wkp2/er1yi0qW44e2G2nCPOQAAmQwJgl4OFZ2Zhl4pOBl10q1v8JXVQLYgj+Q8Ln5JH9jvoX33CjVirgTpN/9rTkzFsks+YtdqRbnTz5g3+X7/zw530+j371H6yK6XQ7/QsJDZWs7Dl6kbZr2zsSHh4pS5TCZIhV/8PCI7QLU96Zk3JMjX2Csj7MWbDUKO7xiIXjl578gWy4436d795Hn9DfcS3sikuUN/0LDAiUqJg47crU0d4uickpckLNzZzrrvfYL+fEzGnZcvbUMTm8b0e/8W266yEZr5SqfTs+kFNKKc1Rc7v2ls/qKuB2c/bUUe0mB1eMuQuXydQZs+Wg8ue2o1SgknW33SMZWdlySClDxw7skSnTZsq8RcscXVy0fI1Ex8SqJ/MfKaXwsrKcTVMGlt7nzlbpVnw9jQ+dWLb6Zs3kU2UZ2PPxe9rlZMW6jY7+WaUjY+K48VKtFFpnOZd7Qim9ITruwkgDv0b1AABKBcSKj1HO3RH3b0hIqCMZPEJDwx3frcbvyGhx0tbSKR2tfZW+ptoWKTpVKZeLe5RwnONTeq5HuUaV47MS9KK86HSlVFyolbQZiRKbEmHRWm9yxjwVWK4UmMLj5aruCknOjNWLeCMHXLDCooKl4EipNNe1SZKT5cQqPTA4QFKmxKuyrXJuf4kEK+tLenaiUb1MUYpT7LhIOX+4VErOXlb9T5JUNSZD0rOTlNITpdov0wpTXEqUTJiZZCSrujynGxld8TXS7BxhrcaDpRT1cIVCAiRAAiTgmQAtFp75DDoVMRj4wEc3M2uGy6fgWdmz9aL0jRc363YSv/2UXigdUotUO/KG8gH2hzuOSRAkakfs9A/1NCjrwkvqKTgkIjJKZs5dqM/xw07/C/Jz5Z1X/6zLpE2aLFiI796+1VGHu5N8pYy89MJzekedlcpihDoaG+p1drMrlLf9w6IfAZoVpSVyseCczF98gwSrxaTdnWAu5J1xxFhMVC5v5vGlTsyQ3BOHHYGfsFKkq6f3hrz/1ssyZcYsWbfxLolVFh0ooXs/ed9ItjyCEZTVMyd6dhqCEjNt5lylyHyoy6I/Z04edfTP3DYyWKUjjye+VuOD4lal3AmNwFe4kphdjqzS0X6Asvi1K8XPWWCVwy4+5l19YBmBcmiIFR8j32CPVuO3W69hgTDnb6ptlaZatdjPiJXkSbF64W9OxznSSvOq5cLRMp0UGRcmSSpv9SV78UdVxfW6fENVj2sh4jlQJywXEFgyUD8UGkhcak+Mk/6iflilI19LY5tWKnAOC0PqtEQ5u6/HlTQuJVLVXyWXlFIBiUmKkNjxkVrJwHdYRBqqWxzplRdrteUCaRCr9J5c4rDwGN8Hc4Syj3uRQgIkQAIk4JkA/1J65jOkqVhYlZV87GijouySjBuf7vhudXJk/y6rLF6nY2FoyPHDn+pT+BzjP1o7/a9UYzKkVj1JDlNWDzuCdvGBexIEi24EWzqLt/0z6usW/Bu4GO5yKOk8Pox1PFyeHv+mrjhSua6Z3dywON729qty+/1f0DyhSA1E8k4fl7nKQrFAbQ6ABTtcc+AKZ0hEZLRSmHrjgaoqyvosjqzSUY8nvlbjQ/9uVErT3//jT6XsUpEgbsl8z1qlG+Nwd4TisEb5vmN3H1icwpXiC0XOECs+Rr7BHq3GP9h67ZYLiwqRwhO9v5/1SkGITuy1qFjVU1vRqC0WqdMS9II9NCJYurvaHMVC1PeG6t54psaqFvFXwduGWKUjX6NSDAwpV1YVCNya4K0FFykoEzOW9VgCQiKCpLO99/5FQDtcsRZumiboK6wyNaW9SpNVutEujyRAAiRAAlePABWLq8faZUuDWcwaFd336NfEP6CvxaK2ukr7sRt5fHm8kJcr+JjFm/6b6/HF+UjsX2tLi9TX9QR84lh3JU7EGK/z/BnX7Rwf/PK3tHXl/LnTyv+9Q+DS5SxW82OVbq7PFV9P49up3Oca6mslRwVfpytr1YxZ83XcjGHBsEpH250qLgTvG3AlcCuEYgHlM0bFmyB+CcqGIXb4GHkHe/Q0/sHWOaByfSawzxfLauaumyJwV8ICvauru1+ch67AqkqrdFMv4BJ14VivIoSk9rYObdXAOawbLQ299zBiRtqaO5Q7VZzEqzgSuEmd2VukLBg97mBW6ajTVwKXOLsuir5qk/WQAAmQwGgkQMXiqsxa71M+c3PNTQ06wNS4Fh0bp4KJe5/IGdfdHUPCwnRguDk9KNieK5S5zGD3c/G2/3374Ptvw92/9rZWbWV597W/6MEZsSHGSKNU/AOCjQuUshanXKE23PE5+d1//NRI9nicqlyoEtRT+pf/+FsdJ4LMjz7xPaVoBjjKwZ0Lu34ZEhkVI83NvfeHVbpRzt3Ranwod2T/bv2Bleuhr3xHu88ZioWd9HqlLMDq40pgTYElJEO5siEAH25phtjhg7zGutjsomXUAbdC/E4agjagKBliZ/xG3qE4tjW36xgIo+7QyBBpa+ldmBvXXR0RkB2VECaHt6pNEcp77omI2JA+rpUIkoa7kSGwKLSbYkGs0o1y7o6d7Z2q7SaHm5d/QP+/kwgaxwdWjpxVGdpVy1AsUK9Vuru2B3IdLzjEZhKwSFJIgARIgAQ8E6Bi4ZmP16nlyncfcRCIE6gsV0GQyv0FT5gheLqK3YkQyIunsqkTMpVrzCu22/zDsz+zndddRk/9c1fGuO5t/416huo43P0DW7zUDYpDe3ubfPaBx3Ucx1//91d6yOtvu1cHB2/9218kWbnA3fG5x9ROYrc6diHyxKVcbQ6AOiergG3sBpU1c46OmcDOS4ZcPH9OX89Ru3hBwUgen6bz2k038rk7Wo3vC1//vna9+uDNl/SuVYjRMXb2Qp1W6chTqMYwT8W9ILjd7EaFNMh5tenB/9/emQBXdV53/K9dCAFCrBZmkW0BQqxCgMBsxpC4xhNnbDe2G6dO4y5pOp00mU4nnS4ed9IZt1k8Hneamnbcce02bbwk48Zjh8ZgMAaDBRiEWcQihFbEJoQWtL6e811dvSvpvv09vfeU//E83Xu/9Xy/y4y/c7/vnK9s3SbpJwP7dlnRmzQ9GD5arq7mvFnpWbNh6+A2Ko1AZq9+FMtqyLKytVZkNHlHFQf2aDUjgcZvl4vkqr4WGhVKv9rrvU7mO+TLv8qVmhbMuCsft651mpWHfPFPOH2gNqjubrd1m21H+QUToD4Wk2aMN2Ft1e/CFnUcn3HXZJm8t0PD3qoPhvo52BIo3y7n69p6tcOM6+ZAxKklWwpxraEVZw9a2/cWb55nVmTPVdSbq+pgR5TSNgPl++o31PTS8g0map8dfSzU+ixPAiRAAr9JBGhYxPhta+Sf03Ka6zpx4tYoNjqRqX7pedOrOtnqvvAvPPy4mdycOXEUx8QZdzTFn36B9AhVfysKpv2NOFDrQ/M9Dt+BoTm+n4LRzyNbQIyEp9aQzoePTx3O1Zh4/Pf+xGyjaKy7NOjEv6BkuXGE/3jXe+Yk6aaGWokaVWac/XWLj9O3YUgnAw868a3Y/6GJAqWnO2vkGsuo8A5Ew2TqIY+PPvWH8rX1OhpqLw6GEtVmAuUPdOXz4m98Wunj3e9h2/bHoFuSdFP9ZfH3+MThuB8oX9vQcK8aiUx9NfSgOacPhebrSckaClTzTlce1SQjwfDRgnougUasUoYaiUxFQ/bqOzj8yR6zdWu7HNDXK0achpuuPPKJKaN/Ao1/sGAEN+rj0FB1DXevLDDGg07mT+y+aFqsl3T1U1i0Ya5sGesXp+frg47XgbrU8hrtaXbJNMxZPN2EglWjwulpVC/RpnLEj2PFF+82Rs2NRjE6vP+8ECg/kA7qxL1o41yUPlhk9Ff/iWpHuNmL4pQ+f82dWPXQAqOXrm5oBCtbAuXb5SK5auS0srWbzb+tyw11kTTFuiRAAiTwG0EgpaSkxPG/CiA3NxdtbcFvx4k2pXj3H+x4lq4sN4cmuZV/fccLASeGznq6RUYnLk7HXmd+ot+Ho380+QXiE2/9dLWgS7Yl6eQ3WAmWj2590vbVsPAl6twcSb6vdu30QOPTiFd69ohO9t0kUL6eZ/LbT/+xCWywU7aVfbI3+MhZwfBx08mZpk7x3V1dPiOF+Ru/GnZrJezulcsNpv6//9M/OJuOyr1uIfKIz7Pz/ApdgShaNcu1fd3+ZJ8FoQXUz8L5PLxSpPnD2xv+rGdoeOSMDPXzcBPtXz8AqDHkJoHy3epomp6z8uUnn0GahJ5W5/83Xv2JMVTt8l96/OvG4Dx3ulKMzR0+379dnlcSIAESIAH5fwoh+CaQlzcejzxShrffrkBLSzucz031tXJ2gXwxXj4Hn312Sfaud2PcuEzznJlhteksP7z+8OdOcVwcXt63ZomVo9u7QhXl5yvsbGcIE/Bg+o23fs7tP8Hoq2WC5aMTdn9Gg7YVab624U8Cja/l+lV/1eWMDf/5unrz8o+eM5O8YMMp2x0Gw8cu6+va1urd/uNWxt/4dfuMOaFdKqojeixk+MF12kenbJvS8yHcRA/Tc4o/o0LLRZrv7Mvt3hkJyi0/Vv13trfLoZWfmy6rTh4zW1Wd/euWOHPGkCMggDOf9yRAAiRAAiMJcMViJBOTMm/eNGzZsgi7dp2My/WVV7x7uX2oyGQSIAESIAESIAESIAESSBgCNCx8vIpvfGOT60rF8JWGWD1ruxQSIAESIAESIAESIAESSBYCNCyS5U1RTxIgARIgARIgARIgARJIYAJDT1dLYEWpGgmQAAmQAAmQAAmQAAmQQOISoGGRuO+GmpEACZAACZAACZAACZBA0hCgYZE0r4qKkgAJkAAJkAAJkAAJkEDiEqBhkbjvhpqRAAmQAAmQAAmQAAmQQNIQoGGRNK+KipIACZAACZAACZAACZBA4hKgYZG474aakQAJkAAJkAAJkAAJkEDSEKBhkTSvioqSAAmQAAmQAAmQAAmQQOISSE9c1caGZsVTU7F1XhpequhJqAHdu+W3cP+Dj7jq9NrLP0b12VOueW6J2x/7GoqXlCJnfK7J/sGz30Fne5tb0YRJi9b4F69YjRVrNuC1f/lRwoyNipAACZAACZAACZBAPAjQsIgx9fzsFCyfkXgLQ2dOfIYbV5vN6Lc+9BhuXLuCwwf2mOfmpvqgqcwpvAcryzdi/4e/QsOlalOv63Zn0PXjVTBa45+Ul4+5dxXFaxjslwRIgARIgARIgAQShgANCz+v4neXpCNbCOVlpaAoPxX1tzzYcbQHDW0eU0vznlmWgZJpqejq9eBQQz9+erLX5JXPSsWTi9KRmZaCdLErXtyWadKbOzz4+4+t1Yvvb8rEry704aPaPpP31OJ0TMhMwU+OWPmB+n9uYyaqrvdjvuhWkJuCk1f78c+He9BlNWfa9PXnanMj9KeyYdtD6JAVhpPHD/sqPiI9K3sc8qdOx8xZc01e3cXzuNly3dz391kKPPq1P0JmZqasZEzAjILZaLl+Be+++TpqLlSZclOmzcCDjz6FWbPnoa+vF+fPnMT/vvEqerq7Mb9kGbY/8lV0dLRjwsQ8VJ08hkVLV+LIwY+w852fjdAn1IRIx1++cSvW378d6enpSE1Nw58/94JRofXmDez48d8FHF+o+rI8CZAACZAACZAACSQ6gcT7lJ5AxMZnpODeO9PQ1O7Bf4vBkJcNPHB32qCGaggsmJKCt8/0Ys+lPmwtTMM2+anUiRGys7oPx5v7zbPe62/vJetZEydlATkZJtv80fvxlv1hngP1P1HKbpqThsONfcZAWTY9FaUzR+eVLildgz/4s7/GA19+wuj6la9/yzxr2riBLVFZ2dkoKl6KlhvXsH/3+8jJycUamZDbsnr9/caoOHH0EC6cPY2S5auwePlqk52eJkbWpMnQvN6eHkydPhOfH6vA0pVr7epxvV5urMfxwwdQKwaVit7r76ToaIu/8dlleCUBEiABEiABEiCBsUKAKxYB3uS1Tg/+o9JahZgoKxf3zfVO3NV/Yl9tP34tBoOKrmoskrT/k+e6Vo/8+sQwAcruSMW754JYRnDRxV//WvxoUz/eOWu1vWiqbrtKw4F6r/Hi0mRUki5UncRbr+/AtBkF2CgrHu//4qdob7tl2nZuhWq71Yq3XnvZpI/PnYBFy8oG+y8qXoKzpyrxyzdfM2lTv/u3WLB4OY4e2jdY5tC+D1B4z0JcaWqQSfw5rFi9HplZ2ejuuj1YJh436oOiv3vvewCFRQtdV1GCGV88dGefJEACJEACJEACJBALAjQsAlBVA8GWgw3WBD41BeiXZGuLVAq+WWotO6g/RadsiYqm+Otf+7nU6jUidGVFjZ/RkOvin6E/3Z6kol/uG+tqRnStZWw58dmn5jY9PQO9vT1mReJyw147G1cuN2LGHWKJuYgH+l9yia64BDu+5BoZtSUBEiABEiABEiCBkQRoWIxk4jOlQbY3/Vy2PTmlQ9whdFVBRa9XxYciVuLWf6z6ikW7NefPQH9OiR0tZy/xux/r44sfWfZMAiRAAiRAAiSQaARoWETwRnR14qw4T/9yYJtTptf9YkirKT4WEW52AVPGeTOnyr1tpAxpYIw+dHa0IW/ylMHRTcybLM7aoYepLcxLgUdm8Bdvxmsa732Hg4ORm2iNz9km70mABEiABEiABEggUQnQsIjgzVy44cE6ce4+dc2Dnj4PvrM6A5VX+vHKMe+qRkNbPyQwFDbPTUOjRJNq7xbfC1n5UKkQp2t1vj7enCrRoCwfjfc+TazzLiLAE7Cq+mlo9Kem+kvIHpeDgtmF2P3ezwPWcxbQrV/PbsjEaYmI9fyB0WfXLL4fqampxs/kanOTOb+j+txpo2I0xuccK+9JgARIgARIgARIIJEJ0LCI4O28Kk7df1qWgb9Zn4Fucb84c60f/zMQbtZutrrFgw8lYtQTxekYJ64YlRIl6ocHrQmwRogqmJCKb6/KkBCxHuyu6cOxgShSdv2Qr3H6aO/p9/p6BKvzoX27kCMO3V94+HET+enMiaM4JpGVnOJRZxYVH+Mqlqhcul6g7OIhZ08dx+nKI1gnTtyZmVmoqzmP6peeN6oEM7546Mw+SYAESIAESIAESCAWBFJKSkqGTNlyc3PR1hb6dpRoKRfv/sMZh4aJ7ZF5bU/oc2vTnZ6HoXX7wqwfjs6B6ixdWY7NX3zYtdjrO14wjtuumWEkanja3p5uc35FqNWfXpqOUjmA8LsfdEeVXzTHH8n4QuXB8iRAAiRAAiRAAiQQLwJcsYgCeXXgjkRue3dORdJMVOs21dfiwJ6drm12dna4poeb2CmH84UrCyTE70cS8jfaRlk0xx/J+MLlwnokQAIkQAIkQAIkMNoEuGIx2sTZX1QJ6Enl6kTfm0CrPVEdIBsjARIgARIgARIggSQhwBWLJHlRVNOdwC1xhqeQAAmQAAmQAAmQAAnEn4D3GOn460INSIAESIAESIAESIAESIAEkpQADYskfXFUmwRIgARIgARIgARIgAQSiUB6VlbWCH3c0kYUilFCT08P4tl/jIbFZkmABEiABEiABEiABEhgTBPgisWYfr0cHAmQAAmQAAmQAAmQAAmMDgEaFqPDmb2QAAmQAAmQAAmQAAmQwJgmQMNiTL9eDo4ESIAESIAESIAESIAERocADYvR4cxeSIAESIAESIAESIAESGBME6BhMaZfLwdHAiRAAiRAAiRAAiRAAqNDYMwbFgvygW8uGx2Yofbyj5uAF7cAmWlWza8WA98uDbWV+JVPdv3jR449kwAJkAAJkAAJkMDYIzDmDYv8bGDZtMR8cakpwDg5+9zWL0Wek0mSXf9kYk1dSYAESIAESIAESCDRCci0NnHld+QLfrZ8zZ8kR23cnQc0tgOvVFpX1TpL8p5eDBTLqkR3H1BxGXjjjDWeVTOBrywAMqRMmphPP5DVAZXmDrn/1Lp/dh3w6xrg43rr+YmFQG4G8G/Sh0qg/v+qHDjXAhSJbjPHA6evA/96HOgSXYKV67eBMtH106aRNSZkArqKsVDG19MPHJbx/UzG1++xygbq3x+fkb2Fl5Ls+oc3atYiARIgARIgARIgARIYTiChVyxyxOwpLwAuizHwZpVlYGyb5x3CkzLpnj8ZeOc8sE+Mg/tmA1vmWPkNbcAHl4DPr1rPeq+//Q3e+jpx1xUDW7S/8WJY2BKo/4lSf/0s4Giz1faSqbL6MN2uHdy18gpQMkUMKIceds1NMp6FkvdhrdXHZnnWsrYE6t8fH7uNSK/Jrn+k42d9EiABEiABEiABEiABi4DLdDax0OgX8f86ZemkE+mNMrm2ZYEYFfvFoNgtBoOKrmro1/1d8lwvhoX+1ophUiqT/ferrTKh/vXXv7Z1TIyKdy9Yrao/x1IxLg41Bt9L7S1gcTewwsUgKZsBHBRD6BfnrPbunGCtblQOGEua6q9/f3yC19B/yWTX3//omEsCJEACJEACJEACJBAsgYQ3LOpl4m2LvV1I9/brdiDdInWPGBfPLLFKTBZ/itu9dunoXP31rz3UifFiS7Ns1dJVkFDliBgnakTc6Bpac3oOsPOiN+1SK1A4yfusd/76Hw0+qkOy669joJAACZAACZAACZAACURGIOENC+fw1MdCtz05paMH0FUFFb1e67TuY/HXrf9o9KMG01+ssnxEhrc34E4xPDno59Hgk+z6Bw2TBUmABEiABEiABEiABHwSSCrDYvgodHVCnaftbU4ZqcNLDDz7iLZ0S7YgadQoW/LHyarBgJFip43G9eJNyyhSJ/Q6xwrNTVnBmCarFrZMFf1aRedgJVg+8yYCasDUyIpIOBJv/cPRmXVIgARIgARIgARIgASiS8DXVDy6vcSotWqZkJffYW0PUv+D768H1GHZKY2yVSlNDIsNd0r0Jtk2VZDrzT1yGVgpW5AWiUP0GmnnHvHRsLdbeUuNzp3qoluXnKJbjHR8Go5WfUXUf6TCJXqUs47zPhg+unXrL8uBx+Y7a4Z+Hy/9Q9eUNUiABEiABEiABEiABGJBIKlXLP7zlHX43ffWSDjWPqDqBvBW1VBMF+Ur/Ed11sRZI0BplKgXj1hlNJLUHRIm9lvLrXC1e6XcCYdj9NCWAj+Fs23JDh2rBsMDhUP7UKf0STLx//2lVghbDYurEah8yfD+g+Gjxoou6OjYw5F46x+OzqxDAiRAAiRAAiRAAiQQfQIppaWlQ+ajGRkZ6OkRx4UkEjUYeuWcBz3rIRzR8x60ft8QEuG0FJs6usVLdbMn8aH24o+PnpOxXCJSfW9v7MYfS/1DZcHyJEACJEACJEACJEACsSEgU/Lkl84II0GFcqBdPGiFazDZuvrjo9vDdCUklkZVLPW3x8grCZAACZAACZAACZBAfAmMCcMivgiTu/cfVkQ/RG9yE6H2JEACJEACJEACJEAC4RCgYREOtTFUpy2EKFNjaNgcCgmQAAmQAAmQAAmQQJQJJHVUqCizYHMkQAIkQAIkQAIkQAIkQAJhEqBhESY4ViMBEiABEiABEiABEiABEvASSO/qklPYHDL82ZHFWxIgARIgARIgARIgARIgARJwJcAVC1csTCQBEiABEiABEiABEiABEgiFAA2LUGixLAmQAAmQAAmQAAmQAAmQgCsBGhauWJhIAiRAAiRAAiRAAiRAAiQQCgEaFqHQYlkSIAESIAESIAESIAESIAFXAjQsXLEkV2JR0UYsW/al5FKa2pIACZAACZAACZAACYwpAv8P8ljTnKNQZj0AAAAASUVORK5CYII=;" vertex="1" parent="N9jU_cckzsBoXIB6CpFo-1">
          <mxGeometry x="520" y="50" width="530" height="403.2" as="geometry" />
        </mxCell>
        <mxCell id="zJAF13E1xL6LFFcT0l-s-1" value="" style="shape=flexArrow;endArrow=classic;html=1;" edge="1" parent="N9jU_cckzsBoXIB6CpFo-1">
          <mxGeometry width="50" height="50" relative="1" as="geometry">
            <mxPoint x="410" y="200" as="sourcePoint" />
            <mxPoint x="510" y="200" as="targetPoint" />
          </mxGeometry>
        </mxCell>
      </root>
    </mxGraphModel>
  </diagram>
</mxfile>
